<svg version="1.1" xmlns="http://www.w3.org/2000/svg" xmlns:xlink="http://www.w3.org/1999/xlink" width="668" height="764"><defs/><g><text fill="#eeeeee" stroke="none" font-family="Arial" font-size="24px" font-style="normal" font-weight="normal" text-decoration="none" x="0" y="0">UNREGISTERED</text><text fill="#eeeeee" stroke="none" font-family="Arial" font-size="24px" font-style="normal" font-weight="normal" text-decoration="none" x="0" y="30">UNREGISTERED</text><text fill="#eeeeee" stroke="none" font-family="Arial" font-size="24px" font-style="normal" font-weight="normal" text-decoration="none" x="0" y="60">UNREGISTERED</text><text fill="#eeeeee" stroke="none" font-family="Arial" font-size="24px" font-style="normal" font-weight="normal" text-decoration="none" x="0" y="90">UNREGISTERED</text><text fill="#eeeeee" stroke="none" font-family="Arial" font-size="24px" font-style="normal" font-weight="normal" text-decoration="none" x="0" y="120">UNREGISTERED</text><text fill="#eeeeee" stroke="none" font-family="Arial" font-size="24px" font-style="normal" font-weight="normal" text-decoration="none" x="0" y="150">UNREGISTERED</text><text fill="#eeeeee" stroke="none" font-family="Arial" font-size="24px" font-style="normal" font-weight="normal" text-decoration="none" x="0" y="180">UNREGISTERED</text><text fill="#eeeeee" stroke="none" font-family="Arial" font-size="24px" font-style="normal" font-weight="normal" text-decoration="none" x="0" y="210">UNREGISTERED</text><text fill="#eeeeee" stroke="none" font-family="Arial" font-size="24px" font-style="normal" font-weight="normal" text-decoration="none" x="0" y="240">UNREGISTERED</text><text fill="#eeeeee" stroke="none" font-family="Arial" font-size="24px" font-style="normal" font-weight="normal" text-decoration="none" x="0" y="270">UNREGISTERED</text><text fill="#eeeeee" stroke="none" font-family="Arial" font-size="24px" font-style="normal" font-weight="normal" text-decoration="none" x="0" y="300">UNREGISTERED</text><text fill="#eeeeee" stroke="none" font-family="Arial" font-size="24px" font-style="normal" font-weight="normal" text-decoration="none" x="0" y="330">UNREGISTERED</text><text fill="#eeeeee" stroke="none" font-family="Arial" font-size="24px" font-style="normal" font-weight="normal" text-decoration="none" x="0" y="360">UNREGISTERED</text><text fill="#eeeeee" stroke="none" font-family="Arial" font-size="24px" font-style="normal" font-weight="normal" text-decoration="none" x="0" y="390">UNREGISTERED</text><text fill="#eeeeee" stroke="none" font-family="Arial" font-size="24px" font-style="normal" font-weight="normal" text-decoration="none" x="0" y="420">UNREGISTERED</text><text fill="#eeeeee" stroke="none" font-family="Arial" font-size="24px" font-style="normal" font-weight="normal" text-decoration="none" x="0" y="450">UNREGISTERED</text><text fill="#eeeeee" stroke="none" font-family="Arial" font-size="24px" font-style="normal" font-weight="normal" text-decoration="none" x="0" y="480">UNREGISTERED</text><text fill="#eeeeee" stroke="none" font-family="Arial" font-size="24px" font-style="normal" font-weight="normal" text-decoration="none" x="0" y="510">UNREGISTERED</text><text fill="#eeeeee" stroke="none" font-family="Arial" font-size="24px" font-style="normal" font-weight="normal" text-decoration="none" x="0" y="540">UNREGISTERED</text><text fill="#eeeeee" stroke="none" font-family="Arial" font-size="24px" font-style="normal" font-weight="normal" text-decoration="none" x="0" y="570">UNREGISTERED</text><text fill="#eeeeee" stroke="none" font-family="Arial" font-size="24px" font-style="normal" font-weight="normal" text-decoration="none" x="0" y="600">UNREGISTERED</text><text fill="#eeeeee" stroke="none" font-family="Arial" font-size="24px" font-style="normal" font-weight="normal" text-decoration="none" x="0" y="630">UNREGISTERED</text><text fill="#eeeeee" stroke="none" font-family="Arial" font-size="24px" font-style="normal" font-weight="normal" text-decoration="none" x="0" y="660">UNREGISTERED</text><text fill="#eeeeee" stroke="none" font-family="Arial" font-size="24px" font-style="normal" font-weight="normal" text-decoration="none" x="0" y="690">UNREGISTERED</text><text fill="#eeeeee" stroke="none" font-family="Arial" font-size="24px" font-style="normal" font-weight="normal" text-decoration="none" x="0" y="720">UNREGISTERED</text><text fill="#eeeeee" stroke="none" font-family="Arial" font-size="24px" font-style="normal" font-weight="normal" text-decoration="none" x="0" y="750">UNREGISTERED</text><text fill="#eeeeee" stroke="none" font-family="Arial" font-size="24px" font-style="normal" font-weight="normal" text-decoration="none" x="200" y="0">UNREGISTERED</text><text fill="#eeeeee" stroke="none" font-family="Arial" font-size="24px" font-style="normal" font-weight="normal" text-decoration="none" x="200" y="30">UNREGISTERED</text><text fill="#eeeeee" stroke="none" font-family="Arial" font-size="24px" font-style="normal" font-weight="normal" text-decoration="none" x="200" y="60">UNREGISTERED</text><text fill="#eeeeee" stroke="none" font-family="Arial" font-size="24px" font-style="normal" font-weight="normal" text-decoration="none" x="200" y="90">UNREGISTERED</text><text fill="#eeeeee" stroke="none" font-family="Arial" font-size="24px" font-style="normal" font-weight="normal" text-decoration="none" x="200" y="120">UNREGISTERED</text><text fill="#eeeeee" stroke="none" font-family="Arial" font-size="24px" font-style="normal" font-weight="normal" text-decoration="none" x="200" y="150">UNREGISTERED</text><text fill="#eeeeee" stroke="none" font-family="Arial" font-size="24px" font-style="normal" font-weight="normal" text-decoration="none" x="200" y="180">UNREGISTERED</text><text fill="#eeeeee" stroke="none" font-family="Arial" font-size="24px" font-style="normal" font-weight="normal" text-decoration="none" x="200" y="210">UNREGISTERED</text><text fill="#eeeeee" stroke="none" font-family="Arial" font-size="24px" font-style="normal" font-weight="normal" text-decoration="none" x="200" y="240">UNREGISTERED</text><text fill="#eeeeee" stroke="none" font-family="Arial" font-size="24px" font-style="normal" font-weight="normal" text-decoration="none" x="200" y="270">UNREGISTERED</text><text fill="#eeeeee" stroke="none" font-family="Arial" font-size="24px" font-style="normal" font-weight="normal" text-decoration="none" x="200" y="300">UNREGISTERED</text><text fill="#eeeeee" stroke="none" font-family="Arial" font-size="24px" font-style="normal" font-weight="normal" text-decoration="none" x="200" y="330">UNREGISTERED</text><text fill="#eeeeee" stroke="none" font-family="Arial" font-size="24px" font-style="normal" font-weight="normal" text-decoration="none" x="200" y="360">UNREGISTERED</text><text fill="#eeeeee" stroke="none" font-family="Arial" font-size="24px" font-style="normal" font-weight="normal" text-decoration="none" x="200" y="390">UNREGISTERED</text><text fill="#eeeeee" stroke="none" font-family="Arial" font-size="24px" font-style="normal" font-weight="normal" text-decoration="none" x="200" y="420">UNREGISTERED</text><text fill="#eeeeee" stroke="none" font-family="Arial" font-size="24px" font-style="normal" font-weight="normal" text-decoration="none" x="200" y="450">UNREGISTERED</text><text fill="#eeeeee" stroke="none" font-family="Arial" font-size="24px" font-style="normal" font-weight="normal" text-decoration="none" x="200" y="480">UNREGISTERED</text><text fill="#eeeeee" stroke="none" font-family="Arial" font-size="24px" font-style="normal" font-weight="normal" text-decoration="none" x="200" y="510">UNREGISTERED</text><text fill="#eeeeee" stroke="none" font-family="Arial" font-size="24px" font-style="normal" font-weight="normal" text-decoration="none" x="200" y="540">UNREGISTERED</text><text fill="#eeeeee" stroke="none" font-family="Arial" font-size="24px" font-style="normal" font-weight="normal" text-decoration="none" x="200" y="570">UNREGISTERED</text><text fill="#eeeeee" stroke="none" font-family="Arial" font-size="24px" font-style="normal" font-weight="normal" text-decoration="none" x="200" y="600">UNREGISTERED</text><text fill="#eeeeee" stroke="none" font-family="Arial" font-size="24px" font-style="normal" font-weight="normal" text-decoration="none" x="200" y="630">UNREGISTERED</text><text fill="#eeeeee" stroke="none" font-family="Arial" font-size="24px" font-style="normal" font-weight="normal" text-decoration="none" x="200" y="660">UNREGISTERED</text><text fill="#eeeeee" stroke="none" font-family="Arial" font-size="24px" font-style="normal" font-weight="normal" text-decoration="none" x="200" y="690">UNREGISTERED</text><text fill="#eeeeee" stroke="none" font-family="Arial" font-size="24px" font-style="normal" font-weight="normal" text-decoration="none" x="200" y="720">UNREGISTERED</text><text fill="#eeeeee" stroke="none" font-family="Arial" font-size="24px" font-style="normal" font-weight="normal" text-decoration="none" x="200" y="750">UNREGISTERED</text><text fill="#eeeeee" stroke="none" font-family="Arial" font-size="24px" font-style="normal" font-weight="normal" text-decoration="none" x="400" y="0">UNREGISTERED</text><text fill="#eeeeee" stroke="none" font-family="Arial" font-size="24px" font-style="normal" font-weight="normal" text-decoration="none" x="400" y="30">UNREGISTERED</text><text fill="#eeeeee" stroke="none" font-family="Arial" font-size="24px" font-style="normal" font-weight="normal" text-decoration="none" x="400" y="60">UNREGISTERED</text><text fill="#eeeeee" stroke="none" font-family="Arial" font-size="24px" font-style="normal" font-weight="normal" text-decoration="none" x="400" y="90">UNREGISTERED</text><text fill="#eeeeee" stroke="none" font-family="Arial" font-size="24px" font-style="normal" font-weight="normal" text-decoration="none" x="400" y="120">UNREGISTERED</text><text fill="#eeeeee" stroke="none" font-family="Arial" font-size="24px" font-style="normal" font-weight="normal" text-decoration="none" x="400" y="150">UNREGISTERED</text><text fill="#eeeeee" stroke="none" font-family="Arial" font-size="24px" font-style="normal" font-weight="normal" text-decoration="none" x="400" y="180">UNREGISTERED</text><text fill="#eeeeee" stroke="none" font-family="Arial" font-size="24px" font-style="normal" font-weight="normal" text-decoration="none" x="400" y="210">UNREGISTERED</text><text fill="#eeeeee" stroke="none" font-family="Arial" font-size="24px" font-style="normal" font-weight="normal" text-decoration="none" x="400" y="240">UNREGISTERED</text><text fill="#eeeeee" stroke="none" font-family="Arial" font-size="24px" font-style="normal" font-weight="normal" text-decoration="none" x="400" y="270">UNREGISTERED</text><text fill="#eeeeee" stroke="none" font-family="Arial" font-size="24px" font-style="normal" font-weight="normal" text-decoration="none" x="400" y="300">UNREGISTERED</text><text fill="#eeeeee" stroke="none" font-family="Arial" font-size="24px" font-style="normal" font-weight="normal" text-decoration="none" x="400" y="330">UNREGISTERED</text><text fill="#eeeeee" stroke="none" font-family="Arial" font-size="24px" font-style="normal" font-weight="normal" text-decoration="none" x="400" y="360">UNREGISTERED</text><text fill="#eeeeee" stroke="none" font-family="Arial" font-size="24px" font-style="normal" font-weight="normal" text-decoration="none" x="400" y="390">UNREGISTERED</text><text fill="#eeeeee" stroke="none" font-family="Arial" font-size="24px" font-style="normal" font-weight="normal" text-decoration="none" x="400" y="420">UNREGISTERED</text><text fill="#eeeeee" stroke="none" font-family="Arial" font-size="24px" font-style="normal" font-weight="normal" text-decoration="none" x="400" y="450">UNREGISTERED</text><text fill="#eeeeee" stroke="none" font-family="Arial" font-size="24px" font-style="normal" font-weight="normal" text-decoration="none" x="400" y="480">UNREGISTERED</text><text fill="#eeeeee" stroke="none" font-family="Arial" font-size="24px" font-style="normal" font-weight="normal" text-decoration="none" x="400" y="510">UNREGISTERED</text><text fill="#eeeeee" stroke="none" font-family="Arial" font-size="24px" font-style="normal" font-weight="normal" text-decoration="none" x="400" y="540">UNREGISTERED</text><text fill="#eeeeee" stroke="none" font-family="Arial" font-size="24px" font-style="normal" font-weight="normal" text-decoration="none" x="400" y="570">UNREGISTERED</text><text fill="#eeeeee" stroke="none" font-family="Arial" font-size="24px" font-style="normal" font-weight="normal" text-decoration="none" x="400" y="600">UNREGISTERED</text><text fill="#eeeeee" stroke="none" font-family="Arial" font-size="24px" font-style="normal" font-weight="normal" text-decoration="none" x="400" y="630">UNREGISTERED</text><text fill="#eeeeee" stroke="none" font-family="Arial" font-size="24px" font-style="normal" font-weight="normal" text-decoration="none" x="400" y="660">UNREGISTERED</text><text fill="#eeeeee" stroke="none" font-family="Arial" font-size="24px" font-style="normal" font-weight="normal" text-decoration="none" x="400" y="690">UNREGISTERED</text><text fill="#eeeeee" stroke="none" font-family="Arial" font-size="24px" font-style="normal" font-weight="normal" text-decoration="none" x="400" y="720">UNREGISTERED</text><text fill="#eeeeee" stroke="none" font-family="Arial" font-size="24px" font-style="normal" font-weight="normal" text-decoration="none" x="400" y="750">UNREGISTERED</text><text fill="#eeeeee" stroke="none" font-family="Arial" font-size="24px" font-style="normal" font-weight="normal" text-decoration="none" x="600" y="0">UNREGISTERED</text><text fill="#eeeeee" stroke="none" font-family="Arial" font-size="24px" font-style="normal" font-weight="normal" text-decoration="none" x="600" y="30">UNREGISTERED</text><text fill="#eeeeee" stroke="none" font-family="Arial" font-size="24px" font-style="normal" font-weight="normal" text-decoration="none" x="600" y="60">UNREGISTERED</text><text fill="#eeeeee" stroke="none" font-family="Arial" font-size="24px" font-style="normal" font-weight="normal" text-decoration="none" x="600" y="90">UNREGISTERED</text><text fill="#eeeeee" stroke="none" font-family="Arial" font-size="24px" font-style="normal" font-weight="normal" text-decoration="none" x="600" y="120">UNREGISTERED</text><text fill="#eeeeee" stroke="none" font-family="Arial" font-size="24px" font-style="normal" font-weight="normal" text-decoration="none" x="600" y="150">UNREGISTERED</text><text fill="#eeeeee" stroke="none" font-family="Arial" font-size="24px" font-style="normal" font-weight="normal" text-decoration="none" x="600" y="180">UNREGISTERED</text><text fill="#eeeeee" stroke="none" font-family="Arial" font-size="24px" font-style="normal" font-weight="normal" text-decoration="none" x="600" y="210">UNREGISTERED</text><text fill="#eeeeee" stroke="none" font-family="Arial" font-size="24px" font-style="normal" font-weight="normal" text-decoration="none" x="600" y="240">UNREGISTERED</text><text fill="#eeeeee" stroke="none" font-family="Arial" font-size="24px" font-style="normal" font-weight="normal" text-decoration="none" x="600" y="270">UNREGISTERED</text><text fill="#eeeeee" stroke="none" font-family="Arial" font-size="24px" font-style="normal" font-weight="normal" text-decoration="none" x="600" y="300">UNREGISTERED</text><text fill="#eeeeee" stroke="none" font-family="Arial" font-size="24px" font-style="normal" font-weight="normal" text-decoration="none" x="600" y="330">UNREGISTERED</text><text fill="#eeeeee" stroke="none" font-family="Arial" font-size="24px" font-style="normal" font-weight="normal" text-decoration="none" x="600" y="360">UNREGISTERED</text><text fill="#eeeeee" stroke="none" font-family="Arial" font-size="24px" font-style="normal" font-weight="normal" text-decoration="none" x="600" y="390">UNREGISTERED</text><text fill="#eeeeee" stroke="none" font-family="Arial" font-size="24px" font-style="normal" font-weight="normal" text-decoration="none" x="600" y="420">UNREGISTERED</text><text fill="#eeeeee" stroke="none" font-family="Arial" font-size="24px" font-style="normal" font-weight="normal" text-decoration="none" x="600" y="450">UNREGISTERED</text><text fill="#eeeeee" stroke="none" font-family="Arial" font-size="24px" font-style="normal" font-weight="normal" text-decoration="none" x="600" y="480">UNREGISTERED</text><text fill="#eeeeee" stroke="none" font-family="Arial" font-size="24px" font-style="normal" font-weight="normal" text-decoration="none" x="600" y="510">UNREGISTERED</text><text fill="#eeeeee" stroke="none" font-family="Arial" font-size="24px" font-style="normal" font-weight="normal" text-decoration="none" x="600" y="540">UNREGISTERED</text><text fill="#eeeeee" stroke="none" font-family="Arial" font-size="24px" font-style="normal" font-weight="normal" text-decoration="none" x="600" y="570">UNREGISTERED</text><text fill="#eeeeee" stroke="none" font-family="Arial" font-size="24px" font-style="normal" font-weight="normal" text-decoration="none" x="600" y="600">UNREGISTERED</text><text fill="#eeeeee" stroke="none" font-family="Arial" font-size="24px" font-style="normal" font-weight="normal" text-decoration="none" x="600" y="630">UNREGISTERED</text><text fill="#eeeeee" stroke="none" font-family="Arial" font-size="24px" font-style="normal" font-weight="normal" text-decoration="none" x="600" y="660">UNREGISTERED</text><text fill="#eeeeee" stroke="none" font-family="Arial" font-size="24px" font-style="normal" font-weight="normal" text-decoration="none" x="600" y="690">UNREGISTERED</text><text fill="#eeeeee" stroke="none" font-family="Arial" font-size="24px" font-style="normal" font-weight="normal" text-decoration="none" x="600" y="720">UNREGISTERED</text><text fill="#eeeeee" stroke="none" font-family="Arial" font-size="24px" font-style="normal" font-weight="normal" text-decoration="none" x="600" y="750">UNREGISTERED</text><g transform="translate(-1198,-310) scale(1,1)"><path fill="none" stroke="#000000" d="M 1208 320 L 1856 320 L 1856 1064 L 1208 1064 L 1208 320" stroke-miterlimit="10"/></g><g transform="translate(-1198,-310) scale(1,1)"><path fill="#ffffff" stroke="none" d="M 1208 320 L 1208 342 L 1367.8125 342 L 1378.8125 331 L 1378.8125 320 L 1208 320"/></g><g transform="translate(-1198,-310) scale(1,1)"><path fill="none" stroke="#000000" d="M 1208 320 L 1208 342 L 1367.8125 342 L 1378.8125 331 L 1378.8125 320 L 1208 320 L 1208 320" stroke-miterlimit="10"/></g><g transform="translate(-1198,-310) scale(1,1)"><g><path fill="none" stroke="none"/><text fill="#000000" stroke="none" font-family="Arial" font-size="13px" font-style="normal" font-weight="normal" text-decoration="none" x="1299.9326171875" y="337.5">Bootloader</text></g></g><g transform="translate(-1198,-310) scale(1,1)"><g><path fill="none" stroke="none"/><text fill="#000000" stroke="none" font-family="Arial" font-size="13px" font-style="normal" font-weight="bold" text-decoration="none" x="1213" y="337.5">state machine</text></g></g><g transform="translate(-1198,-310) scale(1,1)"><path fill="#C0C0C0" stroke="none" d="M 1337 375 L 1494 375 Q 1504 375 1504 385 L 1504 413 Q 1504 423 1494 423 L 1337 423 Q 1327 423 1327 413 L 1327 385 Q 1327 375 1337 375 Z" opacity="0.2"/></g><g transform="translate(-1198,-310) scale(1,1)"><path fill="#ffeaad" stroke="none" d="M 1330 368 L 1487 368 Q 1497 368 1497 378 L 1497 406 Q 1497 416 1487 416 L 1330 416 Q 1320 416 1320 406 L 1320 378 Q 1320 368 1330 368 Z"/></g><g transform="translate(-1198,-310) scale(1,1)"><path fill="none" stroke="#000000" d="M 1330 368 L 1487 368 Q 1497 368 1497 378 L 1497 406 Q 1497 416 1487 416 L 1330 416 Q 1320 416 1320 406 L 1320 378 Q 1320 368 1330 368 Z" stroke-miterlimit="10"/></g><g transform="translate(-1198,-310) scale(1,1)"><g><path fill="none" stroke="none"/><text fill="#000000" stroke="none" font-family="Arial" font-size="24px" font-style="normal" font-weight="bold" text-decoration="none" x="1349.80078125" y="398.5">Verificação</text></g></g><g transform="translate(-1198,-310) scale(1,1)"><path fill="#C0C0C0" stroke="none" d="M 1249 656 L 1829 656 Q 1839 656 1839 666 L 1839 1046 Q 1839 1056 1829 1056 L 1249 1056 Q 1239 1056 1239 1046 L 1239 666 Q 1239 656 1249 656 Z" opacity="0.2"/></g><g transform="translate(-1198,-310) scale(1,1)"><path fill="#ffeaad" stroke="none" d="M 1242 649 L 1822 649 Q 1832 649 1832 659 L 1832 1039 Q 1832 1049 1822 1049 L 1242 1049 Q 1232 1049 1232 1039 L 1232 659 Q 1232 649 1242 649 Z"/></g><g transform="translate(-1198,-310) scale(1,1)"><path fill="none" stroke="#000000" d="M 1242 649 L 1822 649 Q 1832 649 1832 659 L 1832 1039 Q 1832 1049 1822 1049 L 1242 1049 Q 1232 1049 1232 1039 L 1232 659 Q 1232 649 1242 649 Z" stroke-miterlimit="10"/></g><g transform="translate(-1198,-310) scale(1,1)"><path fill="none" stroke="#000000" d="M 1232 685 L 1832 685" stroke-miterlimit="10"/></g><g transform="translate(-1198,-310) scale(1,1)"><g><path fill="none" stroke="none"/><text fill="#000000" stroke="none" font-family="Arial" font-size="24px" font-style="normal" font-weight="bold" text-decoration="none" x="1469.9609375" y="679.5">Atualização</text></g></g><g transform="translate(-1198,-310) scale(1,1)"><path fill="#C0C0C0" stroke="none" d="M 1672 455 L 1829 455 Q 1839 455 1839 465 L 1839 493 Q 1839 503 1829 503 L 1672 503 Q 1662 503 1662 493 L 1662 465 Q 1662 455 1672 455 Z" opacity="0.2"/></g><g transform="translate(-1198,-310) scale(1,1)"><path fill="#ffeaad" stroke="none" d="M 1665 448 L 1822 448 Q 1832 448 1832 458 L 1832 486 Q 1832 496 1822 496 L 1665 496 Q 1655 496 1655 486 L 1655 458 Q 1655 448 1665 448 Z"/></g><g transform="translate(-1198,-310) scale(1,1)"><path fill="none" stroke="#000000" d="M 1665 448 L 1822 448 Q 1832 448 1832 458 L 1832 486 Q 1832 496 1822 496 L 1665 496 Q 1655 496 1655 486 L 1655 458 Q 1655 448 1665 448 Z" stroke-miterlimit="10"/></g><g transform="translate(-1198,-310) scale(1,1)"><g><path fill="none" stroke="none"/><text fill="#000000" stroke="none" font-family="Arial" font-size="24px" font-style="normal" font-weight="bold" text-decoration="none" x="1675.47265625" y="478.5">Confirmação</text></g></g><g transform="translate(-1198,-310) scale(1,1)"><path fill="#C0C0C0" stroke="none" d="M 1239 392.5 C 1239 387.2532944 1243.2532944 383 1248.5 383 C 1253.7467056 383 1258 387.2532944 1258 392.5 C 1258 397.7467056 1253.7467056 402 1248.5 402 C 1243.2532944 402 1239 397.7467056 1239 392.5 Z" opacity="0.2"/></g><g transform="translate(-1198,-310) scale(1,1)"><path fill="#000000" stroke="none" d="M 1232 385.5 C 1232 380.2532944 1236.2532944 376 1241.5 376 C 1246.7467056 376 1251 380.2532944 1251 385.5 C 1251 390.7467056 1246.7467056 395 1241.5 395 C 1236.2532944 395 1232 390.7467056 1232 385.5 Z"/></g><g transform="translate(-1198,-310) scale(1,1)"><path fill="none" stroke="#000000" d="M 1251 384 L 1320 384" stroke-miterlimit="10"/></g><g transform="translate(-1198,-310) scale(1,1)"><path fill="none" stroke="#000000" d="M 1309.837325142376 388.209517756016 L 1320 384 L 1309.837325142376 379.790482243984" stroke-miterlimit="10"/></g><g transform="translate(-1198,-310) scale(1,1)"><path fill="none" stroke="#000000" d="M 1744 448 L 1744 400 L 1497 400" stroke-miterlimit="10"/></g><g transform="translate(-1198,-310) scale(1,1)"><path fill="none" stroke="#000000" d="M 1507.162674857624 395.790482243984 L 1497 400 L 1507.162674857624 404.209517756016" stroke-miterlimit="10"/></g><g transform="translate(-1198,-310) scale(1,1)"><g><path fill="none" stroke="none"/><text fill="#000000" stroke="none" font-family="Arial" font-size="18px" font-style="normal" font-weight="normal" text-decoration="none" x="1522.45703125" y="424.5">[Confirmação == Falso] /</text><text fill="#000000" stroke="none" font-family="Arial" font-size="18px" font-style="normal" font-weight="normal" text-decoration="none" x="1520.681640625" y="442.5">Atualização = Verdadeiro</text></g></g><g transform="translate(-1198,-310) scale(1,1)"><path fill="none" stroke="#000000" d="M 1464 416 L 1464 649" stroke-miterlimit="10"/></g><g transform="translate(-1198,-310) scale(1,1)"><path fill="none" stroke="#000000" d="M 1459.7904822439841 638.8373251423759 L 1464 649 L 1468.2095177560159 638.8373251423759" stroke-miterlimit="10"/></g><g transform="translate(-1198,-310) scale(1,1)"><g><path fill="none" stroke="none"/><text fill="#000000" stroke="none" font-family="Arial" font-size="18px" font-style="normal" font-weight="normal" text-decoration="none" x="1468.5" y="616.5">[Atualização == Verdadeiro]</text></g></g><g transform="translate(-1198,-310) scale(1,1)"><path fill="none" stroke="#000000" d="M 1497 384 L 1768 384 L 1768 448" stroke-miterlimit="10"/></g><g transform="translate(-1198,-310) scale(1,1)"><path fill="none" stroke="#000000" d="M 1763.7904822439841 437.83732514237585 L 1768 448 L 1772.2095177560159 437.83732514237585" stroke-miterlimit="10"/></g><g transform="translate(-1198,-310) scale(1,1)"><g><path fill="none" stroke="none"/><text fill="#000000" stroke="none" font-family="Arial" font-size="18px" font-style="normal" font-weight="normal" text-decoration="none" x="1543.5" y="375.5">[Atualização  == Falso]</text></g></g><g transform="translate(-1198,-310) scale(1,1)"><path fill="#C0C0C0" stroke="none" d="M 1673 919 L 1781 919 Q 1791 919 1791 929 L 1791 957 Q 1791 967 1781 967 L 1673 967 Q 1663 967 1663 957 L 1663 929 Q 1663 919 1673 919 Z" opacity="0.2"/></g><g transform="translate(-1198,-310) scale(1,1)"><path fill="#ffffff" stroke="none" d="M 1666 912 L 1774 912 Q 1784 912 1784 922 L 1784 950 Q 1784 960 1774 960 L 1666 960 Q 1656 960 1656 950 L 1656 922 Q 1656 912 1666 912 Z"/></g><g transform="translate(-1198,-310) scale(1,1)"><path fill="none" stroke="#000000" d="M 1666 912 L 1774 912 Q 1784 912 1784 922 L 1784 950 Q 1784 960 1774 960 L 1666 960 Q 1656 960 1656 950 L 1656 922 Q 1656 912 1666 912 Z" stroke-miterlimit="10"/></g><g transform="translate(-1198,-310) scale(1,1)"><g><path fill="none" stroke="none"/><text fill="#000000" stroke="none" font-family="Arial" font-size="20px" font-style="normal" font-weight="bold" text-decoration="none" x="1676.8212890625" y="938.5">Validação</text></g></g><g transform="translate(-1198,-310) scale(1,1)"><path fill="#C0C0C0" stroke="none" d="M 1433 975 L 1541 975 Q 1551 975 1551 985 L 1551 1013 Q 1551 1023 1541 1023 L 1433 1023 Q 1423 1023 1423 1013 L 1423 985 Q 1423 975 1433 975 Z" opacity="0.2"/></g><g transform="translate(-1198,-310) scale(1,1)"><path fill="#ffffff" stroke="none" d="M 1426 968 L 1534 968 Q 1544 968 1544 978 L 1544 1006 Q 1544 1016 1534 1016 L 1426 1016 Q 1416 1016 1416 1006 L 1416 978 Q 1416 968 1426 968 Z"/></g><g transform="translate(-1198,-310) scale(1,1)"><path fill="none" stroke="#000000" d="M 1426 968 L 1534 968 Q 1544 968 1544 978 L 1544 1006 Q 1544 1016 1534 1016 L 1426 1016 Q 1416 1016 1416 1006 L 1416 978 Q 1416 968 1426 968 Z" stroke-miterlimit="10"/></g><g transform="translate(-1198,-310) scale(1,1)"><g><path fill="none" stroke="none"/><text fill="#000000" stroke="none" font-family="Arial" font-size="20px" font-style="normal" font-weight="bold" text-decoration="none" x="1434.4140625" y="994.5">Instalação</text></g></g><g transform="translate(-1198,-310) scale(1,1)"><path fill="#C0C0C0" stroke="none" d="M 1265 743 L 1373 743 Q 1383 743 1383 753 L 1383 781 Q 1383 791 1373 791 L 1265 791 Q 1255 791 1255 781 L 1255 753 Q 1255 743 1265 743 Z" opacity="0.2"/></g><g transform="translate(-1198,-310) scale(1,1)"><path fill="#ffffff" stroke="none" d="M 1258 736 L 1366 736 Q 1376 736 1376 746 L 1376 774 Q 1376 784 1366 784 L 1258 784 Q 1248 784 1248 774 L 1248 746 Q 1248 736 1258 736 Z"/></g><g transform="translate(-1198,-310) scale(1,1)"><path fill="none" stroke="#000000" d="M 1258 736 L 1366 736 Q 1376 736 1376 746 L 1376 774 Q 1376 784 1366 784 L 1258 784 Q 1248 784 1248 774 L 1248 746 Q 1248 736 1258 736 Z" stroke-miterlimit="10"/></g><g transform="translate(-1198,-310) scale(1,1)"><g><path fill="none" stroke="none"/><text fill="#000000" stroke="none" font-family="Arial" font-size="20px" font-style="normal" font-weight="bold" text-decoration="none" x="1260.30078125" y="762.5">Preparação</text></g></g><g transform="translate(-1198,-310) scale(1,1)"><path fill="#C0C0C0" stroke="none" d="M 1657 743 L 1765 743 Q 1775 743 1775 753 L 1775 781 Q 1775 791 1765 791 L 1657 791 Q 1647 791 1647 781 L 1647 753 Q 1647 743 1657 743 Z" opacity="0.2"/></g><g transform="translate(-1198,-310) scale(1,1)"><path fill="#ffffff" stroke="none" d="M 1650 736 L 1758 736 Q 1768 736 1768 746 L 1768 774 Q 1768 784 1758 784 L 1650 784 Q 1640 784 1640 774 L 1640 746 Q 1640 736 1650 736 Z"/></g><g transform="translate(-1198,-310) scale(1,1)"><path fill="none" stroke="#000000" d="M 1650 736 L 1758 736 Q 1768 736 1768 746 L 1768 774 Q 1768 784 1758 784 L 1650 784 Q 1640 784 1640 774 L 1640 746 Q 1640 736 1650 736 Z" stroke-miterlimit="10"/></g><g transform="translate(-1198,-310) scale(1,1)"><g><path fill="none" stroke="none"/><text fill="#000000" stroke="none" font-family="Arial" font-size="20px" font-style="normal" font-weight="bold" text-decoration="none" x="1658.970703125" y="762.5">Recepção</text></g></g><g transform="translate(-1198,-310) scale(1,1)"><path fill="none" stroke="#000000" d="M 1312 707 L 1312 736" stroke-miterlimit="10"/></g><g transform="translate(-1198,-310) scale(1,1)"><path fill="none" stroke="#000000" d="M 1307.7904822439841 725.8373251423759 L 1312 736 L 1316.2095177560159 725.8373251423759" stroke-miterlimit="10"/></g><g transform="translate(-1198,-310) scale(1,1)"><g><path fill="none" stroke="none"/><text fill="#000000" stroke="none" font-family="Arial" font-size="18px" font-style="normal" font-weight="normal" text-decoration="none" x="1311.5" y="728.5"> / Iniciar Preparação</text></g></g><g transform="translate(-1198,-310) scale(1,1)"><path fill="none" stroke="#000000" d="M 1376 760 L 1640 760" stroke-miterlimit="10"/></g><g transform="translate(-1198,-310) scale(1,1)"><path fill="none" stroke="#000000" d="M 1629.837325142376 764.209517756016 L 1640 760 L 1629.837325142376 755.790482243984" stroke-miterlimit="10"/></g><g transform="translate(-1198,-310) scale(1,1)"><g><path fill="none" stroke="none"/><text fill="#000000" stroke="none" font-family="Arial" font-size="18px" font-style="normal" font-weight="normal" text-decoration="none" x="1385.923828125" y="779.5">[Preparação == Verdadeiro] /</text><text fill="#000000" stroke="none" font-family="Arial" font-size="18px" font-style="normal" font-weight="normal" text-decoration="none" x="1434.4658203125" y="797.5">Iniciar Recepção</text></g></g><g transform="translate(-1198,-310) scale(1,1)"><path fill="none" stroke="#000000" d="M 1697 736 L 1697 720 L 1787 720 L 1787 748 L 1768 748" stroke-miterlimit="10"/></g><g transform="translate(-1198,-310) scale(1,1)"><path fill="none" stroke="#000000" d="M 1778.162674857624 743.790482243984 L 1768 748 L 1778.162674857624 752.209517756016" stroke-miterlimit="10"/></g><g transform="translate(-1198,-310) scale(1,1)"><g><path fill="none" stroke="none"/><text fill="#000000" stroke="none" font-family="Arial" font-size="18px" font-style="normal" font-weight="normal" text-decoration="none" x="1700.5" y="715.5">[Fim == Falso]</text></g></g><g transform="translate(-1198,-310) scale(1,1)"><path fill="none" stroke="#000000" d="M 1728 784 L 1728 912" stroke-miterlimit="10"/></g><g transform="translate(-1198,-310) scale(1,1)"><path fill="none" stroke="#000000" d="M 1723.7904822439841 901.8373251423759 L 1728 912 L 1732.2095177560159 901.8373251423759" stroke-miterlimit="10"/></g><g transform="translate(-1198,-310) scale(1,1)"><g><path fill="none" stroke="none"/><text fill="#000000" stroke="none" font-family="Arial" font-size="18px" font-style="normal" font-weight="normal" text-decoration="none" x="1551.958984375" y="847.5">[Fim == Verdadeiro] /</text><text fill="#000000" stroke="none" font-family="Arial" font-size="18px" font-style="normal" font-weight="normal" text-decoration="none" x="1570.63134765625" y="865.5">Iniciar Validação</text></g></g><g transform="translate(-1198,-310) scale(1,1)"><path fill="none" stroke="#000000" d="M 1720 960 L 1720 992 L 1544 992" stroke-miterlimit="10"/></g><g transform="translate(-1198,-310) scale(1,1)"><path fill="none" stroke="#000000" d="M 1554.162674857624 987.790482243984 L 1544 992 L 1554.162674857624 996.209517756016" stroke-miterlimit="10"/></g><g transform="translate(-1198,-310) scale(1,1)"><g><path fill="none" stroke="none"/><text fill="#000000" stroke="none" font-family="Arial" font-size="18px" font-style="normal" font-weight="normal" text-decoration="none" x="1560.09228515625" y="1011.5">[Validação == Verdadeiro] /</text><text fill="#000000" stroke="none" font-family="Arial" font-size="18px" font-style="normal" font-weight="normal" text-decoration="none" x="1600.46484375" y="1029.5">Iniciar Instalação</text></g></g><g transform="translate(-1198,-310) scale(1,1)"><path fill="none" stroke="#000000" d="M 1440 649 L 1440 416" stroke-miterlimit="10"/></g><g transform="translate(-1198,-310) scale(1,1)"><path fill="none" stroke="#000000" d="M 1444.2095177560159 426.16267485762415 L 1440 416 L 1435.7904822439841 426.16267485762415" stroke-miterlimit="10"/></g><g transform="translate(-1198,-310) scale(1,1)"><g><path fill="none" stroke="none"/><text fill="#000000" stroke="none" font-family="Arial" font-size="18px" font-style="normal" font-weight="normal" text-decoration="none" x="1227.9267578125" y="511.5">[Instalação == Verdadeiro]</text><text fill="#000000" stroke="none" font-family="Arial" font-size="18px" font-style="normal" font-weight="normal" text-decoration="none" x="1249.205078125" y="529.5">/ Atualização = Falso</text></g></g><g transform="translate(-1198,-310) scale(1,1)"><path fill="#C0C0C0" stroke="none" d="M 1738 579.5 C 1738 572.59644 1743.59644 567 1750.5 567 C 1757.40356 567 1763 572.59644 1763 579.5 C 1763 586.40356 1757.40356 592 1750.5 592 C 1743.59644 592 1738 586.40356 1738 579.5 Z" opacity="0.2"/></g><g transform="translate(-1198,-310) scale(1,1)"><path fill="none" stroke="#000000" d="M 1731 572.5 C 1731 565.59644 1736.59644 560 1743.5 560 C 1750.40356 560 1756 565.59644 1756 572.5 C 1756 579.40356 1750.40356 585 1743.5 585 C 1736.59644 585 1731 579.40356 1731 572.5 Z" stroke-miterlimit="10"/></g><g transform="translate(-1198,-310) scale(1,1)"><path fill="#000000" stroke="none" d="M 1736 572.5 C 1736 568.357864 1739.357864 565 1743.5 565 C 1747.642136 565 1751 568.357864 1751 572.5 C 1751 576.642136 1747.642136 580 1743.5 580 C 1739.357864 580 1736 576.642136 1736 572.5 Z"/></g><g transform="translate(-1198,-310) scale(1,1)"><path fill="none" stroke="#000000" d="M 1744 496 L 1744 560" stroke-miterlimit="10"/></g><g transform="translate(-1198,-310) scale(1,1)"><path fill="none" stroke="#000000" d="M 1739.7904822439841 549.8373251423759 L 1744 560 L 1748.2095177560159 549.8373251423759" stroke-miterlimit="10"/></g><g transform="translate(-1198,-310) scale(1,1)"><g><path fill="none" stroke="none"/><text fill="#000000" stroke="none" font-family="Arial" font-size="18px" font-style="normal" font-weight="normal" text-decoration="none" x="1544.79345703125" y="525.5">[Confirmação == True] /</text><text fill="#000000" stroke="none" font-family="Arial" font-size="18px" font-style="normal" font-weight="normal" text-decoration="none" x="1547.46533203125" y="543.5">Execução do Firmware</text></g></g><g transform="translate(-1198,-310) scale(1,1)"><path fill="#C0C0C0" stroke="none" d="M 1311 704.5 C 1311 699.2532944 1315.2532944 695 1320.5 695 C 1325.7467056 695 1330 699.2532944 1330 704.5 C 1330 709.7467056 1325.7467056 714 1320.5 714 C 1315.2532944 714 1311 709.7467056 1311 704.5 Z" opacity="0.2"/></g><g transform="translate(-1198,-310) scale(1,1)"><path fill="#000000" stroke="none" d="M 1304 697.5 C 1304 692.2532944 1308.2532944 688 1313.5 688 C 1318.7467056 688 1323 692.2532944 1323 697.5 C 1323 702.7467056 1318.7467056 707 1313.5 707 C 1308.2532944 707 1304 702.7467056 1304 697.5 Z"/></g><g transform="translate(-1198,-310) scale(1,1)"><path fill="none" stroke="#000000" d="M 1656 928 L 1312 928 L 1312 784" stroke-miterlimit="10"/></g><g transform="translate(-1198,-310) scale(1,1)"><path fill="none" stroke="#000000" d="M 1316.2095177560159 794.1626748576241 L 1312 784 L 1307.7904822439841 794.1626748576241" stroke-miterlimit="10"/></g><g transform="translate(-1198,-310) scale(1,1)"><g><path fill="none" stroke="none"/><text fill="#000000" stroke="none" font-family="Arial" font-size="18px" font-style="normal" font-weight="normal" text-decoration="none" x="1429.5" y="927.5">[Validação == Falso]</text></g></g></g></svg>