<svg version="1.1" xmlns="http://www.w3.org/2000/svg" xmlns:xlink="http://www.w3.org/1999/xlink" width="1091" height="900"><defs/><g><text fill="#eeeeee" stroke="none" font-family="Arial" font-size="24px" font-style="normal" font-weight="normal" text-decoration="none" x="0" y="0">UNREGISTERED</text><text fill="#eeeeee" stroke="none" font-family="Arial" font-size="24px" font-style="normal" font-weight="normal" text-decoration="none" x="0" y="30">UNREGISTERED</text><text fill="#eeeeee" stroke="none" font-family="Arial" font-size="24px" font-style="normal" font-weight="normal" text-decoration="none" x="0" y="60">UNREGISTERED</text><text fill="#eeeeee" stroke="none" font-family="Arial" font-size="24px" font-style="normal" font-weight="normal" text-decoration="none" x="0" y="90">UNREGISTERED</text><text fill="#eeeeee" stroke="none" font-family="Arial" font-size="24px" font-style="normal" font-weight="normal" text-decoration="none" x="0" y="120">UNREGISTERED</text><text fill="#eeeeee" stroke="none" font-family="Arial" font-size="24px" font-style="normal" font-weight="normal" text-decoration="none" x="0" y="150">UNREGISTERED</text><text fill="#eeeeee" stroke="none" font-family="Arial" font-size="24px" font-style="normal" font-weight="normal" text-decoration="none" x="0" y="180">UNREGISTERED</text><text fill="#eeeeee" stroke="none" font-family="Arial" font-size="24px" font-style="normal" font-weight="normal" text-decoration="none" x="0" y="210">UNREGISTERED</text><text fill="#eeeeee" stroke="none" font-family="Arial" font-size="24px" font-style="normal" font-weight="normal" text-decoration="none" x="0" y="240">UNREGISTERED</text><text fill="#eeeeee" stroke="none" font-family="Arial" font-size="24px" font-style="normal" font-weight="normal" text-decoration="none" x="0" y="270">UNREGISTERED</text><text fill="#eeeeee" stroke="none" font-family="Arial" font-size="24px" font-style="normal" font-weight="normal" text-decoration="none" x="0" y="300">UNREGISTERED</text><text fill="#eeeeee" stroke="none" font-family="Arial" font-size="24px" font-style="normal" font-weight="normal" text-decoration="none" x="0" y="330">UNREGISTERED</text><text fill="#eeeeee" stroke="none" font-family="Arial" font-size="24px" font-style="normal" font-weight="normal" text-decoration="none" x="0" y="360">UNREGISTERED</text><text fill="#eeeeee" stroke="none" font-family="Arial" font-size="24px" font-style="normal" font-weight="normal" text-decoration="none" x="0" y="390">UNREGISTERED</text><text fill="#eeeeee" stroke="none" font-family="Arial" font-size="24px" font-style="normal" font-weight="normal" text-decoration="none" x="0" y="420">UNREGISTERED</text><text fill="#eeeeee" stroke="none" font-family="Arial" font-size="24px" font-style="normal" font-weight="normal" text-decoration="none" x="0" y="450">UNREGISTERED</text><text fill="#eeeeee" stroke="none" font-family="Arial" font-size="24px" font-style="normal" font-weight="normal" text-decoration="none" x="0" y="480">UNREGISTERED</text><text fill="#eeeeee" stroke="none" font-family="Arial" font-size="24px" font-style="normal" font-weight="normal" text-decoration="none" x="0" y="510">UNREGISTERED</text><text fill="#eeeeee" stroke="none" font-family="Arial" font-size="24px" font-style="normal" font-weight="normal" text-decoration="none" x="0" y="540">UNREGISTERED</text><text fill="#eeeeee" stroke="none" font-family="Arial" font-size="24px" font-style="normal" font-weight="normal" text-decoration="none" x="0" y="570">UNREGISTERED</text><text fill="#eeeeee" stroke="none" font-family="Arial" font-size="24px" font-style="normal" font-weight="normal" text-decoration="none" x="0" y="600">UNREGISTERED</text><text fill="#eeeeee" stroke="none" font-family="Arial" font-size="24px" font-style="normal" font-weight="normal" text-decoration="none" x="0" y="630">UNREGISTERED</text><text fill="#eeeeee" stroke="none" font-family="Arial" font-size="24px" font-style="normal" font-weight="normal" text-decoration="none" x="0" y="660">UNREGISTERED</text><text fill="#eeeeee" stroke="none" font-family="Arial" font-size="24px" font-style="normal" font-weight="normal" text-decoration="none" x="0" y="690">UNREGISTERED</text><text fill="#eeeeee" stroke="none" font-family="Arial" font-size="24px" font-style="normal" font-weight="normal" text-decoration="none" x="0" y="720">UNREGISTERED</text><text fill="#eeeeee" stroke="none" font-family="Arial" font-size="24px" font-style="normal" font-weight="normal" text-decoration="none" x="0" y="750">UNREGISTERED</text><text fill="#eeeeee" stroke="none" font-family="Arial" font-size="24px" font-style="normal" font-weight="normal" text-decoration="none" x="0" y="780">UNREGISTERED</text><text fill="#eeeeee" stroke="none" font-family="Arial" font-size="24px" font-style="normal" font-weight="normal" text-decoration="none" x="0" y="810">UNREGISTERED</text><text fill="#eeeeee" stroke="none" font-family="Arial" font-size="24px" font-style="normal" font-weight="normal" text-decoration="none" x="0" y="840">UNREGISTERED</text><text fill="#eeeeee" stroke="none" font-family="Arial" font-size="24px" font-style="normal" font-weight="normal" text-decoration="none" x="0" y="870">UNREGISTERED</text><text fill="#eeeeee" stroke="none" font-family="Arial" font-size="24px" font-style="normal" font-weight="normal" text-decoration="none" x="200" y="0">UNREGISTERED</text><text fill="#eeeeee" stroke="none" font-family="Arial" font-size="24px" font-style="normal" font-weight="normal" text-decoration="none" x="200" y="30">UNREGISTERED</text><text fill="#eeeeee" stroke="none" font-family="Arial" font-size="24px" font-style="normal" font-weight="normal" text-decoration="none" x="200" y="60">UNREGISTERED</text><text fill="#eeeeee" stroke="none" font-family="Arial" font-size="24px" font-style="normal" font-weight="normal" text-decoration="none" x="200" y="90">UNREGISTERED</text><text fill="#eeeeee" stroke="none" font-family="Arial" font-size="24px" font-style="normal" font-weight="normal" text-decoration="none" x="200" y="120">UNREGISTERED</text><text fill="#eeeeee" stroke="none" font-family="Arial" font-size="24px" font-style="normal" font-weight="normal" text-decoration="none" x="200" y="150">UNREGISTERED</text><text fill="#eeeeee" stroke="none" font-family="Arial" font-size="24px" font-style="normal" font-weight="normal" text-decoration="none" x="200" y="180">UNREGISTERED</text><text fill="#eeeeee" stroke="none" font-family="Arial" font-size="24px" font-style="normal" font-weight="normal" text-decoration="none" x="200" y="210">UNREGISTERED</text><text fill="#eeeeee" stroke="none" font-family="Arial" font-size="24px" font-style="normal" font-weight="normal" text-decoration="none" x="200" y="240">UNREGISTERED</text><text fill="#eeeeee" stroke="none" font-family="Arial" font-size="24px" font-style="normal" font-weight="normal" text-decoration="none" x="200" y="270">UNREGISTERED</text><text fill="#eeeeee" stroke="none" font-family="Arial" font-size="24px" font-style="normal" font-weight="normal" text-decoration="none" x="200" y="300">UNREGISTERED</text><text fill="#eeeeee" stroke="none" font-family="Arial" font-size="24px" font-style="normal" font-weight="normal" text-decoration="none" x="200" y="330">UNREGISTERED</text><text fill="#eeeeee" stroke="none" font-family="Arial" font-size="24px" font-style="normal" font-weight="normal" text-decoration="none" x="200" y="360">UNREGISTERED</text><text fill="#eeeeee" stroke="none" font-family="Arial" font-size="24px" font-style="normal" font-weight="normal" text-decoration="none" x="200" y="390">UNREGISTERED</text><text fill="#eeeeee" stroke="none" font-family="Arial" font-size="24px" font-style="normal" font-weight="normal" text-decoration="none" x="200" y="420">UNREGISTERED</text><text fill="#eeeeee" stroke="none" font-family="Arial" font-size="24px" font-style="normal" font-weight="normal" text-decoration="none" x="200" y="450">UNREGISTERED</text><text fill="#eeeeee" stroke="none" font-family="Arial" font-size="24px" font-style="normal" font-weight="normal" text-decoration="none" x="200" y="480">UNREGISTERED</text><text fill="#eeeeee" stroke="none" font-family="Arial" font-size="24px" font-style="normal" font-weight="normal" text-decoration="none" x="200" y="510">UNREGISTERED</text><text fill="#eeeeee" stroke="none" font-family="Arial" font-size="24px" font-style="normal" font-weight="normal" text-decoration="none" x="200" y="540">UNREGISTERED</text><text fill="#eeeeee" stroke="none" font-family="Arial" font-size="24px" font-style="normal" font-weight="normal" text-decoration="none" x="200" y="570">UNREGISTERED</text><text fill="#eeeeee" stroke="none" font-family="Arial" font-size="24px" font-style="normal" font-weight="normal" text-decoration="none" x="200" y="600">UNREGISTERED</text><text fill="#eeeeee" stroke="none" font-family="Arial" font-size="24px" font-style="normal" font-weight="normal" text-decoration="none" x="200" y="630">UNREGISTERED</text><text fill="#eeeeee" stroke="none" font-family="Arial" font-size="24px" font-style="normal" font-weight="normal" text-decoration="none" x="200" y="660">UNREGISTERED</text><text fill="#eeeeee" stroke="none" font-family="Arial" font-size="24px" font-style="normal" font-weight="normal" text-decoration="none" x="200" y="690">UNREGISTERED</text><text fill="#eeeeee" stroke="none" font-family="Arial" font-size="24px" font-style="normal" font-weight="normal" text-decoration="none" x="200" y="720">UNREGISTERED</text><text fill="#eeeeee" stroke="none" font-family="Arial" font-size="24px" font-style="normal" font-weight="normal" text-decoration="none" x="200" y="750">UNREGISTERED</text><text fill="#eeeeee" stroke="none" font-family="Arial" font-size="24px" font-style="normal" font-weight="normal" text-decoration="none" x="200" y="780">UNREGISTERED</text><text fill="#eeeeee" stroke="none" font-family="Arial" font-size="24px" font-style="normal" font-weight="normal" text-decoration="none" x="200" y="810">UNREGISTERED</text><text fill="#eeeeee" stroke="none" font-family="Arial" font-size="24px" font-style="normal" font-weight="normal" text-decoration="none" x="200" y="840">UNREGISTERED</text><text fill="#eeeeee" stroke="none" font-family="Arial" font-size="24px" font-style="normal" font-weight="normal" text-decoration="none" x="200" y="870">UNREGISTERED</text><text fill="#eeeeee" stroke="none" font-family="Arial" font-size="24px" font-style="normal" font-weight="normal" text-decoration="none" x="400" y="0">UNREGISTERED</text><text fill="#eeeeee" stroke="none" font-family="Arial" font-size="24px" font-style="normal" font-weight="normal" text-decoration="none" x="400" y="30">UNREGISTERED</text><text fill="#eeeeee" stroke="none" font-family="Arial" font-size="24px" font-style="normal" font-weight="normal" text-decoration="none" x="400" y="60">UNREGISTERED</text><text fill="#eeeeee" stroke="none" font-family="Arial" font-size="24px" font-style="normal" font-weight="normal" text-decoration="none" x="400" y="90">UNREGISTERED</text><text fill="#eeeeee" stroke="none" font-family="Arial" font-size="24px" font-style="normal" font-weight="normal" text-decoration="none" x="400" y="120">UNREGISTERED</text><text fill="#eeeeee" stroke="none" font-family="Arial" font-size="24px" font-style="normal" font-weight="normal" text-decoration="none" x="400" y="150">UNREGISTERED</text><text fill="#eeeeee" stroke="none" font-family="Arial" font-size="24px" font-style="normal" font-weight="normal" text-decoration="none" x="400" y="180">UNREGISTERED</text><text fill="#eeeeee" stroke="none" font-family="Arial" font-size="24px" font-style="normal" font-weight="normal" text-decoration="none" x="400" y="210">UNREGISTERED</text><text fill="#eeeeee" stroke="none" font-family="Arial" font-size="24px" font-style="normal" font-weight="normal" text-decoration="none" x="400" y="240">UNREGISTERED</text><text fill="#eeeeee" stroke="none" font-family="Arial" font-size="24px" font-style="normal" font-weight="normal" text-decoration="none" x="400" y="270">UNREGISTERED</text><text fill="#eeeeee" stroke="none" font-family="Arial" font-size="24px" font-style="normal" font-weight="normal" text-decoration="none" x="400" y="300">UNREGISTERED</text><text fill="#eeeeee" stroke="none" font-family="Arial" font-size="24px" font-style="normal" font-weight="normal" text-decoration="none" x="400" y="330">UNREGISTERED</text><text fill="#eeeeee" stroke="none" font-family="Arial" font-size="24px" font-style="normal" font-weight="normal" text-decoration="none" x="400" y="360">UNREGISTERED</text><text fill="#eeeeee" stroke="none" font-family="Arial" font-size="24px" font-style="normal" font-weight="normal" text-decoration="none" x="400" y="390">UNREGISTERED</text><text fill="#eeeeee" stroke="none" font-family="Arial" font-size="24px" font-style="normal" font-weight="normal" text-decoration="none" x="400" y="420">UNREGISTERED</text><text fill="#eeeeee" stroke="none" font-family="Arial" font-size="24px" font-style="normal" font-weight="normal" text-decoration="none" x="400" y="450">UNREGISTERED</text><text fill="#eeeeee" stroke="none" font-family="Arial" font-size="24px" font-style="normal" font-weight="normal" text-decoration="none" x="400" y="480">UNREGISTERED</text><text fill="#eeeeee" stroke="none" font-family="Arial" font-size="24px" font-style="normal" font-weight="normal" text-decoration="none" x="400" y="510">UNREGISTERED</text><text fill="#eeeeee" stroke="none" font-family="Arial" font-size="24px" font-style="normal" font-weight="normal" text-decoration="none" x="400" y="540">UNREGISTERED</text><text fill="#eeeeee" stroke="none" font-family="Arial" font-size="24px" font-style="normal" font-weight="normal" text-decoration="none" x="400" y="570">UNREGISTERED</text><text fill="#eeeeee" stroke="none" font-family="Arial" font-size="24px" font-style="normal" font-weight="normal" text-decoration="none" x="400" y="600">UNREGISTERED</text><text fill="#eeeeee" stroke="none" font-family="Arial" font-size="24px" font-style="normal" font-weight="normal" text-decoration="none" x="400" y="630">UNREGISTERED</text><text fill="#eeeeee" stroke="none" font-family="Arial" font-size="24px" font-style="normal" font-weight="normal" text-decoration="none" x="400" y="660">UNREGISTERED</text><text fill="#eeeeee" stroke="none" font-family="Arial" font-size="24px" font-style="normal" font-weight="normal" text-decoration="none" x="400" y="690">UNREGISTERED</text><text fill="#eeeeee" stroke="none" font-family="Arial" font-size="24px" font-style="normal" font-weight="normal" text-decoration="none" x="400" y="720">UNREGISTERED</text><text fill="#eeeeee" stroke="none" font-family="Arial" font-size="24px" font-style="normal" font-weight="normal" text-decoration="none" x="400" y="750">UNREGISTERED</text><text fill="#eeeeee" stroke="none" font-family="Arial" font-size="24px" font-style="normal" font-weight="normal" text-decoration="none" x="400" y="780">UNREGISTERED</text><text fill="#eeeeee" stroke="none" font-family="Arial" font-size="24px" font-style="normal" font-weight="normal" text-decoration="none" x="400" y="810">UNREGISTERED</text><text fill="#eeeeee" stroke="none" font-family="Arial" font-size="24px" font-style="normal" font-weight="normal" text-decoration="none" x="400" y="840">UNREGISTERED</text><text fill="#eeeeee" stroke="none" font-family="Arial" font-size="24px" font-style="normal" font-weight="normal" text-decoration="none" x="400" y="870">UNREGISTERED</text><text fill="#eeeeee" stroke="none" font-family="Arial" font-size="24px" font-style="normal" font-weight="normal" text-decoration="none" x="600" y="0">UNREGISTERED</text><text fill="#eeeeee" stroke="none" font-family="Arial" font-size="24px" font-style="normal" font-weight="normal" text-decoration="none" x="600" y="30">UNREGISTERED</text><text fill="#eeeeee" stroke="none" font-family="Arial" font-size="24px" font-style="normal" font-weight="normal" text-decoration="none" x="600" y="60">UNREGISTERED</text><text fill="#eeeeee" stroke="none" font-family="Arial" font-size="24px" font-style="normal" font-weight="normal" text-decoration="none" x="600" y="90">UNREGISTERED</text><text fill="#eeeeee" stroke="none" font-family="Arial" font-size="24px" font-style="normal" font-weight="normal" text-decoration="none" x="600" y="120">UNREGISTERED</text><text fill="#eeeeee" stroke="none" font-family="Arial" font-size="24px" font-style="normal" font-weight="normal" text-decoration="none" x="600" y="150">UNREGISTERED</text><text fill="#eeeeee" stroke="none" font-family="Arial" font-size="24px" font-style="normal" font-weight="normal" text-decoration="none" x="600" y="180">UNREGISTERED</text><text fill="#eeeeee" stroke="none" font-family="Arial" font-size="24px" font-style="normal" font-weight="normal" text-decoration="none" x="600" y="210">UNREGISTERED</text><text fill="#eeeeee" stroke="none" font-family="Arial" font-size="24px" font-style="normal" font-weight="normal" text-decoration="none" x="600" y="240">UNREGISTERED</text><text fill="#eeeeee" stroke="none" font-family="Arial" font-size="24px" font-style="normal" font-weight="normal" text-decoration="none" x="600" y="270">UNREGISTERED</text><text fill="#eeeeee" stroke="none" font-family="Arial" font-size="24px" font-style="normal" font-weight="normal" text-decoration="none" x="600" y="300">UNREGISTERED</text><text fill="#eeeeee" stroke="none" font-family="Arial" font-size="24px" font-style="normal" font-weight="normal" text-decoration="none" x="600" y="330">UNREGISTERED</text><text fill="#eeeeee" stroke="none" font-family="Arial" font-size="24px" font-style="normal" font-weight="normal" text-decoration="none" x="600" y="360">UNREGISTERED</text><text fill="#eeeeee" stroke="none" font-family="Arial" font-size="24px" font-style="normal" font-weight="normal" text-decoration="none" x="600" y="390">UNREGISTERED</text><text fill="#eeeeee" stroke="none" font-family="Arial" font-size="24px" font-style="normal" font-weight="normal" text-decoration="none" x="600" y="420">UNREGISTERED</text><text fill="#eeeeee" stroke="none" font-family="Arial" font-size="24px" font-style="normal" font-weight="normal" text-decoration="none" x="600" y="450">UNREGISTERED</text><text fill="#eeeeee" stroke="none" font-family="Arial" font-size="24px" font-style="normal" font-weight="normal" text-decoration="none" x="600" y="480">UNREGISTERED</text><text fill="#eeeeee" stroke="none" font-family="Arial" font-size="24px" font-style="normal" font-weight="normal" text-decoration="none" x="600" y="510">UNREGISTERED</text><text fill="#eeeeee" stroke="none" font-family="Arial" font-size="24px" font-style="normal" font-weight="normal" text-decoration="none" x="600" y="540">UNREGISTERED</text><text fill="#eeeeee" stroke="none" font-family="Arial" font-size="24px" font-style="normal" font-weight="normal" text-decoration="none" x="600" y="570">UNREGISTERED</text><text fill="#eeeeee" stroke="none" font-family="Arial" font-size="24px" font-style="normal" font-weight="normal" text-decoration="none" x="600" y="600">UNREGISTERED</text><text fill="#eeeeee" stroke="none" font-family="Arial" font-size="24px" font-style="normal" font-weight="normal" text-decoration="none" x="600" y="630">UNREGISTERED</text><text fill="#eeeeee" stroke="none" font-family="Arial" font-size="24px" font-style="normal" font-weight="normal" text-decoration="none" x="600" y="660">UNREGISTERED</text><text fill="#eeeeee" stroke="none" font-family="Arial" font-size="24px" font-style="normal" font-weight="normal" text-decoration="none" x="600" y="690">UNREGISTERED</text><text fill="#eeeeee" stroke="none" font-family="Arial" font-size="24px" font-style="normal" font-weight="normal" text-decoration="none" x="600" y="720">UNREGISTERED</text><text fill="#eeeeee" stroke="none" font-family="Arial" font-size="24px" font-style="normal" font-weight="normal" text-decoration="none" x="600" y="750">UNREGISTERED</text><text fill="#eeeeee" stroke="none" font-family="Arial" font-size="24px" font-style="normal" font-weight="normal" text-decoration="none" x="600" y="780">UNREGISTERED</text><text fill="#eeeeee" stroke="none" font-family="Arial" font-size="24px" font-style="normal" font-weight="normal" text-decoration="none" x="600" y="810">UNREGISTERED</text><text fill="#eeeeee" stroke="none" font-family="Arial" font-size="24px" font-style="normal" font-weight="normal" text-decoration="none" x="600" y="840">UNREGISTERED</text><text fill="#eeeeee" stroke="none" font-family="Arial" font-size="24px" font-style="normal" font-weight="normal" text-decoration="none" x="600" y="870">UNREGISTERED</text><text fill="#eeeeee" stroke="none" font-family="Arial" font-size="24px" font-style="normal" font-weight="normal" text-decoration="none" x="800" y="0">UNREGISTERED</text><text fill="#eeeeee" stroke="none" font-family="Arial" font-size="24px" font-style="normal" font-weight="normal" text-decoration="none" x="800" y="30">UNREGISTERED</text><text fill="#eeeeee" stroke="none" font-family="Arial" font-size="24px" font-style="normal" font-weight="normal" text-decoration="none" x="800" y="60">UNREGISTERED</text><text fill="#eeeeee" stroke="none" font-family="Arial" font-size="24px" font-style="normal" font-weight="normal" text-decoration="none" x="800" y="90">UNREGISTERED</text><text fill="#eeeeee" stroke="none" font-family="Arial" font-size="24px" font-style="normal" font-weight="normal" text-decoration="none" x="800" y="120">UNREGISTERED</text><text fill="#eeeeee" stroke="none" font-family="Arial" font-size="24px" font-style="normal" font-weight="normal" text-decoration="none" x="800" y="150">UNREGISTERED</text><text fill="#eeeeee" stroke="none" font-family="Arial" font-size="24px" font-style="normal" font-weight="normal" text-decoration="none" x="800" y="180">UNREGISTERED</text><text fill="#eeeeee" stroke="none" font-family="Arial" font-size="24px" font-style="normal" font-weight="normal" text-decoration="none" x="800" y="210">UNREGISTERED</text><text fill="#eeeeee" stroke="none" font-family="Arial" font-size="24px" font-style="normal" font-weight="normal" text-decoration="none" x="800" y="240">UNREGISTERED</text><text fill="#eeeeee" stroke="none" font-family="Arial" font-size="24px" font-style="normal" font-weight="normal" text-decoration="none" x="800" y="270">UNREGISTERED</text><text fill="#eeeeee" stroke="none" font-family="Arial" font-size="24px" font-style="normal" font-weight="normal" text-decoration="none" x="800" y="300">UNREGISTERED</text><text fill="#eeeeee" stroke="none" font-family="Arial" font-size="24px" font-style="normal" font-weight="normal" text-decoration="none" x="800" y="330">UNREGISTERED</text><text fill="#eeeeee" stroke="none" font-family="Arial" font-size="24px" font-style="normal" font-weight="normal" text-decoration="none" x="800" y="360">UNREGISTERED</text><text fill="#eeeeee" stroke="none" font-family="Arial" font-size="24px" font-style="normal" font-weight="normal" text-decoration="none" x="800" y="390">UNREGISTERED</text><text fill="#eeeeee" stroke="none" font-family="Arial" font-size="24px" font-style="normal" font-weight="normal" text-decoration="none" x="800" y="420">UNREGISTERED</text><text fill="#eeeeee" stroke="none" font-family="Arial" font-size="24px" font-style="normal" font-weight="normal" text-decoration="none" x="800" y="450">UNREGISTERED</text><text fill="#eeeeee" stroke="none" font-family="Arial" font-size="24px" font-style="normal" font-weight="normal" text-decoration="none" x="800" y="480">UNREGISTERED</text><text fill="#eeeeee" stroke="none" font-family="Arial" font-size="24px" font-style="normal" font-weight="normal" text-decoration="none" x="800" y="510">UNREGISTERED</text><text fill="#eeeeee" stroke="none" font-family="Arial" font-size="24px" font-style="normal" font-weight="normal" text-decoration="none" x="800" y="540">UNREGISTERED</text><text fill="#eeeeee" stroke="none" font-family="Arial" font-size="24px" font-style="normal" font-weight="normal" text-decoration="none" x="800" y="570">UNREGISTERED</text><text fill="#eeeeee" stroke="none" font-family="Arial" font-size="24px" font-style="normal" font-weight="normal" text-decoration="none" x="800" y="600">UNREGISTERED</text><text fill="#eeeeee" stroke="none" font-family="Arial" font-size="24px" font-style="normal" font-weight="normal" text-decoration="none" x="800" y="630">UNREGISTERED</text><text fill="#eeeeee" stroke="none" font-family="Arial" font-size="24px" font-style="normal" font-weight="normal" text-decoration="none" x="800" y="660">UNREGISTERED</text><text fill="#eeeeee" stroke="none" font-family="Arial" font-size="24px" font-style="normal" font-weight="normal" text-decoration="none" x="800" y="690">UNREGISTERED</text><text fill="#eeeeee" stroke="none" font-family="Arial" font-size="24px" font-style="normal" font-weight="normal" text-decoration="none" x="800" y="720">UNREGISTERED</text><text fill="#eeeeee" stroke="none" font-family="Arial" font-size="24px" font-style="normal" font-weight="normal" text-decoration="none" x="800" y="750">UNREGISTERED</text><text fill="#eeeeee" stroke="none" font-family="Arial" font-size="24px" font-style="normal" font-weight="normal" text-decoration="none" x="800" y="780">UNREGISTERED</text><text fill="#eeeeee" stroke="none" font-family="Arial" font-size="24px" font-style="normal" font-weight="normal" text-decoration="none" x="800" y="810">UNREGISTERED</text><text fill="#eeeeee" stroke="none" font-family="Arial" font-size="24px" font-style="normal" font-weight="normal" text-decoration="none" x="800" y="840">UNREGISTERED</text><text fill="#eeeeee" stroke="none" font-family="Arial" font-size="24px" font-style="normal" font-weight="normal" text-decoration="none" x="800" y="870">UNREGISTERED</text><text fill="#eeeeee" stroke="none" font-family="Arial" font-size="24px" font-style="normal" font-weight="normal" text-decoration="none" x="1000" y="0">UNREGISTERED</text><text fill="#eeeeee" stroke="none" font-family="Arial" font-size="24px" font-style="normal" font-weight="normal" text-decoration="none" x="1000" y="30">UNREGISTERED</text><text fill="#eeeeee" stroke="none" font-family="Arial" font-size="24px" font-style="normal" font-weight="normal" text-decoration="none" x="1000" y="60">UNREGISTERED</text><text fill="#eeeeee" stroke="none" font-family="Arial" font-size="24px" font-style="normal" font-weight="normal" text-decoration="none" x="1000" y="90">UNREGISTERED</text><text fill="#eeeeee" stroke="none" font-family="Arial" font-size="24px" font-style="normal" font-weight="normal" text-decoration="none" x="1000" y="120">UNREGISTERED</text><text fill="#eeeeee" stroke="none" font-family="Arial" font-size="24px" font-style="normal" font-weight="normal" text-decoration="none" x="1000" y="150">UNREGISTERED</text><text fill="#eeeeee" stroke="none" font-family="Arial" font-size="24px" font-style="normal" font-weight="normal" text-decoration="none" x="1000" y="180">UNREGISTERED</text><text fill="#eeeeee" stroke="none" font-family="Arial" font-size="24px" font-style="normal" font-weight="normal" text-decoration="none" x="1000" y="210">UNREGISTERED</text><text fill="#eeeeee" stroke="none" font-family="Arial" font-size="24px" font-style="normal" font-weight="normal" text-decoration="none" x="1000" y="240">UNREGISTERED</text><text fill="#eeeeee" stroke="none" font-family="Arial" font-size="24px" font-style="normal" font-weight="normal" text-decoration="none" x="1000" y="270">UNREGISTERED</text><text fill="#eeeeee" stroke="none" font-family="Arial" font-size="24px" font-style="normal" font-weight="normal" text-decoration="none" x="1000" y="300">UNREGISTERED</text><text fill="#eeeeee" stroke="none" font-family="Arial" font-size="24px" font-style="normal" font-weight="normal" text-decoration="none" x="1000" y="330">UNREGISTERED</text><text fill="#eeeeee" stroke="none" font-family="Arial" font-size="24px" font-style="normal" font-weight="normal" text-decoration="none" x="1000" y="360">UNREGISTERED</text><text fill="#eeeeee" stroke="none" font-family="Arial" font-size="24px" font-style="normal" font-weight="normal" text-decoration="none" x="1000" y="390">UNREGISTERED</text><text fill="#eeeeee" stroke="none" font-family="Arial" font-size="24px" font-style="normal" font-weight="normal" text-decoration="none" x="1000" y="420">UNREGISTERED</text><text fill="#eeeeee" stroke="none" font-family="Arial" font-size="24px" font-style="normal" font-weight="normal" text-decoration="none" x="1000" y="450">UNREGISTERED</text><text fill="#eeeeee" stroke="none" font-family="Arial" font-size="24px" font-style="normal" font-weight="normal" text-decoration="none" x="1000" y="480">UNREGISTERED</text><text fill="#eeeeee" stroke="none" font-family="Arial" font-size="24px" font-style="normal" font-weight="normal" text-decoration="none" x="1000" y="510">UNREGISTERED</text><text fill="#eeeeee" stroke="none" font-family="Arial" font-size="24px" font-style="normal" font-weight="normal" text-decoration="none" x="1000" y="540">UNREGISTERED</text><text fill="#eeeeee" stroke="none" font-family="Arial" font-size="24px" font-style="normal" font-weight="normal" text-decoration="none" x="1000" y="570">UNREGISTERED</text><text fill="#eeeeee" stroke="none" font-family="Arial" font-size="24px" font-style="normal" font-weight="normal" text-decoration="none" x="1000" y="600">UNREGISTERED</text><text fill="#eeeeee" stroke="none" font-family="Arial" font-size="24px" font-style="normal" font-weight="normal" text-decoration="none" x="1000" y="630">UNREGISTERED</text><text fill="#eeeeee" stroke="none" font-family="Arial" font-size="24px" font-style="normal" font-weight="normal" text-decoration="none" x="1000" y="660">UNREGISTERED</text><text fill="#eeeeee" stroke="none" font-family="Arial" font-size="24px" font-style="normal" font-weight="normal" text-decoration="none" x="1000" y="690">UNREGISTERED</text><text fill="#eeeeee" stroke="none" font-family="Arial" font-size="24px" font-style="normal" font-weight="normal" text-decoration="none" x="1000" y="720">UNREGISTERED</text><text fill="#eeeeee" stroke="none" font-family="Arial" font-size="24px" font-style="normal" font-weight="normal" text-decoration="none" x="1000" y="750">UNREGISTERED</text><text fill="#eeeeee" stroke="none" font-family="Arial" font-size="24px" font-style="normal" font-weight="normal" text-decoration="none" x="1000" y="780">UNREGISTERED</text><text fill="#eeeeee" stroke="none" font-family="Arial" font-size="24px" font-style="normal" font-weight="normal" text-decoration="none" x="1000" y="810">UNREGISTERED</text><text fill="#eeeeee" stroke="none" font-family="Arial" font-size="24px" font-style="normal" font-weight="normal" text-decoration="none" x="1000" y="840">UNREGISTERED</text><text fill="#eeeeee" stroke="none" font-family="Arial" font-size="24px" font-style="normal" font-weight="normal" text-decoration="none" x="1000" y="870">UNREGISTERED</text><g transform="translate(-198,-206) scale(1,1)"><path fill="none" stroke="#000000" d="M 208 216 L 1279 216 L 1279 1096 L 208 1096 L 208 216" stroke-miterlimit="10"/></g><g transform="translate(-198,-206) scale(1,1)"><path fill="#ffffff" stroke="none" d="M 208 216 L 208 247 L 480.78125 247 L 496.28125 231.5 L 496.28125 216 L 208 216"/></g><g transform="translate(-198,-206) scale(1,1)"><path fill="none" stroke="#000000" d="M 208 216 L 208 247 L 480.78125 247 L 496.28125 231.5 L 496.28125 216 L 208 216 L 208 216" stroke-miterlimit="10"/></g><g transform="translate(-198,-206) scale(1,1)"><g><path fill="none" stroke="none"/><text fill="#000000" stroke="none" font-family="Arial" font-size="22px" font-style="normal" font-weight="normal" text-decoration="none" x="286.2353515625" y="242.5">Experimentos 2 e 3</text></g></g><g transform="translate(-198,-206) scale(1,1)"><g><path fill="none" stroke="none"/><text fill="#000000" stroke="none" font-family="Arial" font-size="22px" font-style="normal" font-weight="bold" text-decoration="none" x="213" y="242.5">activity</text></g></g><g transform="translate(-198,-206) scale(1,1)"><rect fill="#ffeaad" stroke="none" x="720" y="256" width="544" height="32"/></g><g transform="translate(-198,-206) scale(1,1)"><path fill="none" stroke="#000000" d="M 720 256 L 1264 256 L 1264 288 L 720 288 L 720 256 Z Z" stroke-miterlimit="10" stroke-width="2"/></g><g transform="translate(-198,-206) scale(1,1)"><path fill="none" stroke="#000000" d="M 720 1088 L 720 256 L 1264 256 L 1264 1088" stroke-miterlimit="10" stroke-width="2"/></g><g transform="translate(-198,-206) scale(1,1)"><g><path fill="none" stroke="none"/><text fill="#000000" stroke="none" font-family="Arial" font-size="24px" font-style="normal" font-weight="normal" text-decoration="none" x="926.439453125" y="284">Transmissor</text></g></g><g transform="translate(-198,-206) scale(1,1)"><rect fill="#ffeaad" stroke="none" x="224" y="256" width="496" height="32"/></g><g transform="translate(-198,-206) scale(1,1)"><path fill="none" stroke="#000000" d="M 224 256 L 720 256 L 720 288 L 224 288 L 224 256 Z Z" stroke-miterlimit="10" stroke-width="2"/></g><g transform="translate(-198,-206) scale(1,1)"><path fill="none" stroke="#000000" d="M 224 1088 L 224 256 L 720 256 L 720 1088" stroke-miterlimit="10" stroke-width="2"/></g><g transform="translate(-198,-206) scale(1,1)"><g><path fill="none" stroke="none"/><text fill="#000000" stroke="none" font-family="Arial" font-size="24px" font-style="normal" font-weight="normal" text-decoration="none" x="413.98046875" y="284">Dispositivo</text></g></g><g transform="translate(-198,-206) scale(1,1)"><path fill="#C0C0C0" stroke="none" d="M 361 359 L 594 359 Q 604 359 604 369 L 604 398 Q 604 408 594 408 L 361 408 Q 351 408 351 398 L 351 369 Q 351 359 361 359 Z" opacity="0.2"/></g><g transform="translate(-198,-206) scale(1,1)"><path fill="#ffeaad" stroke="none" d="M 354 352 L 587 352 Q 597 352 597 362 L 597 391 Q 597 401 587 401 L 354 401 Q 344 401 344 391 L 344 362 Q 344 352 354 352 Z"/></g><g transform="translate(-198,-206) scale(1,1)"><path fill="none" stroke="#000000" d="M 354 352 L 587 352 Q 597 352 597 362 L 597 391 Q 597 401 587 401 L 354 401 Q 344 401 344 391 L 344 362 Q 344 352 354 352 Z" stroke-miterlimit="10"/></g><g transform="translate(-198,-206) scale(1,1)"><g><path fill="none" stroke="none"/><text fill="#000000" stroke="none" font-family="roboto" font-size="22px" font-style="normal" font-weight="bold" text-decoration="none" x="367.6328125" y="380.5">Prepara o dispositivo</text></g></g><g transform="translate(-198,-206) scale(1,1)"><path fill="#C0C0C0" stroke="none" d="M 307 455 L 648 455 Q 658 455 658 465 L 658 494 Q 658 504 648 504 L 307 504 Q 297 504 297 494 L 297 465 Q 297 455 307 455 Z" opacity="0.2"/></g><g transform="translate(-198,-206) scale(1,1)"><path fill="#ffeaad" stroke="none" d="M 300 448 L 641 448 Q 651 448 651 458 L 651 487 Q 651 497 641 497 L 300 497 Q 290 497 290 487 L 290 458 Q 290 448 300 448 Z"/></g><g transform="translate(-198,-206) scale(1,1)"><path fill="none" stroke="#000000" d="M 300 448 L 641 448 Q 651 448 651 458 L 651 487 Q 651 497 641 497 L 300 497 Q 290 497 290 487 L 290 458 Q 290 448 300 448 Z" stroke-miterlimit="10"/></g><g transform="translate(-198,-206) scale(1,1)"><g><path fill="none" stroke="none"/><text fill="#000000" stroke="none" font-family="Roboto" font-size="22px" font-style="normal" font-weight="bold" text-decoration="none" x="322.04833984375" y="476.5">Aguarda início da transmissão</text></g></g><g transform="translate(-198,-206) scale(1,1)"><path fill="#C0C0C0" stroke="none" d="M 455 323 C 455 316.3725824 462.3873008 311 471.5 311 C 480.6126992 311 488 316.3725824 488 323 C 488 329.6274176 480.6126992 335 471.5 335 C 462.3873008 335 455 329.6274176 455 323 Z" opacity="0.2"/></g><g transform="translate(-198,-206) scale(1,1)"><path fill="#000000" stroke="none" d="M 448 316 C 448 309.3725824 455.3873008 304 464.5 304 C 473.6126992 304 481 309.3725824 481 316 C 481 322.6274176 473.6126992 328 464.5 328 C 455.3873008 328 448 322.6274176 448 316 Z"/></g><g transform="translate(-198,-206) scale(1,1)"><path fill="#C0C0C0" stroke="none" d="M 758 447 L 1229 447 Q 1239 447 1239 457 L 1239 508 Q 1239 518 1229 518 L 758 518 Q 748 518 748 508 L 748 457 Q 748 447 758 447 Z" opacity="0.2"/></g><g transform="translate(-198,-206) scale(1,1)"><path fill="#ffeaad" stroke="none" d="M 751 440 L 1222 440 Q 1232 440 1232 450 L 1232 501 Q 1232 511 1222 511 L 751 511 Q 741 511 741 501 L 741 450 Q 741 440 751 440 Z"/></g><g transform="translate(-198,-206) scale(1,1)"><path fill="none" stroke="#000000" d="M 751 440 L 1222 440 Q 1232 440 1232 450 L 1232 501 Q 1232 511 1222 511 L 751 511 Q 741 511 741 501 L 741 450 Q 741 440 751 440 Z" stroke-miterlimit="10"/></g><g transform="translate(-198,-206) scale(1,1)"><g><path fill="none" stroke="none"/><text fill="#000000" stroke="none" font-family="Roboto" font-size="22px" font-style="normal" font-weight="bold" text-decoration="none" x="776.0927734375" y="468.5">Transfere dados adicionais com assinatura</text><text fill="#000000" stroke="none" font-family="Roboto" font-size="22px" font-style="normal" font-weight="bold" text-decoration="none" x="861.1171875" y="490.5">inválida ou versão inferior</text></g></g><g transform="translate(-198,-206) scale(1,1)"><path fill="#C0C0C0" stroke="none" d="M 274 559 L 680 559 Q 690 559 690 569 L 690 598 Q 690 608 680 608 L 274 608 Q 264 608 264 598 L 264 569 Q 264 559 274 559 Z" opacity="0.2"/></g><g transform="translate(-198,-206) scale(1,1)"><path fill="#ffeaad" stroke="none" d="M 267 552 L 673 552 Q 683 552 683 562 L 683 591 Q 683 601 673 601 L 267 601 Q 257 601 257 591 L 257 562 Q 257 552 267 552 Z"/></g><g transform="translate(-198,-206) scale(1,1)"><path fill="none" stroke="#000000" d="M 267 552 L 673 552 Q 683 552 683 562 L 683 591 Q 683 601 673 601 L 267 601 Q 257 601 257 591 L 257 562 Q 257 552 267 552 Z" stroke-miterlimit="10"/></g><g transform="translate(-198,-206) scale(1,1)"><g><path fill="none" stroke="none"/><text fill="#000000" stroke="none" font-family="Roboto" font-size="22px" font-style="normal" font-weight="bold" text-decoration="none" x="288.2314453125" y="580.5">Recebe e armazena dados adicionais</text></g></g><g transform="translate(-198,-206) scale(1,1)"><path fill="#C0C0C0" stroke="none" d="M 286 655 L 668 655 Q 678 655 678 665 L 678 694 Q 678 704 668 704 L 286 704 Q 276 704 276 694 L 276 665 Q 276 655 286 655 Z" opacity="0.2"/></g><g transform="translate(-198,-206) scale(1,1)"><path fill="#ffeaad" stroke="none" d="M 279 648 L 661 648 Q 671 648 671 658 L 671 687 Q 671 697 661 697 L 279 697 Q 269 697 269 687 L 269 658 Q 269 648 279 648 Z"/></g><g transform="translate(-198,-206) scale(1,1)"><path fill="none" stroke="#000000" d="M 279 648 L 661 648 Q 671 648 671 658 L 671 687 Q 671 697 661 697 L 279 697 Q 269 697 269 687 L 269 658 Q 269 648 279 648 Z" stroke-miterlimit="10"/></g><g transform="translate(-198,-206) scale(1,1)"><g><path fill="none" stroke="none"/><text fill="#000000" stroke="none" font-family="Roboto" font-size="22px" font-style="normal" font-weight="bold" text-decoration="none" x="304.26416015625" y="676.5">Aguarda transmissão do firmware</text></g></g><g transform="translate(-198,-206) scale(1,1)"><path fill="#C0C0C0" stroke="none" d="M 829 647 L 1158 647 Q 1168 647 1168 657 L 1168 686 Q 1168 696 1158 696 L 829 696 Q 819 696 819 686 L 819 657 Q 819 647 829 647 Z" opacity="0.2"/></g><g transform="translate(-198,-206) scale(1,1)"><path fill="#ffeaad" stroke="none" d="M 822 640 L 1151 640 Q 1161 640 1161 650 L 1161 679 Q 1161 689 1151 689 L 822 689 Q 812 689 812 679 L 812 650 Q 812 640 822 640 Z"/></g><g transform="translate(-198,-206) scale(1,1)"><path fill="none" stroke="#000000" d="M 822 640 L 1151 640 Q 1161 640 1161 650 L 1161 679 Q 1161 689 1151 689 L 822 689 Q 812 689 812 679 L 812 650 Q 812 640 822 640 Z" stroke-miterlimit="10"/></g><g transform="translate(-198,-206) scale(1,1)"><g><path fill="none" stroke="none"/><text fill="#000000" stroke="none" font-family="Roboto" font-size="22px" font-style="normal" font-weight="bold" text-decoration="none" x="845.4443359375" y="668.5">Transfere firmware completo</text></g></g><g transform="translate(-198,-206) scale(1,1)"><path fill="#C0C0C0" stroke="none" d="M 266 759 L 689 759 Q 699 759 699 769 L 699 798 Q 699 808 689 808 L 266 808 Q 256 808 256 798 L 256 769 Q 256 759 266 759 Z" opacity="0.2"/></g><g transform="translate(-198,-206) scale(1,1)"><path fill="#ffeaad" stroke="none" d="M 259 752 L 682 752 Q 692 752 692 762 L 692 791 Q 692 801 682 801 L 259 801 Q 249 801 249 791 L 249 762 Q 249 752 259 752 Z"/></g><g transform="translate(-198,-206) scale(1,1)"><path fill="none" stroke="#000000" d="M 259 752 L 682 752 Q 692 752 692 762 L 692 791 Q 692 801 682 801 L 259 801 Q 249 801 249 791 L 249 762 Q 249 752 259 752 Z" stroke-miterlimit="10"/></g><g transform="translate(-198,-206) scale(1,1)"><g><path fill="none" stroke="none"/><text fill="#000000" stroke="none" font-family="Roboto" font-size="22px" font-style="normal" font-weight="bold" text-decoration="none" x="279.76708984375" y="780.5">Recebe firmware completo e armazena</text></g></g><g transform="translate(-198,-206) scale(1,1)"><path fill="#C0C0C0" stroke="none" d="M 267 863 L 688 863 Q 698 863 698 873 L 698 924 Q 698 934 688 934 L 267 934 Q 257 934 257 924 L 257 873 Q 257 863 267 863 Z" opacity="0.2"/></g><g transform="translate(-198,-206) scale(1,1)"><path fill="#ffeaad" stroke="none" d="M 260 856 L 681 856 Q 691 856 691 866 L 691 917 Q 691 927 681 927 L 260 927 Q 250 927 250 917 L 250 866 Q 250 856 260 856 Z"/></g><g transform="translate(-198,-206) scale(1,1)"><path fill="none" stroke="#000000" d="M 260 856 L 681 856 Q 691 856 691 866 L 691 917 Q 691 927 681 927 L 260 927 Q 250 927 250 917 L 250 866 Q 250 856 260 856 Z" stroke-miterlimit="10"/></g><g transform="translate(-198,-206) scale(1,1)"><g><path fill="none" stroke="none"/><text fill="#000000" stroke="none" font-family="Roboto" font-size="22px" font-style="normal" font-weight="bold" text-decoration="none" x="281.974609375" y="884.5">Realiza as verificações de assinatura e</text><text fill="#000000" stroke="none" font-family="Roboto" font-size="22px" font-style="normal" font-weight="bold" text-decoration="none" x="376.6884765625" y="906.5">versão do firmware</text></g></g><g transform="translate(-198,-206) scale(1,1)"><path fill="none" stroke="#000000" d="M 464 328 L 464 352" stroke-miterlimit="10"/></g><g transform="translate(-198,-206) scale(1,1)"><path fill="none" stroke="#000000" d="M 459.790482243984 341.83732514237585 L 464 352 L 468.209517756016 341.83732514237585" stroke-miterlimit="10"/></g><g transform="translate(-198,-206) scale(1,1)"><path fill="none" stroke="#000000" d="M 464 401 L 464 448" stroke-miterlimit="10"/></g><g transform="translate(-198,-206) scale(1,1)"><path fill="none" stroke="#000000" d="M 459.790482243984 437.83732514237585 L 464 448 L 468.209517756016 437.83732514237585" stroke-miterlimit="10"/></g><g transform="translate(-198,-206) scale(1,1)"><path fill="none" stroke="#000000" d="M 464 497 L 464 552" stroke-miterlimit="10"/></g><g transform="translate(-198,-206) scale(1,1)"><path fill="none" stroke="#000000" d="M 459.790482243984 541.8373251423759 L 464 552 L 468.209517756016 541.8373251423759" stroke-miterlimit="10"/></g><g transform="translate(-198,-206) scale(1,1)"><path fill="none" stroke="#000000" d="M 464 601 L 464 648" stroke-miterlimit="10"/></g><g transform="translate(-198,-206) scale(1,1)"><path fill="none" stroke="#000000" d="M 459.790482243984 637.8373251423759 L 464 648 L 468.209517756016 637.8373251423759" stroke-miterlimit="10"/></g><g transform="translate(-198,-206) scale(1,1)"><path fill="none" stroke="#000000" d="M 464 697 L 464 752" stroke-miterlimit="10"/></g><g transform="translate(-198,-206) scale(1,1)"><path fill="none" stroke="#000000" d="M 459.790482243984 741.8373251423759 L 464 752 L 468.209517756016 741.8373251423759" stroke-miterlimit="10"/></g><g transform="translate(-198,-206) scale(1,1)"><path fill="none" stroke="#000000" d="M 464 801 L 464 856" stroke-miterlimit="10"/></g><g transform="translate(-198,-206) scale(1,1)"><path fill="none" stroke="#000000" d="M 459.790482243984 845.8373251423759 L 464 856 L 468.209517756016 845.8373251423759" stroke-miterlimit="10"/></g><g transform="translate(-198,-206) scale(1,1)"><path fill="none" stroke="#000000" d="M 344 1016 L 240 1016 L 240 371 L 344 371" stroke-miterlimit="10"/></g><g transform="translate(-198,-206) scale(1,1)"><path fill="none" stroke="#000000" d="M 333.83732514237585 375.209517756016 L 344 371 L 333.83732514237585 366.790482243984" stroke-miterlimit="10"/></g><g transform="translate(-198,-206) scale(1,1)"><path fill="#C0C0C0" stroke="none" d="M 361 991 L 594 991 Q 604 991 604 1001 L 604 1030 Q 604 1040 594 1040 L 361 1040 Q 351 1040 351 1030 L 351 1001 Q 351 991 361 991 Z" opacity="0.2"/></g><g transform="translate(-198,-206) scale(1,1)"><path fill="#ffeaad" stroke="none" d="M 354 984 L 587 984 Q 597 984 597 994 L 597 1023 Q 597 1033 587 1033 L 354 1033 Q 344 1033 344 1023 L 344 994 Q 344 984 354 984 Z"/></g><g transform="translate(-198,-206) scale(1,1)"><path fill="none" stroke="#000000" d="M 354 984 L 587 984 Q 597 984 597 994 L 597 1023 Q 597 1033 587 1033 L 354 1033 Q 344 1033 344 1023 L 344 994 Q 344 984 354 984 Z" stroke-miterlimit="10"/></g><g transform="translate(-198,-206) scale(1,1)"><g><path fill="none" stroke="none"/><text fill="#000000" stroke="none" font-family="Roboto" font-size="22px" font-style="normal" font-weight="bold" text-decoration="none" x="370.361328125" y="1012.5">Falha na verificação </text></g></g><g transform="translate(-198,-206) scale(1,1)"><path fill="none" stroke="#000000" d="M 651 472 L 741 472" stroke-miterlimit="10"/></g><g transform="translate(-198,-206) scale(1,1)"><path fill="none" stroke="#000000" d="M 730.8373251423759 476.209517756016 L 741 472 L 730.8373251423758 467.790482243984" stroke-miterlimit="10"/></g><g transform="translate(-198,-206) scale(1,1)"><path fill="none" stroke="#000000" d="M 984 511 L 984 576 L 683 576" stroke-miterlimit="10"/></g><g transform="translate(-198,-206) scale(1,1)"><path fill="none" stroke="#000000" d="M 693.1626748576241 571.790482243984 L 683 576 L 693.1626748576241 580.209517756016" stroke-miterlimit="10"/></g><g transform="translate(-198,-206) scale(1,1)"><path fill="none" stroke="#000000" d="M 671 672 L 812 672" stroke-miterlimit="10"/></g><g transform="translate(-198,-206) scale(1,1)"><path fill="none" stroke="#000000" d="M 801.8373251423759 676.209517756016 L 812 672 L 801.8373251423758 667.790482243984" stroke-miterlimit="10"/></g><g transform="translate(-198,-206) scale(1,1)"><path fill="none" stroke="#000000" d="M 976 689 L 976 768 L 692 768" stroke-miterlimit="10"/></g><g transform="translate(-198,-206) scale(1,1)"><path fill="none" stroke="#000000" d="M 702.1626748576241 763.790482243984 L 692 768 L 702.1626748576241 772.209517756016" stroke-miterlimit="10"/></g><g transform="translate(-198,-206) scale(1,1)"><path fill="none" stroke="#000000" d="M 464 927 L 464 984" stroke-miterlimit="10"/></g><g transform="translate(-198,-206) scale(1,1)"><path fill="none" stroke="#000000" d="M 459.790482243984 973.8373251423759 L 464 984 L 468.209517756016 973.8373251423759" stroke-miterlimit="10"/></g></g></svg>