<?xml version="1.0" encoding="UTF-8" standalone="no"?>
<svg
   xmlns:dc="http://purl.org/dc/elements/1.1/"
   xmlns:cc="http://creativecommons.org/ns#"
   xmlns:rdf="http://www.w3.org/1999/02/22-rdf-syntax-ns#"
   xmlns:svg="http://www.w3.org/2000/svg"
   xmlns="http://www.w3.org/2000/svg"
   xmlns:sodipodi="http://sodipodi.sourceforge.net/DTD/sodipodi-0.dtd"
   xmlns:inkscape="http://www.inkscape.org/namespaces/inkscape"
   version="1.1"
   width="476.04296875"
   height="1023"
   id="svg554"
   sodipodi:docname="Fluxograma teste1simples!Fluxograma teste1simples_11.svg"
   inkscape:version="1.0.2-2 (e86c870879, 2021-01-15)">
  <metadata
     id="metadata558">
    <rdf:RDF>
      <cc:Work
         rdf:about="">
        <dc:format>image/svg+xml</dc:format>
        <dc:type
           rdf:resource="http://purl.org/dc/dcmitype/StillImage" />
      </cc:Work>
    </rdf:RDF>
  </metadata>
  <sodipodi:namedview
     pagecolor="#ffffff"
     bordercolor="#666666"
     borderopacity="1"
     objecttolerance="10"
     gridtolerance="10"
     guidetolerance="10"
     inkscape:pageopacity="0"
     inkscape:pageshadow="2"
     inkscape:window-width="1858"
     inkscape:window-height="1057"
     id="namedview556"
     showgrid="false"
     inkscape:zoom="0.86999022"
     inkscape:cx="238.02148"
     inkscape:cy="511.5"
     inkscape:window-x="-8"
     inkscape:window-y="1072"
     inkscape:window-maximized="1"
     inkscape:current-layer="g552" />
  <defs
     id="defs2" />
  <g
     id="g552">
    <g
       transform="translate(-501,-150) scale(1,1)"
       id="g216">
      <path
         fill="#ffeaad"
         stroke="none"
         d="M 614 160 L 682 160 Q 704 160 704 182 L 704 181 Q 704 203 682 203 L 614 203 Q 592 203 592 181 L 592 182 Q 592 160 614 160 Z"
         id="path214" />
    </g>
    <g
       transform="translate(-501,-150) scale(1,1)"
       id="g220">
      <path
         fill="none"
         stroke="#000000"
         d="M 614 160 L 682 160 Q 704 160 704 182 L 704 181 Q 704 203 682 203 L 614 203 Q 592 203 592 181 L 592 182 Q 592 160 614 160 Z"
         stroke-miterlimit="10"
         id="path218" />
    </g>
    <g
       transform="translate(-501,-150) scale(1,1)"
       id="g228">
      <g
         id="g226">
        <path
           fill="none"
           stroke="none"
           id="path222" />
        <text
           fill="#000000"
           stroke="none"
           font-family="Arial"
           font-size="24px"
           font-style="normal"
           font-weight="normal"
           text-decoration="none"
           x="619.318359375"
           y="193.5"
           id="text224">Início</text>
      </g>
    </g>
    <g
       transform="translate(-501,-150) scale(1,1)"
       id="g232">
      <rect
         fill="#ffeaad"
         stroke="none"
         x="527"
         y="248"
         width="240"
         height="91"
         id="rect230" />
    </g>
    <g
       transform="translate(-501,-150) scale(1,1)"
       id="g236">
      <path
         fill="none"
         stroke="#000000"
         d="M 527 248 L 767 248 L 767 339 L 527 339 L 527 248 Z Z"
         stroke-miterlimit="10"
         id="path234" />
    </g>
    <g
       transform="translate(-501,-150) scale(1,1)"
       id="g248">
      <g
         id="g246">
        <path
           fill="none"
           stroke="none"
           id="path238" />
        <text
           fill="#000000"
           stroke="none"
           font-family="Arial"
           font-size="24px"
           font-style="normal"
           font-weight="normal"
           text-decoration="none"
           x="560.275390625"
           y="281.5"
           id="text240">Pressiona botão</text>
        <text
           fill="#000000"
           stroke="none"
           font-family="Arial"
           font-size="24px"
           font-style="normal"
           font-weight="normal"
           text-decoration="none"
           x="588.306640625"
           y="305.5"
           id="text242">para iniciar</text>
        <text
           fill="#000000"
           stroke="none"
           font-family="Arial"
           font-size="24px"
           font-style="normal"
           font-weight="normal"
           text-decoration="none"
           x="586.291015625"
           y="329.5"
           id="text244">atualização</text>
      </g>
    </g>
    <g
       transform="translate(-501,-150) scale(1,1)"
       id="g252">
      <path
         fill="#ffeaad"
         stroke="none"
         d="M 527 479.5 L 647.91796875 384 L 768.8359375 479.5 L 647.91796875 575 L 527 479.5"
         id="path250" />
    </g>
    <g
       transform="translate(-501,-150) scale(1,1)"
       id="g256">
      <path
         fill="none"
         stroke="#000000"
         d="M 527 479.5 L 647.91796875 384 L 768.8359375 479.5 L 647.91796875 575 L 527 479.5 L 527 479.5"
         stroke-miterlimit="10"
         id="path254" />
    </g>
    <g
       transform="translate(-501,-150) scale(1,1)"
       id="g270">
      <g
         id="g268">
        <path
           fill="none"
           stroke="none"
           id="path258" />
        <text
           fill="#000000"
           stroke="none"
           font-family="Arial"
           font-size="24px"
           font-style="normal"
           font-weight="normal"
           text-decoration="none"
           x="589.875"
           y="455.5"
           id="text260">Bootloader</text>
        <text
           fill="#000000"
           stroke="none"
           font-family="Arial"
           font-size="24px"
           font-style="normal"
           font-weight="normal"
           text-decoration="none"
           x="634.5703125"
           y="479.5"
           id="text262">no</text>
        <text
           fill="#000000"
           stroke="none"
           font-family="Arial"
           font-size="24px"
           font-style="normal"
           font-weight="normal"
           text-decoration="none"
           x="588.544921875"
           y="503.5"
           id="text264">sub-estado</text>
        <text
           fill="#000000"
           stroke="none"
           font-family="Arial"
           font-size="24px"
           font-style="normal"
           font-weight="normal"
           text-decoration="none"
           x="587.208984375"
           y="527.5"
           id="text266">Recepção?</text>
      </g>
    </g>
    <g
       transform="translate(-501,-150) scale(1,1)"
       id="g274">
      <rect
         fill="#ffeaad"
         stroke="none"
         x="511"
         y="608"
         width="272"
         height="91"
         id="rect272" />
    </g>
    <g
       transform="translate(-501,-150) scale(1,1)"
       id="g278">
      <path
         fill="none"
         stroke="#000000"
         d="M 511 608 L 783 608 L 783 699 L 511 699 L 511 608 Z Z"
         stroke-miterlimit="10"
         id="path276" />
    </g>
    <g
       transform="translate(-501,-150) scale(1,1)"
       id="g290">
      <g
         id="g288">
        <path
           fill="none"
           stroke="none"
           id="path280" />
        <text
           fill="#000000"
           stroke="none"
           font-family="Arial"
           font-size="24px"
           font-style="normal"
           font-weight="normal"
           text-decoration="none"
           x="560.064453125"
           y="641.5"
           id="text282">Transfere dados</text>
        <text
           fill="#000000"
           stroke="none"
           font-family="Arial"
           font-size="24px"
           font-style="normal"
           font-weight="normal"
           text-decoration="none"
           x="534.2890625"
           y="665.5"
           id="text284">adicionais e firmware</text>
        <text
           fill="#000000"
           stroke="none"
           font-family="Arial"
           font-size="24px"
           font-style="normal"
           font-weight="normal"
           text-decoration="none"
           x="603.65234375"
           y="689.5"
           id="text286">corretos</text>
      </g>
    </g>
    <g
       transform="translate(-501,-150) scale(1,1)"
       id="g294">
      <path
         fill="#ffeaad"
         stroke="none"
         d="M 515 831.5 L 647 760 L 779 831.5 L 647 903 L 515 831.5"
         id="path292" />
    </g>
    <g
       transform="translate(-501,-150) scale(1,1)"
       id="g298">
      <path
         fill="none"
         stroke="#000000"
         d="M 515 831.5 L 647 760 L 779 831.5 L 647 903 L 515 831.5 L 515 831.5"
         stroke-miterlimit="10"
         id="path296" />
    </g>
    <g
       transform="translate(-501,-150) scale(1,1)"
       id="g310">
      <g
         id="g308">
        <path
           fill="none"
           stroke="none"
           id="path300" />
        <text
           fill="#000000"
           stroke="none"
           font-family="Arial"
           font-size="24px"
           font-style="normal"
           font-weight="normal"
           text-decoration="none"
           x="597.001953125"
           y="819.5"
           id="text302">Firmware</text>
        <text
           fill="#000000"
           stroke="none"
           font-family="Arial"
           font-size="24px"
           font-style="normal"
           font-weight="normal"
           text-decoration="none"
           x="592.970703125"
           y="843.5"
           id="text304">entrou em</text>
        <text
           fill="#000000"
           stroke="none"
           font-family="Arial"
           font-size="24px"
           font-style="normal"
           font-weight="normal"
           text-decoration="none"
           x="588.95703125"
           y="867.5"
           id="text306">execução?</text>
      </g>
    </g>
    <g
       transform="translate(-501,-150) scale(1,1)"
       id="g314">
      <path
         fill="none"
         stroke="#000000"
         d="M 648 575 L 648 608"
         stroke-miterlimit="10"
         id="path312" />
    </g>
    <g
       transform="translate(-501,-150) scale(1,1)"
       id="g318">
      <path
         fill="#000000"
         stroke="none"
         d="M 643.790482243984 597.8373251423759 L 648 608 L 652.209517756016 597.8373251423759"
         id="path316" />
    </g>
    <g
       transform="translate(-501,-150) scale(1,1)"
       id="g322">
      <path
         fill="none"
         stroke="#000000"
         d="M 643.790482243984 597.8373251423759 L 648 608 L 652.209517756016 597.8373251423759 L 643.790482243984 597.8373251423759"
         stroke-miterlimit="10"
         id="path320" />
    </g>
    <g
       transform="translate(-501,-150) scale(1,1)"
       id="g330">
      <g
         id="g328">
        <path
           fill="none"
           stroke="none"
           id="path324" />
        <text
           fill="#000000"
           stroke="none"
           font-family="Arial"
           font-size="20px"
           font-style="normal"
           font-weight="normal"
           text-decoration="none"
           x="662.5"
           y="602.5"
           id="text326">sim</text>
      </g>
    </g>
    <g
       transform="translate(-501,-150) scale(1,1)"
       id="g334">
      <path
         fill="none"
         stroke="#000000"
         d="M 648 203 L 648 248"
         stroke-miterlimit="10"
         id="path332" />
    </g>
    <g
       transform="translate(-501,-150) scale(1,1)"
       id="g338">
      <path
         fill="#000000"
         stroke="none"
         d="M 643.790482243984 237.83732514237585 L 648 248 L 652.209517756016 237.83732514237585"
         id="path336" />
    </g>
    <g
       transform="translate(-501,-150) scale(1,1)"
       id="g342">
      <path
         fill="none"
         stroke="#000000"
         d="M 643.790482243984 237.83732514237585 L 648 248 L 652.209517756016 237.83732514237585 L 643.790482243984 237.83732514237585"
         stroke-miterlimit="10"
         id="path340" />
    </g>
    <g
       transform="translate(-501,-150) scale(1,1)"
       id="g346">
      <path
         fill="none"
         stroke="#000000"
         d="M 648 699 L 648 760"
         stroke-miterlimit="10"
         id="path344" />
    </g>
    <g
       transform="translate(-501,-150) scale(1,1)"
       id="g350">
      <path
         fill="#000000"
         stroke="none"
         d="M 643.790482243984 749.8373251423759 L 648 760 L 652.209517756016 749.8373251423759"
         id="path348" />
    </g>
    <g
       transform="translate(-501,-150) scale(1,1)"
       id="g354">
      <path
         fill="none"
         stroke="#000000"
         d="M 643.790482243984 749.8373251423759 L 648 760 L 652.209517756016 749.8373251423759 L 643.790482243984 749.8373251423759"
         stroke-miterlimit="10"
         id="path352" />
    </g>
    <g
       transform="translate(-501,-150) scale(1,1)"
       id="g358">
      <path
         fill="none"
         stroke="#000000"
         d="M 648 339 L 648 384"
         stroke-miterlimit="10"
         id="path356" />
    </g>
    <g
       transform="translate(-501,-150) scale(1,1)"
       id="g362">
      <path
         fill="#000000"
         stroke="none"
         d="M 643.790482243984 373.83732514237585 L 648 384 L 652.209517756016 373.83732514237585"
         id="path360" />
    </g>
    <g
       transform="translate(-501,-150) scale(1,1)"
       id="g366">
      <path
         fill="none"
         stroke="#000000"
         d="M 643.790482243984 373.83732514237585 L 648 384 L 652.209517756016 373.83732514237585 L 643.790482243984 373.83732514237585"
         stroke-miterlimit="10"
         id="path364" />
    </g>
    <g
       transform="translate(-501,-150) scale(1,1)"
       id="g370">
      <path
         fill="#ffffff"
         stroke="none"
         d="M 888 838.5 C 888 830.4918704 895.835016 824 905.5 824 C 915.164984 824 923 830.4918704 923 838.5 C 923 846.5081296 915.164984 853 905.5 853 C 895.835016 853 888 846.5081296 888 838.5 Z"
         id="path368" />
    </g>
    <g
       transform="translate(-501,-150) scale(1,1)"
       id="g374">
      <path
         fill="none"
         stroke="#000000"
         d="M 888 838.5 C 888 830.4918704 895.835016 824 905.5 824 C 915.164984 824 923 830.4918704 923 838.5 C 923 846.5081296 915.164984 853 905.5 853 C 895.835016 853 888 846.5081296 888 838.5 Z"
         stroke-miterlimit="10"
         id="path372" />
    </g>
    <g
       transform="translate(-501,-150) scale(1,1)"
       id="g380">
      <g
         id="g378">
        <path
           fill="none"
           stroke="none"
           id="path376" />
      </g>
    </g>
    <g
       transform="translate(-501,-150) scale(1,1)"
       id="g384">
      <path
         fill="none"
         stroke="#000000"
         d="M 779 832 L 888 832"
         stroke-miterlimit="10"
         id="path382" />
    </g>
    <g
       transform="translate(-501,-150) scale(1,1)"
       id="g388">
      <path
         fill="#000000"
         stroke="none"
         d="M 877.8373251423759 836.209517756016 L 888 832 L 877.8373251423758 827.790482243984"
         id="path386" />
    </g>
    <g
       transform="translate(-501,-150) scale(1,1)"
       id="g392">
      <path
         fill="none"
         stroke="#000000"
         d="M 877.8373251423759 836.209517756016 L 888 832 L 877.8373251423758 827.790482243984 L 877.8373251423759 836.209517756016"
         stroke-miterlimit="10"
         id="path390" />
    </g>
    <g
       transform="translate(-501,-150) scale(1,1)"
       id="g400">
      <g
         id="g398">
        <path
           fill="none"
           stroke="none"
           id="path394" />
        <text
           fill="#000000"
           stroke="none"
           font-family="Arial"
           font-size="20px"
           font-style="normal"
           font-weight="normal"
           text-decoration="none"
           x="816.5"
           y="826.5"
           id="text396">não</text>
      </g>
    </g>
    <g
       transform="translate(-501,-150) scale(1,1)"
       id="g404">
      <path
         fill="none"
         stroke="#000000"
         d="M 769 480 L 896 480 M 896 480 A 8 8 0 0 1 904 488 L 904 824"
         stroke-miterlimit="10"
         id="path402" />
    </g>
    <g
       transform="translate(-501,-150) scale(1,1)"
       id="g408">
      <path
         fill="#000000"
         stroke="none"
         d="M 899.790482243984 813.8373251423759 L 904 824 L 908.209517756016 813.8373251423759"
         id="path406" />
    </g>
    <g
       transform="translate(-501,-150) scale(1,1)"
       id="g412">
      <path
         fill="none"
         stroke="#000000"
         d="M 899.790482243984 813.8373251423759 L 904 824 L 908.209517756016 813.8373251423759 L 899.790482243984 813.8373251423759"
         stroke-miterlimit="10"
         id="path410" />
    </g>
    <g
       transform="translate(-501,-150) scale(1,1)"
       id="g420">
      <g
         id="g418">
        <path
           fill="none"
           stroke="none"
           id="path414" />
        <text
           fill="#000000"
           stroke="none"
           font-family="Arial"
           font-size="20px"
           font-style="normal"
           font-weight="normal"
           text-decoration="none"
           x="815.5"
           y="465.5"
           id="text416">não</text>
      </g>
    </g>
    <g
       transform="translate(-501,-150) scale(1,1)"
       id="g424">
      <rect
         fill="#ffeaad"
         stroke="none"
         x="592"
         y="968"
         width="119.04296875"
         height="43"
         id="rect422" />
    </g>
    <g
       transform="translate(-501,-150) scale(1,1)"
       id="g428">
      <path
         fill="none"
         stroke="#000000"
         d="M 592 968 L 711.04296875 968 L 711.04296875 1011 L 592 1011 L 592 968 Z Z"
         stroke-miterlimit="10"
         id="path426" />
    </g>
    <g
       transform="translate(-501,-150) scale(1,1)"
       id="g436">
      <g
         id="g434">
        <path
           fill="none"
           stroke="none"
           id="path430" />
        <text
           fill="#000000"
           stroke="none"
           font-family="Arial"
           font-size="24px"
           font-style="normal"
           font-weight="normal"
           text-decoration="none"
           x="605.49609375"
           y="1001.5"
           id="text432">Sucesso</text>
      </g>
    </g>
    <g
       transform="translate(-501,-150) scale(1,1)"
       id="g440">
      <rect
         fill="#ffeaad"
         stroke="none"
         x="848"
         y="968"
         width="119.04296875"
         height="43"
         id="rect438" />
    </g>
    <g
       transform="translate(-501,-150) scale(1,1)"
       id="g444">
      <path
         fill="none"
         stroke="#000000"
         d="M 848 968 L 967.04296875 968 L 967.04296875 1011 L 848 1011 L 848 968 Z Z"
         stroke-miterlimit="10"
         id="path442" />
    </g>
    <g
       transform="translate(-501,-150) scale(1,1)"
       id="g452">
      <g
         id="g450">
        <path
           fill="none"
           stroke="none"
           id="path446" />
        <text
           fill="#000000"
           stroke="none"
           font-family="Arial"
           font-size="24px"
           font-style="normal"
           font-weight="normal"
           text-decoration="none"
           x="877.50390625"
           y="1001.5"
           id="text448">Falha</text>
      </g>
    </g>
    <g
       transform="translate(-501,-150) scale(1,1)"
       id="g456">
      <path
         fill="#ffeaad"
         stroke="none"
         d="M 606 1120 L 707.71484375 1120 Q 729.71484375 1120 729.71484375 1142 L 729.71484375 1141 Q 729.71484375 1163 707.71484375 1163 L 606 1163 Q 584 1163 584 1141 L 584 1142 Q 584 1120 606 1120 Z"
         id="path454" />
    </g>
    <g
       transform="translate(-501,-150) scale(1,1)"
       id="g460">
      <path
         fill="none"
         stroke="#000000"
         d="M 606 1120 L 707.71484375 1120 Q 729.71484375 1120 729.71484375 1142 L 729.71484375 1141 Q 729.71484375 1163 707.71484375 1163 L 606 1163 Q 584 1163 584 1141 L 584 1142 Q 584 1120 606 1120 Z"
         stroke-miterlimit="10"
         id="path458" />
    </g>
    <g
       transform="translate(-501,-150) scale(1,1)"
       id="g468">
      <g
         id="g466">
        <path
           fill="none"
           stroke="none"
           id="path462" />
        <text
           fill="#000000"
           stroke="none"
           font-family="Arial"
           font-size="24px"
           font-style="normal"
           font-weight="normal"
           text-decoration="none"
           x="636.865234375"
           y="1153.5"
           id="text464">Fim</text>
      </g>
    </g>
    <g
       transform="translate(-501,-150) scale(1,1)"
       id="g472">
      <path
         fill="#ffffff"
         stroke="none"
         d="M 632 1062.5 C 632 1054.4918704 640.954304 1048 652 1048 C 663.045696 1048 672 1054.4918704 672 1062.5 C 672 1070.5081296 663.045696 1077 652 1077 C 640.954304 1077 632 1070.5081296 632 1062.5 Z"
         id="path470" />
    </g>
    <g
       transform="translate(-501,-150) scale(1,1)"
       id="g476">
      <path
         fill="none"
         stroke="#000000"
         d="M 632 1062.5 C 632 1054.4918704 640.954304 1048 652 1048 C 663.045696 1048 672 1054.4918704 672 1062.5 C 672 1070.5081296 663.045696 1077 652 1077 C 640.954304 1077 632 1070.5081296 632 1062.5 Z"
         stroke-miterlimit="10"
         id="path474" />
    </g>
    <g
       transform="translate(-501,-150) scale(1,1)"
       id="g482">
      <g
         id="g480">
        <path
           fill="none"
           stroke="none"
           id="path478" />
      </g>
    </g>
    <g
       transform="translate(-501,-150) scale(1,1)"
       id="g486">
      <path
         fill="none"
         stroke="#000000"
         d="M 645 903 L 645 968"
         stroke-miterlimit="10"
         id="path484" />
    </g>
    <g
       transform="translate(-501,-150) scale(1,1)"
       id="g490">
      <path
         fill="#000000"
         stroke="none"
         d="M 640.790482243984 957.8373251423759 L 645 968 L 649.209517756016 957.8373251423759"
         id="path488" />
    </g>
    <g
       transform="translate(-501,-150) scale(1,1)"
       id="g494">
      <path
         fill="none"
         stroke="#000000"
         d="M 640.790482243984 957.8373251423759 L 645 968 L 649.209517756016 957.8373251423759 L 640.790482243984 957.8373251423759"
         stroke-miterlimit="10"
         id="path492" />
    </g>
    <g
       transform="translate(-501,-150) scale(1,1)"
       id="g502">
      <g
         id="g500">
        <path
           fill="none"
           stroke="none"
           id="path496" />
        <text
           fill="#000000"
           stroke="none"
           font-family="Arial"
           font-size="20px"
           font-style="normal"
           font-weight="normal"
           text-decoration="none"
           x="655.5"
           y="942.5"
           id="text498">sim</text>
      </g>
    </g>
    <g
       transform="translate(-501,-150) scale(1,1)"
       id="g506">
      <path
         fill="none"
         stroke="#000000"
         d="M 648 1011 L 648 1048"
         stroke-miterlimit="10"
         id="path504" />
    </g>
    <g
       transform="translate(-501,-150) scale(1,1)"
       id="g510">
      <path
         fill="#000000"
         stroke="none"
         d="M 643.790482243984 1037.837325142376 L 648 1048 L 652.209517756016 1037.837325142376"
         id="path508" />
    </g>
    <g
       transform="translate(-501,-150) scale(1,1)"
       id="g514">
      <path
         fill="none"
         stroke="#000000"
         d="M 643.790482243984 1037.837325142376 L 648 1048 L 652.209517756016 1037.837325142376 L 643.790482243984 1037.837325142376"
         stroke-miterlimit="10"
         id="path512" />
    </g>
    <g
       transform="translate(-501,-150) scale(1,1)"
       id="g518">
      <path
         fill="none"
         stroke="#000000"
         d="M 648 1077 L 648 1120"
         stroke-miterlimit="10"
         id="path516" />
    </g>
    <g
       transform="translate(-501,-150) scale(1,1)"
       id="g522">
      <path
         fill="#000000"
         stroke="none"
         d="M 643.790482243984 1109.837325142376 L 648 1120 L 652.209517756016 1109.837325142376"
         id="path520" />
    </g>
    <g
       transform="translate(-501,-150) scale(1,1)"
       id="g526">
      <path
         fill="none"
         stroke="#000000"
         d="M 643.790482243984 1109.837325142376 L 648 1120 L 652.209517756016 1109.837325142376 L 643.790482243984 1109.837325142376"
         stroke-miterlimit="10"
         id="path524" />
    </g>
    <g
       transform="translate(-501,-150) scale(1,1)"
       id="g530">
      <path
         fill="none"
         stroke="#000000"
         d="M 909 853 L 909 968"
         stroke-miterlimit="10"
         id="path528" />
    </g>
    <g
       transform="translate(-501,-150) scale(1,1)"
       id="g534">
      <path
         fill="#000000"
         stroke="none"
         d="M 904.790482243984 957.8373251423759 L 909 968 L 913.209517756016 957.8373251423759"
         id="path532" />
    </g>
    <g
       transform="translate(-501,-150) scale(1,1)"
       id="g538">
      <path
         fill="none"
         stroke="#000000"
         d="M 904.790482243984 957.8373251423759 L 909 968 L 913.209517756016 957.8373251423759 L 904.790482243984 957.8373251423759"
         stroke-miterlimit="10"
         id="path536" />
    </g>
    <g
       transform="translate(-501,-150) scale(1,1)"
       id="g542">
      <path
         fill="none"
         stroke="#000000"
         d="M 912 1011 L 912 1056 M 912 1056 A 8 8 0 0 1 904 1064 L 672 1064"
         stroke-miterlimit="10"
         id="path540" />
    </g>
    <g
       transform="translate(-501,-150) scale(1,1)"
       id="g546">
      <path
         fill="#000000"
         stroke="none"
         d="M 682.1626748576241 1059.7904822439841 L 672 1064 L 682.1626748576241 1068.2095177560159"
         id="path544" />
    </g>
    <g
       transform="translate(-501,-150) scale(1,1)"
       id="g550">
      <path
         fill="none"
         stroke="#000000"
         d="M 682.1626748576241 1059.7904822439841 L 672 1064 L 682.1626748576241 1068.2095177560159 L 682.1626748576241 1059.7904822439841"
         stroke-miterlimit="10"
         id="path548" />
    </g>
  </g>
</svg>
