<svg version="1.1" xmlns="http://www.w3.org/2000/svg" xmlns:xlink="http://www.w3.org/1999/xlink" width="1244" height="460"><defs/><g><text fill="#eeeeee" stroke="none" font-family="Arial" font-size="24px" font-style="normal" font-weight="normal" text-decoration="none" x="0" y="0">UNREGISTERED</text><text fill="#eeeeee" stroke="none" font-family="Arial" font-size="24px" font-style="normal" font-weight="normal" text-decoration="none" x="0" y="30">UNREGISTERED</text><text fill="#eeeeee" stroke="none" font-family="Arial" font-size="24px" font-style="normal" font-weight="normal" text-decoration="none" x="0" y="60">UNREGISTERED</text><text fill="#eeeeee" stroke="none" font-family="Arial" font-size="24px" font-style="normal" font-weight="normal" text-decoration="none" x="0" y="90">UNREGISTERED</text><text fill="#eeeeee" stroke="none" font-family="Arial" font-size="24px" font-style="normal" font-weight="normal" text-decoration="none" x="0" y="120">UNREGISTERED</text><text fill="#eeeeee" stroke="none" font-family="Arial" font-size="24px" font-style="normal" font-weight="normal" text-decoration="none" x="0" y="150">UNREGISTERED</text><text fill="#eeeeee" stroke="none" font-family="Arial" font-size="24px" font-style="normal" font-weight="normal" text-decoration="none" x="0" y="180">UNREGISTERED</text><text fill="#eeeeee" stroke="none" font-family="Arial" font-size="24px" font-style="normal" font-weight="normal" text-decoration="none" x="0" y="210">UNREGISTERED</text><text fill="#eeeeee" stroke="none" font-family="Arial" font-size="24px" font-style="normal" font-weight="normal" text-decoration="none" x="0" y="240">UNREGISTERED</text><text fill="#eeeeee" stroke="none" font-family="Arial" font-size="24px" font-style="normal" font-weight="normal" text-decoration="none" x="0" y="270">UNREGISTERED</text><text fill="#eeeeee" stroke="none" font-family="Arial" font-size="24px" font-style="normal" font-weight="normal" text-decoration="none" x="0" y="300">UNREGISTERED</text><text fill="#eeeeee" stroke="none" font-family="Arial" font-size="24px" font-style="normal" font-weight="normal" text-decoration="none" x="0" y="330">UNREGISTERED</text><text fill="#eeeeee" stroke="none" font-family="Arial" font-size="24px" font-style="normal" font-weight="normal" text-decoration="none" x="0" y="360">UNREGISTERED</text><text fill="#eeeeee" stroke="none" font-family="Arial" font-size="24px" font-style="normal" font-weight="normal" text-decoration="none" x="0" y="390">UNREGISTERED</text><text fill="#eeeeee" stroke="none" font-family="Arial" font-size="24px" font-style="normal" font-weight="normal" text-decoration="none" x="0" y="420">UNREGISTERED</text><text fill="#eeeeee" stroke="none" font-family="Arial" font-size="24px" font-style="normal" font-weight="normal" text-decoration="none" x="0" y="450">UNREGISTERED</text><text fill="#eeeeee" stroke="none" font-family="Arial" font-size="24px" font-style="normal" font-weight="normal" text-decoration="none" x="200" y="0">UNREGISTERED</text><text fill="#eeeeee" stroke="none" font-family="Arial" font-size="24px" font-style="normal" font-weight="normal" text-decoration="none" x="200" y="30">UNREGISTERED</text><text fill="#eeeeee" stroke="none" font-family="Arial" font-size="24px" font-style="normal" font-weight="normal" text-decoration="none" x="200" y="60">UNREGISTERED</text><text fill="#eeeeee" stroke="none" font-family="Arial" font-size="24px" font-style="normal" font-weight="normal" text-decoration="none" x="200" y="90">UNREGISTERED</text><text fill="#eeeeee" stroke="none" font-family="Arial" font-size="24px" font-style="normal" font-weight="normal" text-decoration="none" x="200" y="120">UNREGISTERED</text><text fill="#eeeeee" stroke="none" font-family="Arial" font-size="24px" font-style="normal" font-weight="normal" text-decoration="none" x="200" y="150">UNREGISTERED</text><text fill="#eeeeee" stroke="none" font-family="Arial" font-size="24px" font-style="normal" font-weight="normal" text-decoration="none" x="200" y="180">UNREGISTERED</text><text fill="#eeeeee" stroke="none" font-family="Arial" font-size="24px" font-style="normal" font-weight="normal" text-decoration="none" x="200" y="210">UNREGISTERED</text><text fill="#eeeeee" stroke="none" font-family="Arial" font-size="24px" font-style="normal" font-weight="normal" text-decoration="none" x="200" y="240">UNREGISTERED</text><text fill="#eeeeee" stroke="none" font-family="Arial" font-size="24px" font-style="normal" font-weight="normal" text-decoration="none" x="200" y="270">UNREGISTERED</text><text fill="#eeeeee" stroke="none" font-family="Arial" font-size="24px" font-style="normal" font-weight="normal" text-decoration="none" x="200" y="300">UNREGISTERED</text><text fill="#eeeeee" stroke="none" font-family="Arial" font-size="24px" font-style="normal" font-weight="normal" text-decoration="none" x="200" y="330">UNREGISTERED</text><text fill="#eeeeee" stroke="none" font-family="Arial" font-size="24px" font-style="normal" font-weight="normal" text-decoration="none" x="200" y="360">UNREGISTERED</text><text fill="#eeeeee" stroke="none" font-family="Arial" font-size="24px" font-style="normal" font-weight="normal" text-decoration="none" x="200" y="390">UNREGISTERED</text><text fill="#eeeeee" stroke="none" font-family="Arial" font-size="24px" font-style="normal" font-weight="normal" text-decoration="none" x="200" y="420">UNREGISTERED</text><text fill="#eeeeee" stroke="none" font-family="Arial" font-size="24px" font-style="normal" font-weight="normal" text-decoration="none" x="200" y="450">UNREGISTERED</text><text fill="#eeeeee" stroke="none" font-family="Arial" font-size="24px" font-style="normal" font-weight="normal" text-decoration="none" x="400" y="0">UNREGISTERED</text><text fill="#eeeeee" stroke="none" font-family="Arial" font-size="24px" font-style="normal" font-weight="normal" text-decoration="none" x="400" y="30">UNREGISTERED</text><text fill="#eeeeee" stroke="none" font-family="Arial" font-size="24px" font-style="normal" font-weight="normal" text-decoration="none" x="400" y="60">UNREGISTERED</text><text fill="#eeeeee" stroke="none" font-family="Arial" font-size="24px" font-style="normal" font-weight="normal" text-decoration="none" x="400" y="90">UNREGISTERED</text><text fill="#eeeeee" stroke="none" font-family="Arial" font-size="24px" font-style="normal" font-weight="normal" text-decoration="none" x="400" y="120">UNREGISTERED</text><text fill="#eeeeee" stroke="none" font-family="Arial" font-size="24px" font-style="normal" font-weight="normal" text-decoration="none" x="400" y="150">UNREGISTERED</text><text fill="#eeeeee" stroke="none" font-family="Arial" font-size="24px" font-style="normal" font-weight="normal" text-decoration="none" x="400" y="180">UNREGISTERED</text><text fill="#eeeeee" stroke="none" font-family="Arial" font-size="24px" font-style="normal" font-weight="normal" text-decoration="none" x="400" y="210">UNREGISTERED</text><text fill="#eeeeee" stroke="none" font-family="Arial" font-size="24px" font-style="normal" font-weight="normal" text-decoration="none" x="400" y="240">UNREGISTERED</text><text fill="#eeeeee" stroke="none" font-family="Arial" font-size="24px" font-style="normal" font-weight="normal" text-decoration="none" x="400" y="270">UNREGISTERED</text><text fill="#eeeeee" stroke="none" font-family="Arial" font-size="24px" font-style="normal" font-weight="normal" text-decoration="none" x="400" y="300">UNREGISTERED</text><text fill="#eeeeee" stroke="none" font-family="Arial" font-size="24px" font-style="normal" font-weight="normal" text-decoration="none" x="400" y="330">UNREGISTERED</text><text fill="#eeeeee" stroke="none" font-family="Arial" font-size="24px" font-style="normal" font-weight="normal" text-decoration="none" x="400" y="360">UNREGISTERED</text><text fill="#eeeeee" stroke="none" font-family="Arial" font-size="24px" font-style="normal" font-weight="normal" text-decoration="none" x="400" y="390">UNREGISTERED</text><text fill="#eeeeee" stroke="none" font-family="Arial" font-size="24px" font-style="normal" font-weight="normal" text-decoration="none" x="400" y="420">UNREGISTERED</text><text fill="#eeeeee" stroke="none" font-family="Arial" font-size="24px" font-style="normal" font-weight="normal" text-decoration="none" x="400" y="450">UNREGISTERED</text><text fill="#eeeeee" stroke="none" font-family="Arial" font-size="24px" font-style="normal" font-weight="normal" text-decoration="none" x="600" y="0">UNREGISTERED</text><text fill="#eeeeee" stroke="none" font-family="Arial" font-size="24px" font-style="normal" font-weight="normal" text-decoration="none" x="600" y="30">UNREGISTERED</text><text fill="#eeeeee" stroke="none" font-family="Arial" font-size="24px" font-style="normal" font-weight="normal" text-decoration="none" x="600" y="60">UNREGISTERED</text><text fill="#eeeeee" stroke="none" font-family="Arial" font-size="24px" font-style="normal" font-weight="normal" text-decoration="none" x="600" y="90">UNREGISTERED</text><text fill="#eeeeee" stroke="none" font-family="Arial" font-size="24px" font-style="normal" font-weight="normal" text-decoration="none" x="600" y="120">UNREGISTERED</text><text fill="#eeeeee" stroke="none" font-family="Arial" font-size="24px" font-style="normal" font-weight="normal" text-decoration="none" x="600" y="150">UNREGISTERED</text><text fill="#eeeeee" stroke="none" font-family="Arial" font-size="24px" font-style="normal" font-weight="normal" text-decoration="none" x="600" y="180">UNREGISTERED</text><text fill="#eeeeee" stroke="none" font-family="Arial" font-size="24px" font-style="normal" font-weight="normal" text-decoration="none" x="600" y="210">UNREGISTERED</text><text fill="#eeeeee" stroke="none" font-family="Arial" font-size="24px" font-style="normal" font-weight="normal" text-decoration="none" x="600" y="240">UNREGISTERED</text><text fill="#eeeeee" stroke="none" font-family="Arial" font-size="24px" font-style="normal" font-weight="normal" text-decoration="none" x="600" y="270">UNREGISTERED</text><text fill="#eeeeee" stroke="none" font-family="Arial" font-size="24px" font-style="normal" font-weight="normal" text-decoration="none" x="600" y="300">UNREGISTERED</text><text fill="#eeeeee" stroke="none" font-family="Arial" font-size="24px" font-style="normal" font-weight="normal" text-decoration="none" x="600" y="330">UNREGISTERED</text><text fill="#eeeeee" stroke="none" font-family="Arial" font-size="24px" font-style="normal" font-weight="normal" text-decoration="none" x="600" y="360">UNREGISTERED</text><text fill="#eeeeee" stroke="none" font-family="Arial" font-size="24px" font-style="normal" font-weight="normal" text-decoration="none" x="600" y="390">UNREGISTERED</text><text fill="#eeeeee" stroke="none" font-family="Arial" font-size="24px" font-style="normal" font-weight="normal" text-decoration="none" x="600" y="420">UNREGISTERED</text><text fill="#eeeeee" stroke="none" font-family="Arial" font-size="24px" font-style="normal" font-weight="normal" text-decoration="none" x="600" y="450">UNREGISTERED</text><text fill="#eeeeee" stroke="none" font-family="Arial" font-size="24px" font-style="normal" font-weight="normal" text-decoration="none" x="800" y="0">UNREGISTERED</text><text fill="#eeeeee" stroke="none" font-family="Arial" font-size="24px" font-style="normal" font-weight="normal" text-decoration="none" x="800" y="30">UNREGISTERED</text><text fill="#eeeeee" stroke="none" font-family="Arial" font-size="24px" font-style="normal" font-weight="normal" text-decoration="none" x="800" y="60">UNREGISTERED</text><text fill="#eeeeee" stroke="none" font-family="Arial" font-size="24px" font-style="normal" font-weight="normal" text-decoration="none" x="800" y="90">UNREGISTERED</text><text fill="#eeeeee" stroke="none" font-family="Arial" font-size="24px" font-style="normal" font-weight="normal" text-decoration="none" x="800" y="120">UNREGISTERED</text><text fill="#eeeeee" stroke="none" font-family="Arial" font-size="24px" font-style="normal" font-weight="normal" text-decoration="none" x="800" y="150">UNREGISTERED</text><text fill="#eeeeee" stroke="none" font-family="Arial" font-size="24px" font-style="normal" font-weight="normal" text-decoration="none" x="800" y="180">UNREGISTERED</text><text fill="#eeeeee" stroke="none" font-family="Arial" font-size="24px" font-style="normal" font-weight="normal" text-decoration="none" x="800" y="210">UNREGISTERED</text><text fill="#eeeeee" stroke="none" font-family="Arial" font-size="24px" font-style="normal" font-weight="normal" text-decoration="none" x="800" y="240">UNREGISTERED</text><text fill="#eeeeee" stroke="none" font-family="Arial" font-size="24px" font-style="normal" font-weight="normal" text-decoration="none" x="800" y="270">UNREGISTERED</text><text fill="#eeeeee" stroke="none" font-family="Arial" font-size="24px" font-style="normal" font-weight="normal" text-decoration="none" x="800" y="300">UNREGISTERED</text><text fill="#eeeeee" stroke="none" font-family="Arial" font-size="24px" font-style="normal" font-weight="normal" text-decoration="none" x="800" y="330">UNREGISTERED</text><text fill="#eeeeee" stroke="none" font-family="Arial" font-size="24px" font-style="normal" font-weight="normal" text-decoration="none" x="800" y="360">UNREGISTERED</text><text fill="#eeeeee" stroke="none" font-family="Arial" font-size="24px" font-style="normal" font-weight="normal" text-decoration="none" x="800" y="390">UNREGISTERED</text><text fill="#eeeeee" stroke="none" font-family="Arial" font-size="24px" font-style="normal" font-weight="normal" text-decoration="none" x="800" y="420">UNREGISTERED</text><text fill="#eeeeee" stroke="none" font-family="Arial" font-size="24px" font-style="normal" font-weight="normal" text-decoration="none" x="800" y="450">UNREGISTERED</text><text fill="#eeeeee" stroke="none" font-family="Arial" font-size="24px" font-style="normal" font-weight="normal" text-decoration="none" x="1000" y="0">UNREGISTERED</text><text fill="#eeeeee" stroke="none" font-family="Arial" font-size="24px" font-style="normal" font-weight="normal" text-decoration="none" x="1000" y="30">UNREGISTERED</text><text fill="#eeeeee" stroke="none" font-family="Arial" font-size="24px" font-style="normal" font-weight="normal" text-decoration="none" x="1000" y="60">UNREGISTERED</text><text fill="#eeeeee" stroke="none" font-family="Arial" font-size="24px" font-style="normal" font-weight="normal" text-decoration="none" x="1000" y="90">UNREGISTERED</text><text fill="#eeeeee" stroke="none" font-family="Arial" font-size="24px" font-style="normal" font-weight="normal" text-decoration="none" x="1000" y="120">UNREGISTERED</text><text fill="#eeeeee" stroke="none" font-family="Arial" font-size="24px" font-style="normal" font-weight="normal" text-decoration="none" x="1000" y="150">UNREGISTERED</text><text fill="#eeeeee" stroke="none" font-family="Arial" font-size="24px" font-style="normal" font-weight="normal" text-decoration="none" x="1000" y="180">UNREGISTERED</text><text fill="#eeeeee" stroke="none" font-family="Arial" font-size="24px" font-style="normal" font-weight="normal" text-decoration="none" x="1000" y="210">UNREGISTERED</text><text fill="#eeeeee" stroke="none" font-family="Arial" font-size="24px" font-style="normal" font-weight="normal" text-decoration="none" x="1000" y="240">UNREGISTERED</text><text fill="#eeeeee" stroke="none" font-family="Arial" font-size="24px" font-style="normal" font-weight="normal" text-decoration="none" x="1000" y="270">UNREGISTERED</text><text fill="#eeeeee" stroke="none" font-family="Arial" font-size="24px" font-style="normal" font-weight="normal" text-decoration="none" x="1000" y="300">UNREGISTERED</text><text fill="#eeeeee" stroke="none" font-family="Arial" font-size="24px" font-style="normal" font-weight="normal" text-decoration="none" x="1000" y="330">UNREGISTERED</text><text fill="#eeeeee" stroke="none" font-family="Arial" font-size="24px" font-style="normal" font-weight="normal" text-decoration="none" x="1000" y="360">UNREGISTERED</text><text fill="#eeeeee" stroke="none" font-family="Arial" font-size="24px" font-style="normal" font-weight="normal" text-decoration="none" x="1000" y="390">UNREGISTERED</text><text fill="#eeeeee" stroke="none" font-family="Arial" font-size="24px" font-style="normal" font-weight="normal" text-decoration="none" x="1000" y="420">UNREGISTERED</text><text fill="#eeeeee" stroke="none" font-family="Arial" font-size="24px" font-style="normal" font-weight="normal" text-decoration="none" x="1000" y="450">UNREGISTERED</text><text fill="#eeeeee" stroke="none" font-family="Arial" font-size="24px" font-style="normal" font-weight="normal" text-decoration="none" x="1200" y="0">UNREGISTERED</text><text fill="#eeeeee" stroke="none" font-family="Arial" font-size="24px" font-style="normal" font-weight="normal" text-decoration="none" x="1200" y="30">UNREGISTERED</text><text fill="#eeeeee" stroke="none" font-family="Arial" font-size="24px" font-style="normal" font-weight="normal" text-decoration="none" x="1200" y="60">UNREGISTERED</text><text fill="#eeeeee" stroke="none" font-family="Arial" font-size="24px" font-style="normal" font-weight="normal" text-decoration="none" x="1200" y="90">UNREGISTERED</text><text fill="#eeeeee" stroke="none" font-family="Arial" font-size="24px" font-style="normal" font-weight="normal" text-decoration="none" x="1200" y="120">UNREGISTERED</text><text fill="#eeeeee" stroke="none" font-family="Arial" font-size="24px" font-style="normal" font-weight="normal" text-decoration="none" x="1200" y="150">UNREGISTERED</text><text fill="#eeeeee" stroke="none" font-family="Arial" font-size="24px" font-style="normal" font-weight="normal" text-decoration="none" x="1200" y="180">UNREGISTERED</text><text fill="#eeeeee" stroke="none" font-family="Arial" font-size="24px" font-style="normal" font-weight="normal" text-decoration="none" x="1200" y="210">UNREGISTERED</text><text fill="#eeeeee" stroke="none" font-family="Arial" font-size="24px" font-style="normal" font-weight="normal" text-decoration="none" x="1200" y="240">UNREGISTERED</text><text fill="#eeeeee" stroke="none" font-family="Arial" font-size="24px" font-style="normal" font-weight="normal" text-decoration="none" x="1200" y="270">UNREGISTERED</text><text fill="#eeeeee" stroke="none" font-family="Arial" font-size="24px" font-style="normal" font-weight="normal" text-decoration="none" x="1200" y="300">UNREGISTERED</text><text fill="#eeeeee" stroke="none" font-family="Arial" font-size="24px" font-style="normal" font-weight="normal" text-decoration="none" x="1200" y="330">UNREGISTERED</text><text fill="#eeeeee" stroke="none" font-family="Arial" font-size="24px" font-style="normal" font-weight="normal" text-decoration="none" x="1200" y="360">UNREGISTERED</text><text fill="#eeeeee" stroke="none" font-family="Arial" font-size="24px" font-style="normal" font-weight="normal" text-decoration="none" x="1200" y="390">UNREGISTERED</text><text fill="#eeeeee" stroke="none" font-family="Arial" font-size="24px" font-style="normal" font-weight="normal" text-decoration="none" x="1200" y="420">UNREGISTERED</text><text fill="#eeeeee" stroke="none" font-family="Arial" font-size="24px" font-style="normal" font-weight="normal" text-decoration="none" x="1200" y="450">UNREGISTERED</text><g transform="translate(-622,-622) scale(1,1)"><path fill="none" stroke="#000000" d="M 632 632 L 1856 632 L 1856 1072 L 632 1072 L 632 632" stroke-miterlimit="10"/></g><g transform="translate(-622,-622) scale(1,1)"><path fill="#ffffff" stroke="none" d="M 632 632 L 632 661 L 871.759765625 661 L 886.259765625 646.5 L 886.259765625 632 L 632 632"/></g><g transform="translate(-622,-622) scale(1,1)"><path fill="none" stroke="#000000" d="M 632 632 L 632 661 L 871.759765625 661 L 886.259765625 646.5 L 886.259765625 632 L 632 632 L 632 632" stroke-miterlimit="10"/></g><g transform="translate(-622,-622) scale(1,1)"><g><path fill="none" stroke="none"/><text fill="#000000" stroke="none" font-family="Roboto" font-size="20px" font-style="normal" font-weight="normal" text-decoration="none" x="769.181640625" y="656.5">Bootloader</text></g></g><g transform="translate(-622,-622) scale(1,1)"><g><path fill="none" stroke="none"/><text fill="#000000" stroke="none" font-family="Roboto" font-size="20px" font-style="normal" font-weight="bold" text-decoration="none" x="637" y="656.5">state machine</text></g></g><g transform="translate(-622,-622) scale(1,1)"><path fill="#C0C0C0" stroke="none" d="M 801 717 L 958 717 Q 968 717 968 727 L 968 755 Q 968 765 958 765 L 801 765 Q 791 765 791 755 L 791 727 Q 791 717 801 717 Z" opacity="0.2"/></g><g transform="translate(-622,-622) scale(1,1)"><path fill="#ffeaad" stroke="none" d="M 794 710 L 951 710 Q 961 710 961 720 L 961 748 Q 961 758 951 758 L 794 758 Q 784 758 784 748 L 784 720 Q 784 710 794 710 Z"/></g><g transform="translate(-622,-622) scale(1,1)"><path fill="none" stroke="#000000" d="M 794 710 L 951 710 Q 961 710 961 720 L 961 748 Q 961 758 951 758 L 794 758 Q 784 758 784 748 L 784 720 Q 784 710 794 710 Z" stroke-miterlimit="10"/></g><g transform="translate(-622,-622) scale(1,1)"><g><path fill="none" stroke="none"/><text fill="#000000" stroke="none" font-family="Roboto" font-size="26px" font-style="normal" font-weight="bold" text-decoration="none" x="807.703125" y="742.5">Verificação</text></g></g><g transform="translate(-622,-622) scale(1,1)"><path fill="#C0C0C0" stroke="none" d="M 1249 656 L 1829 656 Q 1839 656 1839 666 L 1839 1046 Q 1839 1056 1829 1056 L 1249 1056 Q 1239 1056 1239 1046 L 1239 666 Q 1239 656 1249 656 Z" opacity="0.2"/></g><g transform="translate(-622,-622) scale(1,1)"><path fill="#ffeaad" stroke="none" d="M 1242 649 L 1822 649 Q 1832 649 1832 659 L 1832 1039 Q 1832 1049 1822 1049 L 1242 1049 Q 1232 1049 1232 1039 L 1232 659 Q 1232 649 1242 649 Z"/></g><g transform="translate(-622,-622) scale(1,1)"><path fill="none" stroke="#000000" d="M 1242 649 L 1822 649 Q 1832 649 1832 659 L 1832 1039 Q 1832 1049 1822 1049 L 1242 1049 Q 1232 1049 1232 1039 L 1232 659 Q 1232 649 1242 649 Z" stroke-miterlimit="10"/></g><g transform="translate(-622,-622) scale(1,1)"><path fill="none" stroke="#000000" d="M 1232 687 L 1832 687" stroke-miterlimit="10"/></g><g transform="translate(-622,-622) scale(1,1)"><g><path fill="none" stroke="none"/><text fill="#000000" stroke="none" font-family="Roboto" font-size="26px" font-style="normal" font-weight="bold" text-decoration="none" x="1464.029296875" y="681.5">Atualização</text></g></g><g transform="translate(-622,-622) scale(1,1)"><path fill="#C0C0C0" stroke="none" d="M 801 927 L 958 927 Q 968 927 968 937 L 968 965 Q 968 975 958 975 L 801 975 Q 791 975 791 965 L 791 937 Q 791 927 801 927 Z" opacity="0.2"/></g><g transform="translate(-622,-622) scale(1,1)"><path fill="#ffeaad" stroke="none" d="M 794 920 L 951 920 Q 961 920 961 930 L 961 958 Q 961 968 951 968 L 794 968 Q 784 968 784 958 L 784 930 Q 784 920 794 920 Z"/></g><g transform="translate(-622,-622) scale(1,1)"><path fill="none" stroke="#000000" d="M 794 920 L 951 920 Q 961 920 961 930 L 961 958 Q 961 968 951 968 L 794 968 Q 784 968 784 958 L 784 930 Q 784 920 794 920 Z" stroke-miterlimit="10"/></g><g transform="translate(-622,-622) scale(1,1)"><g><path fill="none" stroke="none"/><text fill="#000000" stroke="none" font-family="Roboto" font-size="26px" font-style="normal" font-weight="bold" text-decoration="none" x="798.09912109375" y="952.5">Confirmação</text></g></g><g transform="translate(-622,-622) scale(1,1)"><path fill="#C0C0C0" stroke="none" d="M 895 664.5 C 895 659.2532944 899.2532944 655 904.5 655 C 909.7467056 655 914 659.2532944 914 664.5 C 914 669.7467056 909.7467056 674 904.5 674 C 899.2532944 674 895 669.7467056 895 664.5 Z" opacity="0.2"/></g><g transform="translate(-622,-622) scale(1,1)"><path fill="#000000" stroke="none" d="M 888 657.5 C 888 652.2532944 892.2532944 648 897.5 648 C 902.7467056 648 907 652.2532944 907 657.5 C 907 662.7467056 902.7467056 667 897.5 667 C 892.2532944 667 888 662.7467056 888 657.5 Z"/></g><g transform="translate(-622,-622) scale(1,1)"><path fill="none" stroke="#000000" d="M 896 667 L 896 710" stroke-miterlimit="10"/></g><g transform="translate(-622,-622) scale(1,1)"><path fill="none" stroke="#000000" d="M 891.790482243984 699.8373251423759 L 896 710 L 900.209517756016 699.8373251423759" stroke-miterlimit="10"/></g><g transform="translate(-622,-622) scale(1,1)"><path fill="none" stroke="#000000" d="M 888 920 L 888 758" stroke-miterlimit="10"/></g><g transform="translate(-622,-622) scale(1,1)"><path fill="none" stroke="#000000" d="M 892.209517756016 768.1626748576241 L 888 758 L 883.790482243984 768.1626748576241" stroke-miterlimit="10"/></g><g transform="translate(-622,-622) scale(1,1)"><g><path fill="none" stroke="none"/><text fill="#000000" stroke="none" font-family="Roboto" font-size="20px" font-style="normal" font-weight="normal" text-decoration="none" x="910.8544921875" y="893.5">[Confirmação == Falso] /</text><text fill="#000000" stroke="none" font-family="Roboto" font-size="20px" font-style="normal" font-weight="normal" text-decoration="none" x="909.1064453125" y="913.5">Atualização = Verdadeiro</text></g></g><g transform="translate(-622,-622) scale(1,1)"><path fill="none" stroke="#000000" d="M 961 736 L 1232 736" stroke-miterlimit="10"/></g><g transform="translate(-622,-622) scale(1,1)"><path fill="none" stroke="#000000" d="M 1221.837325142376 740.209517756016 L 1232 736 L 1221.837325142376 731.790482243984" stroke-miterlimit="10"/></g><g transform="translate(-622,-622) scale(1,1)"><g><path fill="none" stroke="none"/><text fill="#000000" stroke="none" font-family="Roboto" font-size="20px" font-style="normal" font-weight="normal" text-decoration="none" x="968.5" y="728.5">[Atualização == Verdadeiro]</text></g></g><g transform="translate(-622,-622) scale(1,1)"><path fill="none" stroke="#000000" d="M 848 758 L 848 920" stroke-miterlimit="10"/></g><g transform="translate(-622,-622) scale(1,1)"><path fill="none" stroke="#000000" d="M 843.790482243984 909.8373251423759 L 848 920 L 852.209517756016 909.8373251423759" stroke-miterlimit="10"/></g><g transform="translate(-622,-622) scale(1,1)"><g><path fill="none" stroke="none"/><text fill="#000000" stroke="none" font-family="Roboto" font-size="20px" font-style="normal" font-weight="normal" text-decoration="none" x="637.5" y="890.5">[Atualização  == Falso]</text></g></g><g transform="translate(-622,-622) scale(1,1)"><path fill="#C0C0C0" stroke="none" d="M 1673 919 L 1781 919 Q 1791 919 1791 929 L 1791 957 Q 1791 967 1781 967 L 1673 967 Q 1663 967 1663 957 L 1663 929 Q 1663 919 1673 919 Z" opacity="0.2"/></g><g transform="translate(-622,-622) scale(1,1)"><path fill="#ffffff" stroke="none" d="M 1666 912 L 1774 912 Q 1784 912 1784 922 L 1784 950 Q 1784 960 1774 960 L 1666 960 Q 1656 960 1656 950 L 1656 922 Q 1656 912 1666 912 Z"/></g><g transform="translate(-622,-622) scale(1,1)"><path fill="none" stroke="#000000" d="M 1666 912 L 1774 912 Q 1784 912 1784 922 L 1784 950 Q 1784 960 1774 960 L 1666 960 Q 1656 960 1656 950 L 1656 922 Q 1656 912 1666 912 Z" stroke-miterlimit="10"/></g><g transform="translate(-622,-622) scale(1,1)"><g><path fill="none" stroke="none"/><text fill="#000000" stroke="none" font-family="Roboto" font-size="20px" font-style="normal" font-weight="bold" text-decoration="none" x="1676.11328125" y="938.5">Validação</text></g></g><g transform="translate(-622,-622) scale(1,1)"><path fill="#C0C0C0" stroke="none" d="M 1449 975 L 1557 975 Q 1567 975 1567 985 L 1567 1013 Q 1567 1023 1557 1023 L 1449 1023 Q 1439 1023 1439 1013 L 1439 985 Q 1439 975 1449 975 Z" opacity="0.2"/></g><g transform="translate(-622,-622) scale(1,1)"><path fill="#ffffff" stroke="none" d="M 1442 968 L 1550 968 Q 1560 968 1560 978 L 1560 1006 Q 1560 1016 1550 1016 L 1442 1016 Q 1432 1016 1432 1006 L 1432 978 Q 1432 968 1442 968 Z"/></g><g transform="translate(-622,-622) scale(1,1)"><path fill="none" stroke="#000000" d="M 1442 968 L 1550 968 Q 1560 968 1560 978 L 1560 1006 Q 1560 1016 1550 1016 L 1442 1016 Q 1432 1016 1432 1006 L 1432 978 Q 1432 968 1442 968 Z" stroke-miterlimit="10"/></g><g transform="translate(-622,-622) scale(1,1)"><g><path fill="none" stroke="none"/><text fill="#000000" stroke="none" font-family="Roboto" font-size="20px" font-style="normal" font-weight="bold" text-decoration="none" x="1449.6572265625" y="994.5">Instalação</text></g></g><g transform="translate(-622,-622) scale(1,1)"><path fill="#C0C0C0" stroke="none" d="M 1264 743 L 1372 743 Q 1382 743 1382 753 L 1382 781 Q 1382 791 1372 791 L 1264 791 Q 1254 791 1254 781 L 1254 753 Q 1254 743 1264 743 Z" opacity="0.2"/></g><g transform="translate(-622,-622) scale(1,1)"><path fill="#ffffff" stroke="none" d="M 1257 736 L 1365 736 Q 1375 736 1375 746 L 1375 774 Q 1375 784 1365 784 L 1257 784 Q 1247 784 1247 774 L 1247 746 Q 1247 736 1257 736 Z"/></g><g transform="translate(-622,-622) scale(1,1)"><path fill="none" stroke="#000000" d="M 1257 736 L 1365 736 Q 1375 736 1375 746 L 1375 774 Q 1375 784 1365 784 L 1257 784 Q 1247 784 1247 774 L 1247 746 Q 1247 736 1257 736 Z" stroke-miterlimit="10"/></g><g transform="translate(-622,-622) scale(1,1)"><g><path fill="none" stroke="none"/><text fill="#000000" stroke="none" font-family="Roboto" font-size="20px" font-style="normal" font-weight="bold" text-decoration="none" x="1260.0478515625" y="762.5">Preparação</text></g></g><g transform="translate(-622,-622) scale(1,1)"><path fill="#C0C0C0" stroke="none" d="M 1657 743 L 1765 743 Q 1775 743 1775 753 L 1775 781 Q 1775 791 1765 791 L 1657 791 Q 1647 791 1647 781 L 1647 753 Q 1647 743 1657 743 Z" opacity="0.2"/></g><g transform="translate(-622,-622) scale(1,1)"><path fill="#ffffff" stroke="none" d="M 1650 736 L 1758 736 Q 1768 736 1768 746 L 1768 774 Q 1768 784 1758 784 L 1650 784 Q 1640 784 1640 774 L 1640 746 Q 1640 736 1650 736 Z"/></g><g transform="translate(-622,-622) scale(1,1)"><path fill="none" stroke="#000000" d="M 1650 736 L 1758 736 Q 1768 736 1768 746 L 1768 774 Q 1768 784 1758 784 L 1650 784 Q 1640 784 1640 774 L 1640 746 Q 1640 736 1650 736 Z" stroke-miterlimit="10"/></g><g transform="translate(-622,-622) scale(1,1)"><g><path fill="none" stroke="none"/><text fill="#000000" stroke="none" font-family="Roboto" font-size="20px" font-style="normal" font-weight="bold" text-decoration="none" x="1660.025390625" y="762.5">Recepção</text></g></g><g transform="translate(-622,-622) scale(1,1)"><path fill="none" stroke="#000000" d="M 1375 760 L 1640 760" stroke-miterlimit="10"/></g><g transform="translate(-622,-622) scale(1,1)"><path fill="none" stroke="#000000" d="M 1629.837325142376 764.209517756016 L 1640 760 L 1629.837325142376 755.790482243984" stroke-miterlimit="10"/></g><g transform="translate(-622,-622) scale(1,1)"><g><path fill="none" stroke="none"/><text fill="#000000" stroke="none" font-family="Roboto" font-size="20px" font-style="normal" font-weight="normal" text-decoration="none" x="1382.5517578125" y="784.5">[Preparação == Verdadeiro] /</text><text fill="#000000" stroke="none" font-family="Roboto" font-size="20px" font-style="normal" font-weight="normal" text-decoration="none" x="1435.9013671875" y="804.5">Iniciar Recepção</text></g></g><g transform="translate(-622,-622) scale(1,1)"><path fill="none" stroke="#000000" d="M 1697 736 L 1697 720 L 1787 720 L 1787 748 L 1768 748" stroke-miterlimit="10"/></g><g transform="translate(-622,-622) scale(1,1)"><path fill="none" stroke="#000000" d="M 1778.162674857624 743.790482243984 L 1768 748 L 1778.162674857624 752.209517756016" stroke-miterlimit="10"/></g><g transform="translate(-622,-622) scale(1,1)"><g><path fill="none" stroke="none"/><text fill="#000000" stroke="none" font-family="Roboto" font-size="20px" font-style="normal" font-weight="normal" text-decoration="none" x="1695.5" y="716.5">[Fim == Falso]</text></g></g><g transform="translate(-622,-622) scale(1,1)"><path fill="none" stroke="#000000" d="M 1728 784 L 1728 912" stroke-miterlimit="10"/></g><g transform="translate(-622,-622) scale(1,1)"><path fill="none" stroke="#000000" d="M 1723.7904822439841 901.8373251423759 L 1728 912 L 1732.2095177560159 901.8373251423759" stroke-miterlimit="10"/></g><g transform="translate(-622,-622) scale(1,1)"><g><path fill="none" stroke="none"/><text fill="#000000" stroke="none" font-family="Roboto" font-size="20px" font-style="normal" font-weight="normal" text-decoration="none" x="1526.78515625" y="845.5">[Fim == Verdadeiro] /</text><text fill="#000000" stroke="none" font-family="Roboto" font-size="20px" font-style="normal" font-weight="normal" text-decoration="none" x="1545.9892578125" y="865.5">Iniciar Validação</text></g></g><g transform="translate(-622,-622) scale(1,1)"><path fill="none" stroke="#000000" d="M 1720 960 L 1720 992 L 1560 992" stroke-miterlimit="10"/></g><g transform="translate(-622,-622) scale(1,1)"><path fill="none" stroke="#000000" d="M 1570.162674857624 987.790482243984 L 1560 992 L 1570.162674857624 996.209517756016" stroke-miterlimit="10"/></g><g transform="translate(-622,-622) scale(1,1)"><g><path fill="none" stroke="none"/><text fill="#000000" stroke="none" font-family="Roboto" font-size="20px" font-style="normal" font-weight="normal" text-decoration="none" x="1578.7138671875" y="1015.5">[Validação == Verdadeiro]</text><text fill="#000000" stroke="none" font-family="Roboto" font-size="20px" font-style="normal" font-weight="normal" text-decoration="none" x="1609.4365234375" y="1035.5">/ Iniciar Instalação</text></g></g><g transform="translate(-622,-622) scale(1,1)"><path fill="none" stroke="#000000" d="M 1232 840 L 928 840 L 928 758" stroke-miterlimit="10"/></g><g transform="translate(-622,-622) scale(1,1)"><path fill="none" stroke="#000000" d="M 932.209517756016 768.1626748576241 L 928 758 L 923.790482243984 768.1626748576241" stroke-miterlimit="10"/></g><g transform="translate(-622,-622) scale(1,1)"><g><path fill="none" stroke="none"/><text fill="#000000" stroke="none" font-family="Roboto" font-size="20px" font-style="normal" font-weight="normal" text-decoration="none" x="978.1611328125" y="815.5">[Instalação == Verdadeiro] /</text><text fill="#000000" stroke="none" font-family="Roboto" font-size="20px" font-style="normal" font-weight="normal" text-decoration="none" x="1013.6884765625" y="835.5">Atualização = Falso</text></g></g><g transform="translate(-622,-622) scale(1,1)"><path fill="#C0C0C0" stroke="none" d="M 867 1043.5 C 867 1036.59644 872.59644 1031 879.5 1031 C 886.40356 1031 892 1036.59644 892 1043.5 C 892 1050.40356 886.40356 1056 879.5 1056 C 872.59644 1056 867 1050.40356 867 1043.5 Z" opacity="0.2"/></g><g transform="translate(-622,-622) scale(1,1)"><path fill="none" stroke="#000000" d="M 860 1036.5 C 860 1029.59644 865.59644 1024 872.5 1024 C 879.40356 1024 885 1029.59644 885 1036.5 C 885 1043.40356 879.40356 1049 872.5 1049 C 865.59644 1049 860 1043.40356 860 1036.5 Z" stroke-miterlimit="10"/></g><g transform="translate(-622,-622) scale(1,1)"><path fill="#000000" stroke="none" d="M 865 1036.5 C 865 1032.357864 868.357864 1029 872.5 1029 C 876.642136 1029 880 1032.357864 880 1036.5 C 880 1040.642136 876.642136 1044 872.5 1044 C 868.357864 1044 865 1040.642136 865 1036.5 Z"/></g><g transform="translate(-622,-622) scale(1,1)"><path fill="none" stroke="#000000" d="M 872 968 L 872 1024" stroke-miterlimit="10"/></g><g transform="translate(-622,-622) scale(1,1)"><path fill="none" stroke="#000000" d="M 867.790482243984 1013.8373251423759 L 872 1024 L 876.209517756016 1013.8373251423759" stroke-miterlimit="10"/></g><g transform="translate(-622,-622) scale(1,1)"><g><path fill="none" stroke="none"/><text fill="#000000" stroke="none" font-family="Roboto" font-size="20px" font-style="normal" font-weight="normal" text-decoration="none" x="646.646484375" y="993.5">[Confirmação == True] /</text><text fill="#000000" stroke="none" font-family="Roboto" font-size="20px" font-style="normal" font-weight="normal" text-decoration="none" x="650.5966796875" y="1013.5">Execução do Firmware</text></g></g><g transform="translate(-622,-622) scale(1,1)"><path fill="#C0C0C0" stroke="none" d="M 1295 706 C 1295 699.9248672 1302.1634432 695 1311 695 C 1319.8365568 695 1327 699.9248672 1327 706 C 1327 712.0751328 1319.8365568 717 1311 717 C 1302.1634432 717 1295 712.0751328 1295 706 Z" opacity="0.2"/></g><g transform="translate(-622,-622) scale(1,1)"><path fill="#ffffff" stroke="none" d="M 1288 699 C 1288 692.9248672 1295.1634432 688 1304 688 C 1312.8365568 688 1320 692.9248672 1320 699 C 1320 705.0751328 1312.8365568 710 1304 710 C 1295.1634432 710 1288 705.0751328 1288 699 Z"/></g><g transform="translate(-622,-622) scale(1,1)"><path fill="none" stroke="#000000" d="M 1288 699 C 1288 692.9248672 1295.1634432 688 1304 688 C 1312.8365568 688 1320 692.9248672 1320 699 C 1320 705.0751328 1312.8365568 710 1304 710 C 1295.1634432 710 1288 705.0751328 1288 699 Z" stroke-miterlimit="10"/></g><g transform="translate(-622,-622) scale(1,1)"><path fill="none" stroke="#000000" d="M 1304 710 L 1304 736" stroke-miterlimit="10"/></g><g transform="translate(-622,-622) scale(1,1)"><path fill="none" stroke="#000000" d="M 1299.7904822439841 725.8373251423759 L 1304 736 L 1308.2095177560159 725.8373251423759" stroke-miterlimit="10"/></g><g transform="translate(-622,-622) scale(1,1)"><g><path fill="none" stroke="none"/><text fill="#000000" stroke="none" font-family="Roboto" font-size="20px" font-style="normal" font-weight="normal" text-decoration="none" x="1321.98193359375" y="722.5">/ Atualização = Falso</text></g></g><g transform="translate(-622,-622) scale(1,1)"><path fill="#C0C0C0" stroke="none" d="M 1319 923.5 C 1319 916.59644 1324.59644 911 1331.5 911 C 1338.40356 911 1344 916.59644 1344 923.5 C 1344 930.40356 1338.40356 936 1331.5 936 C 1324.59644 936 1319 930.40356 1319 923.5 Z" opacity="0.2"/></g><g transform="translate(-622,-622) scale(1,1)"><path fill="none" stroke="#000000" d="M 1312 916.5 C 1312 909.59644 1317.59644 904 1324.5 904 C 1331.40356 904 1337 909.59644 1337 916.5 C 1337 923.40356 1331.40356 929 1324.5 929 C 1317.59644 929 1312 923.40356 1312 916.5 Z" stroke-miterlimit="10"/></g><g transform="translate(-622,-622) scale(1,1)"><path fill="#000000" stroke="none" d="M 1317 916.5 C 1317 912.357864 1320.357864 909 1324.5 909 C 1328.642136 909 1332 912.357864 1332 916.5 C 1332 920.642136 1328.642136 924 1324.5 924 C 1320.357864 924 1317 920.642136 1317 916.5 Z"/></g><g transform="translate(-622,-622) scale(1,1)"><path fill="none" stroke="#000000" d="M 1656 920 L 1337 920" stroke-miterlimit="10"/></g><g transform="translate(-622,-622) scale(1,1)"><path fill="none" stroke="#000000" d="M 1347.162674857624 915.790482243984 L 1337 920 L 1347.162674857624 924.209517756016" stroke-miterlimit="10"/></g><g transform="translate(-622,-622) scale(1,1)"><g><path fill="none" stroke="none"/><text fill="#000000" stroke="none" font-family="Roboto" font-size="20px" font-style="normal" font-weight="normal" text-decoration="none" x="1405.5" y="944.5">[Validação == Falso]</text></g></g><g transform="translate(-622,-622) scale(1,1)"><path fill="none" stroke="#000000" d="M 1432 992 L 1324 992 L 1324 929" stroke-miterlimit="10"/></g><g transform="translate(-622,-622) scale(1,1)"><path fill="none" stroke="#000000" d="M 1328.2095177560159 939.1626748576241 L 1324 929 L 1319.7904822439841 939.1626748576241" stroke-miterlimit="10"/></g><g transform="translate(-622,-622) scale(1,1)"><g><path fill="none" stroke="none"/><text fill="#000000" stroke="none" font-family="Roboto" font-size="20px" font-style="normal" font-weight="normal" text-decoration="none" x="1239.5" y="1017.5">[Instalação == Falso]</text></g></g></g></svg>