<svg version="1.1" xmlns="http://www.w3.org/2000/svg" xmlns:xlink="http://www.w3.org/1999/xlink" width="924" height="652"><defs/><g><text fill="#eeeeee" stroke="none" font-family="Arial" font-size="24px" font-style="normal" font-weight="normal" text-decoration="none" x="0" y="0">UNREGISTERED</text><text fill="#eeeeee" stroke="none" font-family="Arial" font-size="24px" font-style="normal" font-weight="normal" text-decoration="none" x="0" y="30">UNREGISTERED</text><text fill="#eeeeee" stroke="none" font-family="Arial" font-size="24px" font-style="normal" font-weight="normal" text-decoration="none" x="0" y="60">UNREGISTERED</text><text fill="#eeeeee" stroke="none" font-family="Arial" font-size="24px" font-style="normal" font-weight="normal" text-decoration="none" x="0" y="90">UNREGISTERED</text><text fill="#eeeeee" stroke="none" font-family="Arial" font-size="24px" font-style="normal" font-weight="normal" text-decoration="none" x="0" y="120">UNREGISTERED</text><text fill="#eeeeee" stroke="none" font-family="Arial" font-size="24px" font-style="normal" font-weight="normal" text-decoration="none" x="0" y="150">UNREGISTERED</text><text fill="#eeeeee" stroke="none" font-family="Arial" font-size="24px" font-style="normal" font-weight="normal" text-decoration="none" x="0" y="180">UNREGISTERED</text><text fill="#eeeeee" stroke="none" font-family="Arial" font-size="24px" font-style="normal" font-weight="normal" text-decoration="none" x="0" y="210">UNREGISTERED</text><text fill="#eeeeee" stroke="none" font-family="Arial" font-size="24px" font-style="normal" font-weight="normal" text-decoration="none" x="0" y="240">UNREGISTERED</text><text fill="#eeeeee" stroke="none" font-family="Arial" font-size="24px" font-style="normal" font-weight="normal" text-decoration="none" x="0" y="270">UNREGISTERED</text><text fill="#eeeeee" stroke="none" font-family="Arial" font-size="24px" font-style="normal" font-weight="normal" text-decoration="none" x="0" y="300">UNREGISTERED</text><text fill="#eeeeee" stroke="none" font-family="Arial" font-size="24px" font-style="normal" font-weight="normal" text-decoration="none" x="0" y="330">UNREGISTERED</text><text fill="#eeeeee" stroke="none" font-family="Arial" font-size="24px" font-style="normal" font-weight="normal" text-decoration="none" x="0" y="360">UNREGISTERED</text><text fill="#eeeeee" stroke="none" font-family="Arial" font-size="24px" font-style="normal" font-weight="normal" text-decoration="none" x="0" y="390">UNREGISTERED</text><text fill="#eeeeee" stroke="none" font-family="Arial" font-size="24px" font-style="normal" font-weight="normal" text-decoration="none" x="0" y="420">UNREGISTERED</text><text fill="#eeeeee" stroke="none" font-family="Arial" font-size="24px" font-style="normal" font-weight="normal" text-decoration="none" x="0" y="450">UNREGISTERED</text><text fill="#eeeeee" stroke="none" font-family="Arial" font-size="24px" font-style="normal" font-weight="normal" text-decoration="none" x="0" y="480">UNREGISTERED</text><text fill="#eeeeee" stroke="none" font-family="Arial" font-size="24px" font-style="normal" font-weight="normal" text-decoration="none" x="0" y="510">UNREGISTERED</text><text fill="#eeeeee" stroke="none" font-family="Arial" font-size="24px" font-style="normal" font-weight="normal" text-decoration="none" x="0" y="540">UNREGISTERED</text><text fill="#eeeeee" stroke="none" font-family="Arial" font-size="24px" font-style="normal" font-weight="normal" text-decoration="none" x="0" y="570">UNREGISTERED</text><text fill="#eeeeee" stroke="none" font-family="Arial" font-size="24px" font-style="normal" font-weight="normal" text-decoration="none" x="0" y="600">UNREGISTERED</text><text fill="#eeeeee" stroke="none" font-family="Arial" font-size="24px" font-style="normal" font-weight="normal" text-decoration="none" x="0" y="630">UNREGISTERED</text><text fill="#eeeeee" stroke="none" font-family="Arial" font-size="24px" font-style="normal" font-weight="normal" text-decoration="none" x="200" y="0">UNREGISTERED</text><text fill="#eeeeee" stroke="none" font-family="Arial" font-size="24px" font-style="normal" font-weight="normal" text-decoration="none" x="200" y="30">UNREGISTERED</text><text fill="#eeeeee" stroke="none" font-family="Arial" font-size="24px" font-style="normal" font-weight="normal" text-decoration="none" x="200" y="60">UNREGISTERED</text><text fill="#eeeeee" stroke="none" font-family="Arial" font-size="24px" font-style="normal" font-weight="normal" text-decoration="none" x="200" y="90">UNREGISTERED</text><text fill="#eeeeee" stroke="none" font-family="Arial" font-size="24px" font-style="normal" font-weight="normal" text-decoration="none" x="200" y="120">UNREGISTERED</text><text fill="#eeeeee" stroke="none" font-family="Arial" font-size="24px" font-style="normal" font-weight="normal" text-decoration="none" x="200" y="150">UNREGISTERED</text><text fill="#eeeeee" stroke="none" font-family="Arial" font-size="24px" font-style="normal" font-weight="normal" text-decoration="none" x="200" y="180">UNREGISTERED</text><text fill="#eeeeee" stroke="none" font-family="Arial" font-size="24px" font-style="normal" font-weight="normal" text-decoration="none" x="200" y="210">UNREGISTERED</text><text fill="#eeeeee" stroke="none" font-family="Arial" font-size="24px" font-style="normal" font-weight="normal" text-decoration="none" x="200" y="240">UNREGISTERED</text><text fill="#eeeeee" stroke="none" font-family="Arial" font-size="24px" font-style="normal" font-weight="normal" text-decoration="none" x="200" y="270">UNREGISTERED</text><text fill="#eeeeee" stroke="none" font-family="Arial" font-size="24px" font-style="normal" font-weight="normal" text-decoration="none" x="200" y="300">UNREGISTERED</text><text fill="#eeeeee" stroke="none" font-family="Arial" font-size="24px" font-style="normal" font-weight="normal" text-decoration="none" x="200" y="330">UNREGISTERED</text><text fill="#eeeeee" stroke="none" font-family="Arial" font-size="24px" font-style="normal" font-weight="normal" text-decoration="none" x="200" y="360">UNREGISTERED</text><text fill="#eeeeee" stroke="none" font-family="Arial" font-size="24px" font-style="normal" font-weight="normal" text-decoration="none" x="200" y="390">UNREGISTERED</text><text fill="#eeeeee" stroke="none" font-family="Arial" font-size="24px" font-style="normal" font-weight="normal" text-decoration="none" x="200" y="420">UNREGISTERED</text><text fill="#eeeeee" stroke="none" font-family="Arial" font-size="24px" font-style="normal" font-weight="normal" text-decoration="none" x="200" y="450">UNREGISTERED</text><text fill="#eeeeee" stroke="none" font-family="Arial" font-size="24px" font-style="normal" font-weight="normal" text-decoration="none" x="200" y="480">UNREGISTERED</text><text fill="#eeeeee" stroke="none" font-family="Arial" font-size="24px" font-style="normal" font-weight="normal" text-decoration="none" x="200" y="510">UNREGISTERED</text><text fill="#eeeeee" stroke="none" font-family="Arial" font-size="24px" font-style="normal" font-weight="normal" text-decoration="none" x="200" y="540">UNREGISTERED</text><text fill="#eeeeee" stroke="none" font-family="Arial" font-size="24px" font-style="normal" font-weight="normal" text-decoration="none" x="200" y="570">UNREGISTERED</text><text fill="#eeeeee" stroke="none" font-family="Arial" font-size="24px" font-style="normal" font-weight="normal" text-decoration="none" x="200" y="600">UNREGISTERED</text><text fill="#eeeeee" stroke="none" font-family="Arial" font-size="24px" font-style="normal" font-weight="normal" text-decoration="none" x="200" y="630">UNREGISTERED</text><text fill="#eeeeee" stroke="none" font-family="Arial" font-size="24px" font-style="normal" font-weight="normal" text-decoration="none" x="400" y="0">UNREGISTERED</text><text fill="#eeeeee" stroke="none" font-family="Arial" font-size="24px" font-style="normal" font-weight="normal" text-decoration="none" x="400" y="30">UNREGISTERED</text><text fill="#eeeeee" stroke="none" font-family="Arial" font-size="24px" font-style="normal" font-weight="normal" text-decoration="none" x="400" y="60">UNREGISTERED</text><text fill="#eeeeee" stroke="none" font-family="Arial" font-size="24px" font-style="normal" font-weight="normal" text-decoration="none" x="400" y="90">UNREGISTERED</text><text fill="#eeeeee" stroke="none" font-family="Arial" font-size="24px" font-style="normal" font-weight="normal" text-decoration="none" x="400" y="120">UNREGISTERED</text><text fill="#eeeeee" stroke="none" font-family="Arial" font-size="24px" font-style="normal" font-weight="normal" text-decoration="none" x="400" y="150">UNREGISTERED</text><text fill="#eeeeee" stroke="none" font-family="Arial" font-size="24px" font-style="normal" font-weight="normal" text-decoration="none" x="400" y="180">UNREGISTERED</text><text fill="#eeeeee" stroke="none" font-family="Arial" font-size="24px" font-style="normal" font-weight="normal" text-decoration="none" x="400" y="210">UNREGISTERED</text><text fill="#eeeeee" stroke="none" font-family="Arial" font-size="24px" font-style="normal" font-weight="normal" text-decoration="none" x="400" y="240">UNREGISTERED</text><text fill="#eeeeee" stroke="none" font-family="Arial" font-size="24px" font-style="normal" font-weight="normal" text-decoration="none" x="400" y="270">UNREGISTERED</text><text fill="#eeeeee" stroke="none" font-family="Arial" font-size="24px" font-style="normal" font-weight="normal" text-decoration="none" x="400" y="300">UNREGISTERED</text><text fill="#eeeeee" stroke="none" font-family="Arial" font-size="24px" font-style="normal" font-weight="normal" text-decoration="none" x="400" y="330">UNREGISTERED</text><text fill="#eeeeee" stroke="none" font-family="Arial" font-size="24px" font-style="normal" font-weight="normal" text-decoration="none" x="400" y="360">UNREGISTERED</text><text fill="#eeeeee" stroke="none" font-family="Arial" font-size="24px" font-style="normal" font-weight="normal" text-decoration="none" x="400" y="390">UNREGISTERED</text><text fill="#eeeeee" stroke="none" font-family="Arial" font-size="24px" font-style="normal" font-weight="normal" text-decoration="none" x="400" y="420">UNREGISTERED</text><text fill="#eeeeee" stroke="none" font-family="Arial" font-size="24px" font-style="normal" font-weight="normal" text-decoration="none" x="400" y="450">UNREGISTERED</text><text fill="#eeeeee" stroke="none" font-family="Arial" font-size="24px" font-style="normal" font-weight="normal" text-decoration="none" x="400" y="480">UNREGISTERED</text><text fill="#eeeeee" stroke="none" font-family="Arial" font-size="24px" font-style="normal" font-weight="normal" text-decoration="none" x="400" y="510">UNREGISTERED</text><text fill="#eeeeee" stroke="none" font-family="Arial" font-size="24px" font-style="normal" font-weight="normal" text-decoration="none" x="400" y="540">UNREGISTERED</text><text fill="#eeeeee" stroke="none" font-family="Arial" font-size="24px" font-style="normal" font-weight="normal" text-decoration="none" x="400" y="570">UNREGISTERED</text><text fill="#eeeeee" stroke="none" font-family="Arial" font-size="24px" font-style="normal" font-weight="normal" text-decoration="none" x="400" y="600">UNREGISTERED</text><text fill="#eeeeee" stroke="none" font-family="Arial" font-size="24px" font-style="normal" font-weight="normal" text-decoration="none" x="400" y="630">UNREGISTERED</text><text fill="#eeeeee" stroke="none" font-family="Arial" font-size="24px" font-style="normal" font-weight="normal" text-decoration="none" x="600" y="0">UNREGISTERED</text><text fill="#eeeeee" stroke="none" font-family="Arial" font-size="24px" font-style="normal" font-weight="normal" text-decoration="none" x="600" y="30">UNREGISTERED</text><text fill="#eeeeee" stroke="none" font-family="Arial" font-size="24px" font-style="normal" font-weight="normal" text-decoration="none" x="600" y="60">UNREGISTERED</text><text fill="#eeeeee" stroke="none" font-family="Arial" font-size="24px" font-style="normal" font-weight="normal" text-decoration="none" x="600" y="90">UNREGISTERED</text><text fill="#eeeeee" stroke="none" font-family="Arial" font-size="24px" font-style="normal" font-weight="normal" text-decoration="none" x="600" y="120">UNREGISTERED</text><text fill="#eeeeee" stroke="none" font-family="Arial" font-size="24px" font-style="normal" font-weight="normal" text-decoration="none" x="600" y="150">UNREGISTERED</text><text fill="#eeeeee" stroke="none" font-family="Arial" font-size="24px" font-style="normal" font-weight="normal" text-decoration="none" x="600" y="180">UNREGISTERED</text><text fill="#eeeeee" stroke="none" font-family="Arial" font-size="24px" font-style="normal" font-weight="normal" text-decoration="none" x="600" y="210">UNREGISTERED</text><text fill="#eeeeee" stroke="none" font-family="Arial" font-size="24px" font-style="normal" font-weight="normal" text-decoration="none" x="600" y="240">UNREGISTERED</text><text fill="#eeeeee" stroke="none" font-family="Arial" font-size="24px" font-style="normal" font-weight="normal" text-decoration="none" x="600" y="270">UNREGISTERED</text><text fill="#eeeeee" stroke="none" font-family="Arial" font-size="24px" font-style="normal" font-weight="normal" text-decoration="none" x="600" y="300">UNREGISTERED</text><text fill="#eeeeee" stroke="none" font-family="Arial" font-size="24px" font-style="normal" font-weight="normal" text-decoration="none" x="600" y="330">UNREGISTERED</text><text fill="#eeeeee" stroke="none" font-family="Arial" font-size="24px" font-style="normal" font-weight="normal" text-decoration="none" x="600" y="360">UNREGISTERED</text><text fill="#eeeeee" stroke="none" font-family="Arial" font-size="24px" font-style="normal" font-weight="normal" text-decoration="none" x="600" y="390">UNREGISTERED</text><text fill="#eeeeee" stroke="none" font-family="Arial" font-size="24px" font-style="normal" font-weight="normal" text-decoration="none" x="600" y="420">UNREGISTERED</text><text fill="#eeeeee" stroke="none" font-family="Arial" font-size="24px" font-style="normal" font-weight="normal" text-decoration="none" x="600" y="450">UNREGISTERED</text><text fill="#eeeeee" stroke="none" font-family="Arial" font-size="24px" font-style="normal" font-weight="normal" text-decoration="none" x="600" y="480">UNREGISTERED</text><text fill="#eeeeee" stroke="none" font-family="Arial" font-size="24px" font-style="normal" font-weight="normal" text-decoration="none" x="600" y="510">UNREGISTERED</text><text fill="#eeeeee" stroke="none" font-family="Arial" font-size="24px" font-style="normal" font-weight="normal" text-decoration="none" x="600" y="540">UNREGISTERED</text><text fill="#eeeeee" stroke="none" font-family="Arial" font-size="24px" font-style="normal" font-weight="normal" text-decoration="none" x="600" y="570">UNREGISTERED</text><text fill="#eeeeee" stroke="none" font-family="Arial" font-size="24px" font-style="normal" font-weight="normal" text-decoration="none" x="600" y="600">UNREGISTERED</text><text fill="#eeeeee" stroke="none" font-family="Arial" font-size="24px" font-style="normal" font-weight="normal" text-decoration="none" x="600" y="630">UNREGISTERED</text><text fill="#eeeeee" stroke="none" font-family="Arial" font-size="24px" font-style="normal" font-weight="normal" text-decoration="none" x="800" y="0">UNREGISTERED</text><text fill="#eeeeee" stroke="none" font-family="Arial" font-size="24px" font-style="normal" font-weight="normal" text-decoration="none" x="800" y="30">UNREGISTERED</text><text fill="#eeeeee" stroke="none" font-family="Arial" font-size="24px" font-style="normal" font-weight="normal" text-decoration="none" x="800" y="60">UNREGISTERED</text><text fill="#eeeeee" stroke="none" font-family="Arial" font-size="24px" font-style="normal" font-weight="normal" text-decoration="none" x="800" y="90">UNREGISTERED</text><text fill="#eeeeee" stroke="none" font-family="Arial" font-size="24px" font-style="normal" font-weight="normal" text-decoration="none" x="800" y="120">UNREGISTERED</text><text fill="#eeeeee" stroke="none" font-family="Arial" font-size="24px" font-style="normal" font-weight="normal" text-decoration="none" x="800" y="150">UNREGISTERED</text><text fill="#eeeeee" stroke="none" font-family="Arial" font-size="24px" font-style="normal" font-weight="normal" text-decoration="none" x="800" y="180">UNREGISTERED</text><text fill="#eeeeee" stroke="none" font-family="Arial" font-size="24px" font-style="normal" font-weight="normal" text-decoration="none" x="800" y="210">UNREGISTERED</text><text fill="#eeeeee" stroke="none" font-family="Arial" font-size="24px" font-style="normal" font-weight="normal" text-decoration="none" x="800" y="240">UNREGISTERED</text><text fill="#eeeeee" stroke="none" font-family="Arial" font-size="24px" font-style="normal" font-weight="normal" text-decoration="none" x="800" y="270">UNREGISTERED</text><text fill="#eeeeee" stroke="none" font-family="Arial" font-size="24px" font-style="normal" font-weight="normal" text-decoration="none" x="800" y="300">UNREGISTERED</text><text fill="#eeeeee" stroke="none" font-family="Arial" font-size="24px" font-style="normal" font-weight="normal" text-decoration="none" x="800" y="330">UNREGISTERED</text><text fill="#eeeeee" stroke="none" font-family="Arial" font-size="24px" font-style="normal" font-weight="normal" text-decoration="none" x="800" y="360">UNREGISTERED</text><text fill="#eeeeee" stroke="none" font-family="Arial" font-size="24px" font-style="normal" font-weight="normal" text-decoration="none" x="800" y="390">UNREGISTERED</text><text fill="#eeeeee" stroke="none" font-family="Arial" font-size="24px" font-style="normal" font-weight="normal" text-decoration="none" x="800" y="420">UNREGISTERED</text><text fill="#eeeeee" stroke="none" font-family="Arial" font-size="24px" font-style="normal" font-weight="normal" text-decoration="none" x="800" y="450">UNREGISTERED</text><text fill="#eeeeee" stroke="none" font-family="Arial" font-size="24px" font-style="normal" font-weight="normal" text-decoration="none" x="800" y="480">UNREGISTERED</text><text fill="#eeeeee" stroke="none" font-family="Arial" font-size="24px" font-style="normal" font-weight="normal" text-decoration="none" x="800" y="510">UNREGISTERED</text><text fill="#eeeeee" stroke="none" font-family="Arial" font-size="24px" font-style="normal" font-weight="normal" text-decoration="none" x="800" y="540">UNREGISTERED</text><text fill="#eeeeee" stroke="none" font-family="Arial" font-size="24px" font-style="normal" font-weight="normal" text-decoration="none" x="800" y="570">UNREGISTERED</text><text fill="#eeeeee" stroke="none" font-family="Arial" font-size="24px" font-style="normal" font-weight="normal" text-decoration="none" x="800" y="600">UNREGISTERED</text><text fill="#eeeeee" stroke="none" font-family="Arial" font-size="24px" font-style="normal" font-weight="normal" text-decoration="none" x="800" y="630">UNREGISTERED</text><g transform="translate(-670,-278) scale(1,1)"><path fill="none" stroke="#000000" d="M 680 288 L 1584 288 L 1584 920 L 680 920 L 680 288" stroke-miterlimit="10"/></g><g transform="translate(-670,-278) scale(1,1)"><path fill="#ffffff" stroke="none" d="M 680 288 L 680 316 L 943.6123046875 316 L 957.6123046875 302 L 957.6123046875 288 L 680 288"/></g><g transform="translate(-670,-278) scale(1,1)"><path fill="none" stroke="#000000" d="M 680 288 L 680 316 L 943.6123046875 316 L 957.6123046875 302 L 957.6123046875 288 L 680 288 L 680 288" stroke-miterlimit="10"/></g><g transform="translate(-670,-278) scale(1,1)"><g><path fill="none" stroke="none"/><text fill="#000000" stroke="none" font-family="Roboto" font-size="19px" font-style="normal" font-weight="normal" text-decoration="none" x="762.63037109375" y="311.5">Diagrama de classes</text></g></g><g transform="translate(-670,-278) scale(1,1)"><g><path fill="none" stroke="none"/><text fill="#000000" stroke="none" font-family="Roboto" font-size="19px" font-style="normal" font-weight="bold" text-decoration="none" x="685" y="311.5">package</text></g></g><g transform="translate(-670,-278) scale(1,1)"><rect fill="#ffebd8" stroke="none" x="1048" y="328" width="216" height="192"/></g><g transform="translate(-670,-278) scale(1,1)"><path fill="none" stroke="#000000" d="M 1048 328 L 1264 328 L 1264 520 L 1048 520 L 1048 328 Z Z" stroke-miterlimit="10"/></g><g transform="translate(-670,-278) scale(1,1)"><rect fill="#d8fff8" stroke="none" x="1360" y="328" width="176" height="264"/></g><g transform="translate(-670,-278) scale(1,1)"><path fill="none" stroke="#000000" d="M 1360 328 L 1536 328 L 1536 592 L 1360 592 L 1360 328 Z Z" stroke-miterlimit="10"/></g><g transform="translate(-670,-278) scale(1,1)"><rect fill="#ebffd8" stroke="none" x="1352" y="712" width="192" height="168"/></g><g transform="translate(-670,-278) scale(1,1)"><path fill="none" stroke="#000000" d="M 1352 712 L 1544 712 L 1544 880 L 1352 880 L 1352 712 Z Z" stroke-miterlimit="10"/></g><g transform="translate(-670,-278) scale(1,1)"><rect fill="#C0C0C0" stroke="none" x="1375" y="775" width="160.927734375" height="105" opacity="0.2"/></g><g transform="translate(-670,-278) scale(1,1)"><rect fill="#ffffff" stroke="none" x="1368" y="768" width="160.927734375" height="105"/></g><g transform="translate(-670,-278) scale(1,1)"><path fill="none" stroke="#000000" d="M 1368 768 L 1528.927734375 768 L 1528.927734375 873 L 1368 873 L 1368 768 Z Z" stroke-miterlimit="10"/></g><g transform="translate(-670,-278) scale(1,1)"><path fill="none" stroke="#000000" d="M 1368 816 L 1528.927734375 816" stroke-miterlimit="10"/></g><g transform="translate(-670,-278) scale(1,1)"><path fill="none" stroke="#000000" d="M 1368 826 L 1528.927734375 826" stroke-miterlimit="10"/></g><g transform="translate(-670,-278) scale(1,1)"><g><path fill="none" stroke="none"/><text fill="#000000" stroke="none" font-family="Roboto" font-size="18px" font-style="normal" font-weight="normal" text-decoration="none" x="1407.08056640625" y="790.5">«abstract»</text></g></g><g transform="translate(-670,-278) scale(1,1)"><g><path fill="none" stroke="none"/><text fill="#000000" stroke="none" font-family="Roboto" font-size="18px" font-style="italic" font-weight="bold" text-decoration="none" x="1414.44580078125" y="810.5">Switcher</text></g></g><g transform="translate(-670,-278) scale(1,1)"><g><path fill="none" stroke="none"/><text fill="#000000" stroke="none" font-family="Roboto" font-size="18px" font-style="italic" font-weight="normal" text-decoration="none" x="1373" y="848.5">+goToSecure()</text></g></g><g transform="translate(-670,-278) scale(1,1)"><g><path fill="none" stroke="none"/><text fill="#000000" stroke="none" font-family="Roboto" font-size="18px" font-style="italic" font-weight="normal" text-decoration="none" x="1373" y="868.5">+goToNonSecure()</text></g></g><g transform="translate(-670,-278) scale(1,1)"><rect fill="#ffe2d8" stroke="none" x="712" y="656" width="224" height="208"/></g><g transform="translate(-670,-278) scale(1,1)"><path fill="none" stroke="#000000" d="M 712 656 L 936 656 L 936 864 L 712 864 L 712 656 Z Z" stroke-miterlimit="10"/></g><g transform="translate(-670,-278) scale(1,1)"><rect fill="#ebd8ff" stroke="none" x="1024" y="552" width="288" height="352"/></g><g transform="translate(-670,-278) scale(1,1)"><path fill="none" stroke="#000000" d="M 1024 552 L 1312 552 L 1312 904 L 1024 904 L 1024 552 Z Z" stroke-miterlimit="10"/></g><g transform="translate(-670,-278) scale(1,1)"><rect fill="#a3e0ff" stroke="none" x="712" y="328" width="288" height="184"/></g><g transform="translate(-670,-278) scale(1,1)"><path fill="none" stroke="#000000" d="M 712 328 L 1000 328 L 1000 512 L 712 512 L 712 328 Z Z" stroke-miterlimit="10"/></g><g transform="translate(-670,-278) scale(1,1)"><rect fill="#C0C0C0" stroke="none" x="727" y="695" width="199" height="163" opacity="0.2"/></g><g transform="translate(-670,-278) scale(1,1)"><rect fill="#ffffff" stroke="none" x="720" y="688" width="199" height="163"/></g><g transform="translate(-670,-278) scale(1,1)"><path fill="none" stroke="#000000" d="M 720 688 L 919 688 L 919 851 L 720 851 L 720 688 Z Z" stroke-miterlimit="10"/></g><g transform="translate(-670,-278) scale(1,1)"><path fill="none" stroke="#000000" d="M 720 736 L 919 736" stroke-miterlimit="10"/></g><g transform="translate(-670,-278) scale(1,1)"><path fill="none" stroke="#000000" d="M 720 784 L 919 784" stroke-miterlimit="10"/></g><g transform="translate(-670,-278) scale(1,1)"><g><path fill="none" stroke="none"/><text fill="#000000" stroke="none" font-family="Roboto" font-size="18px" font-style="normal" font-weight="normal" text-decoration="none" x="778.11669921875" y="710.5">«abstract»</text></g></g><g transform="translate(-670,-278) scale(1,1)"><g><path fill="none" stroke="none"/><text fill="#000000" stroke="none" font-family="Roboto" font-size="18px" font-style="italic" font-weight="bold" text-decoration="none" x="793.361328125" y="730.5">Comm</text></g></g><g transform="translate(-670,-278) scale(1,1)"><g><path fill="none" stroke="none"/><text fill="#000000" stroke="none" font-family="Roboto" font-size="18px" font-style="normal" font-weight="normal" text-decoration="none" x="725" y="758.5">-buffer</text></g></g><g transform="translate(-670,-278) scale(1,1)"><g><path fill="none" stroke="none"/><text fill="#000000" stroke="none" font-family="Roboto" font-size="18px" font-style="normal" font-weight="normal" text-decoration="none" x="725" y="778.5">-has_data</text></g></g><g transform="translate(-670,-278) scale(1,1)"><g><path fill="none" stroke="none"/><text fill="#000000" stroke="none" font-family="Roboto" font-size="18px" font-style="italic" font-weight="normal" text-decoration="none" x="725" y="806.5">+sendData()</text></g></g><g transform="translate(-670,-278) scale(1,1)"><g><path fill="none" stroke="none"/><text fill="#000000" stroke="none" font-family="Roboto" font-size="18px" font-style="italic" font-weight="normal" text-decoration="none" x="725" y="826.5">+getData()</text></g></g><g transform="translate(-670,-278) scale(1,1)"><g><path fill="none" stroke="none"/><text fill="#000000" stroke="none" font-family="Roboto" font-size="18px" font-style="normal" font-weight="normal" text-decoration="none" x="725" y="846.5">+hasData()</text></g></g><g transform="translate(-670,-278) scale(1,1)"><rect fill="#C0C0C0" stroke="none" x="727" y="375" width="256" height="125" opacity="0.2"/></g><g transform="translate(-670,-278) scale(1,1)"><rect fill="#ffffff" stroke="none" x="720" y="368" width="256" height="125"/></g><g transform="translate(-670,-278) scale(1,1)"><path fill="none" stroke="#000000" d="M 720 368 L 976 368 L 976 493 L 720 493 L 720 368 Z Z" stroke-miterlimit="10"/></g><g transform="translate(-670,-278) scale(1,1)"><path fill="none" stroke="#000000" d="M 720 416 L 976 416" stroke-miterlimit="10"/></g><g transform="translate(-670,-278) scale(1,1)"><path fill="none" stroke="#000000" d="M 720 426 L 976 426" stroke-miterlimit="10"/></g><g transform="translate(-670,-278) scale(1,1)"><g><path fill="none" stroke="none"/><text fill="#000000" stroke="none" font-family="Roboto" font-size="18px" font-style="normal" font-weight="normal" text-decoration="none" x="806.61669921875" y="390.5">«abstract»</text></g></g><g transform="translate(-670,-278) scale(1,1)"><g><path fill="none" stroke="none"/><text fill="#000000" stroke="none" font-family="Roboto" font-size="18px" font-style="italic" font-weight="bold" text-decoration="none" x="822.248046875" y="410.5">Crypto</text></g></g><g transform="translate(-670,-278) scale(1,1)"><g><path fill="none" stroke="none"/><text fill="#000000" stroke="none" font-family="Roboto" font-size="18px" font-style="italic" font-weight="normal" text-decoration="none" x="725" y="448.5">+shaGen()</text></g></g><g transform="translate(-670,-278) scale(1,1)"><g><path fill="none" stroke="none"/><text fill="#000000" stroke="none" font-family="Roboto" font-size="18px" font-style="italic" font-weight="normal" text-decoration="none" x="725" y="468.5">+shaCheck()</text></g></g><g transform="translate(-670,-278) scale(1,1)"><g><path fill="none" stroke="none"/><text fill="#000000" stroke="none" font-family="Roboto" font-size="18px" font-style="italic" font-weight="normal" text-decoration="none" x="725" y="488.5">+sigCheck()</text></g></g><g transform="translate(-670,-278) scale(1,1)"><rect fill="#C0C0C0" stroke="none" x="1375" y="383" width="157.623046875" height="205" opacity="0.2"/></g><g transform="translate(-670,-278) scale(1,1)"><rect fill="#ffffff" stroke="none" x="1368" y="376" width="157.623046875" height="205"/></g><g transform="translate(-670,-278) scale(1,1)"><path fill="none" stroke="#000000" d="M 1368 376 L 1525.623046875 376 L 1525.623046875 581 L 1368 581 L 1368 376 Z Z" stroke-miterlimit="10"/></g><g transform="translate(-670,-278) scale(1,1)"><path fill="none" stroke="#000000" d="M 1368 424 L 1525.623046875 424" stroke-miterlimit="10"/></g><g transform="translate(-670,-278) scale(1,1)"><path fill="none" stroke="#000000" d="M 1368 434 L 1525.623046875 434" stroke-miterlimit="10"/></g><g transform="translate(-670,-278) scale(1,1)"><g><path fill="none" stroke="none"/><text fill="#000000" stroke="none" font-family="Roboto" font-size="18px" font-style="normal" font-weight="normal" text-decoration="none" x="1405.42822265625" y="398.5">«abstract»</text></g></g><g transform="translate(-670,-278) scale(1,1)"><g><path fill="none" stroke="none"/><text fill="#000000" stroke="none" font-family="Roboto" font-size="18px" font-style="italic" font-weight="bold" text-decoration="none" x="1390.869140625" y="418.5">FlashManager</text></g></g><g transform="translate(-670,-278) scale(1,1)"><g><path fill="none" stroke="none"/><text fill="#000000" stroke="none" font-family="Roboto" font-size="18px" font-style="italic" font-weight="normal" text-decoration="none" x="1373" y="456.5">+flashWrite()</text></g></g><g transform="translate(-670,-278) scale(1,1)"><g><path fill="none" stroke="none"/><text fill="#000000" stroke="none" font-family="Roboto" font-size="18px" font-style="italic" font-weight="normal" text-decoration="none" x="1373" y="476.5">+flashErase()</text></g></g><g transform="translate(-670,-278) scale(1,1)"><g><path fill="none" stroke="none"/><text fill="#000000" stroke="none" font-family="Roboto" font-size="18px" font-style="italic" font-weight="normal" text-decoration="none" x="1373" y="496.5">+flashLock()</text></g></g><g transform="translate(-670,-278) scale(1,1)"><g><path fill="none" stroke="none"/><text fill="#000000" stroke="none" font-family="Roboto" font-size="18px" font-style="italic" font-weight="normal" text-decoration="none" x="1373" y="516.5">+flashUnlock()</text></g></g><g transform="translate(-670,-278) scale(1,1)"><g><path fill="none" stroke="none"/><text fill="#000000" stroke="none" font-family="Roboto" font-size="18px" font-style="normal" font-weight="normal" text-decoration="none" x="1373" y="536.5">+flashReadAll()</text></g></g><g transform="translate(-670,-278) scale(1,1)"><g><path fill="none" stroke="none"/><text fill="#000000" stroke="none" font-family="Roboto" font-size="18px" font-style="normal" font-weight="normal" text-decoration="none" x="1373" y="556.5">+isFlashLocked()</text></g></g><g transform="translate(-670,-278) scale(1,1)"><g><path fill="none" stroke="none"/><text fill="#000000" stroke="none" font-family="Roboto" font-size="18px" font-style="normal" font-weight="normal" text-decoration="none" x="1373" y="576.5">+setFlashLocked()</text></g></g><g transform="translate(-670,-278) scale(1,1)"><rect fill="#C0C0C0" stroke="none" x="1071" y="383" width="184" height="125" opacity="0.2"/></g><g transform="translate(-670,-278) scale(1,1)"><rect fill="#ffffff" stroke="none" x="1064" y="376" width="184" height="125"/></g><g transform="translate(-670,-278) scale(1,1)"><path fill="none" stroke="#000000" d="M 1064 376 L 1248 376 L 1248 501 L 1064 501 L 1064 376 Z Z" stroke-miterlimit="10"/></g><g transform="translate(-670,-278) scale(1,1)"><path fill="none" stroke="#000000" d="M 1064 424 L 1248 424" stroke-miterlimit="10"/></g><g transform="translate(-670,-278) scale(1,1)"><path fill="none" stroke="#000000" d="M 1064 434 L 1248 434" stroke-miterlimit="10"/></g><g transform="translate(-670,-278) scale(1,1)"><g><path fill="none" stroke="none"/><text fill="#000000" stroke="none" font-family="Roboto" font-size="18px" font-style="normal" font-weight="normal" text-decoration="none" x="1114.61669921875" y="398.5">«abstract»</text></g></g><g transform="translate(-670,-278) scale(1,1)"><g><path fill="none" stroke="none"/><text fill="#000000" stroke="none" font-family="Roboto" font-size="18px" font-style="italic" font-weight="bold" text-decoration="none" x="1098.7744140625" y="418.5">SecureStorage</text></g></g><g transform="translate(-670,-278) scale(1,1)"><g><path fill="none" stroke="none"/><text fill="#000000" stroke="none" font-family="Roboto" font-size="18px" font-style="italic" font-weight="normal" text-decoration="none" x="1069" y="456.5">+readData()</text></g></g><g transform="translate(-670,-278) scale(1,1)"><g><path fill="none" stroke="none"/><text fill="#000000" stroke="none" font-family="Roboto" font-size="18px" font-style="italic" font-weight="normal" text-decoration="none" x="1069" y="476.5">+writeData()</text></g></g><g transform="translate(-670,-278) scale(1,1)"><g><path fill="none" stroke="none"/><text fill="#000000" stroke="none" font-family="Roboto" font-size="18px" font-style="italic" font-weight="normal" text-decoration="none" x="1069" y="496.5">+eraseData()</text></g></g><g transform="translate(-670,-278) scale(1,1)"><rect fill="#C0C0C0" stroke="none" x="1039" y="599" width="260.75390625" height="303" opacity="0.2"/></g><g transform="translate(-670,-278) scale(1,1)"><rect fill="#ffffff" stroke="none" x="1032" y="592" width="260.75390625" height="303"/></g><g transform="translate(-670,-278) scale(1,1)"><path fill="none" stroke="#000000" d="M 1032 592 L 1292.75390625 592 L 1292.75390625 895 L 1032 895 L 1032 592 Z Z" stroke-miterlimit="10"/></g><g transform="translate(-670,-278) scale(1,1)"><path fill="none" stroke="#000000" d="M 1032 640 L 1292.75390625 640" stroke-miterlimit="10"/></g><g transform="translate(-670,-278) scale(1,1)"><path fill="none" stroke="#000000" d="M 1032 688 L 1292.75390625 688" stroke-miterlimit="10"/></g><g transform="translate(-670,-278) scale(1,1)"><g><path fill="none" stroke="none"/><text fill="#000000" stroke="none" font-family="Roboto" font-size="18px" font-style="normal" font-weight="normal" text-decoration="none" x="1120.99365234375" y="614.5">«abstract»</text></g></g><g transform="translate(-670,-278) scale(1,1)"><g><path fill="none" stroke="none"/><text fill="#000000" stroke="none" font-family="Roboto" font-size="18px" font-style="italic" font-weight="bold" text-decoration="none" x="1119.345703125" y="634.5">Bootloader</text></g></g><g transform="translate(-670,-278) scale(1,1)"><g><path fill="none" stroke="none"/><text fill="#000000" stroke="none" font-family="Roboto" font-size="18px" font-style="normal" font-weight="normal" text-decoration="none" x="1037" y="662.5">-state</text></g></g><g transform="translate(-670,-278) scale(1,1)"><g><path fill="none" stroke="none"/><text fill="#000000" stroke="none" font-family="Roboto" font-size="18px" font-style="normal" font-weight="normal" text-decoration="none" x="1037" y="682.5">-is_ready_to_boot</text></g></g><g transform="translate(-670,-278) scale(1,1)"><g><path fill="none" stroke="none"/><text fill="#000000" stroke="none" font-family="Roboto" font-size="18px" font-style="italic" font-weight="normal" text-decoration="none" x="1037" y="710.5">+checkFirmwareIntegrity()</text></g></g><g transform="translate(-670,-278) scale(1,1)"><g><path fill="none" stroke="none"/><text fill="#000000" stroke="none" font-family="Roboto" font-size="18px" font-style="italic" font-weight="normal" text-decoration="none" x="1037" y="730.5">+checkNewFirmwareSignature()</text></g></g><g transform="translate(-670,-278) scale(1,1)"><g><path fill="none" stroke="none"/><text fill="#000000" stroke="none" font-family="Roboto" font-size="18px" font-style="italic" font-weight="normal" text-decoration="none" x="1037" y="750.5">+checkNewFirmwareVersion()</text></g></g><g transform="translate(-670,-278) scale(1,1)"><g><path fill="none" stroke="none"/><text fill="#000000" stroke="none" font-family="Roboto" font-size="18px" font-style="italic" font-weight="normal" text-decoration="none" x="1037" y="770.5">+receiveNewFirmware()</text></g></g><g transform="translate(-670,-278) scale(1,1)"><g><path fill="none" stroke="none"/><text fill="#000000" stroke="none" font-family="Roboto" font-size="18px" font-style="italic" font-weight="normal" text-decoration="none" x="1037" y="790.5">+hasToUpdate()</text></g></g><g transform="translate(-670,-278) scale(1,1)"><g><path fill="none" stroke="none"/><text fill="#000000" stroke="none" font-family="Roboto" font-size="18px" font-style="normal" font-weight="normal" text-decoration="none" x="1037" y="810.5">+getState()</text></g></g><g transform="translate(-670,-278) scale(1,1)"><g><path fill="none" stroke="none"/><text fill="#000000" stroke="none" font-family="Roboto" font-size="18px" font-style="normal" font-weight="normal" text-decoration="none" x="1037" y="830.5">+setState()</text></g></g><g transform="translate(-670,-278) scale(1,1)"><g><path fill="none" stroke="none"/><text fill="#000000" stroke="none" font-family="Roboto" font-size="18px" font-style="normal" font-weight="normal" text-decoration="none" x="1037" y="850.5">+getIsReadyToBoot()</text></g></g><g transform="translate(-670,-278) scale(1,1)"><g><path fill="none" stroke="none"/><text fill="#000000" stroke="none" font-family="Roboto" font-size="18px" font-style="normal" font-weight="normal" text-decoration="none" x="1037" y="870.5">+setIsReadyToBoot()</text></g></g><g transform="translate(-670,-278) scale(1,1)"><g><path fill="none" stroke="none"/><text fill="#000000" stroke="none" font-family="Roboto" font-size="18px" font-style="normal" font-weight="normal" text-decoration="none" x="1037" y="890.5">+launchFirmware()</text></g></g><g transform="translate(-670,-278) scale(1,1)"><path fill="none" stroke="#000000" d="M 1032 743 L 952 743 L 952 493" stroke-miterlimit="10" stroke-dasharray="3"/></g><g transform="translate(-670,-278) scale(1,1)"><path fill="none" stroke="#000000" d="M 956.209517756016 503.16267485762415 L 952 493 L 947.790482243984 503.16267485762415" stroke-miterlimit="10"/></g><g transform="translate(-670,-278) scale(1,1)"><path fill="none" stroke="#000000" d="M 1176 592 L 1176 501" stroke-miterlimit="10" stroke-dasharray="3"/></g><g transform="translate(-670,-278) scale(1,1)"><path fill="none" stroke="#000000" d="M 1180.2095177560159 511.16267485762415 L 1176 501 L 1171.7904822439841 511.16267485762415" stroke-miterlimit="10"/></g><g transform="translate(-670,-278) scale(1,1)"><path fill="none" stroke="#000000" d="M 1293 648 L 1430 648 L 1430 581" stroke-miterlimit="10" stroke-dasharray="3"/></g><g transform="translate(-670,-278) scale(1,1)"><path fill="none" stroke="#000000" d="M 1434.2095177560159 591.1626748576241 L 1430 581 L 1425.7904822439841 591.1626748576241" stroke-miterlimit="10"/></g><g transform="translate(-670,-278) scale(1,1)"><path fill="none" stroke="#000000" d="M 1032 763 L 919 763" stroke-miterlimit="10" stroke-dasharray="3"/></g><g transform="translate(-670,-278) scale(1,1)"><path fill="none" stroke="#000000" d="M 929.1626748576241 758.790482243984 L 919 763 L 929.1626748576241 767.209517756016" stroke-miterlimit="10"/></g><g transform="translate(-670,-278) scale(1,1)"><g><path fill="none" stroke="none"/><text fill="#000000" stroke="none" font-family="Roboto" font-size="16px" font-style="normal" font-weight="normal" text-decoration="none" x="717" y="349">CRIPTOGRAFIA</text></g></g><g transform="translate(-670,-278) scale(1,1)"><g><path fill="none" stroke="none"/><text fill="#000000" stroke="none" font-family="Roboto" font-size="16px" font-style="normal" font-weight="normal" text-decoration="none" x="1029" y="573">BOOTLOADER</text></g></g><g transform="translate(-670,-278) scale(1,1)"><g><path fill="none" stroke="none"/><text fill="#000000" stroke="none" font-family="Roboto" font-size="16px" font-style="normal" font-weight="normal" text-decoration="none" x="717" y="677">COMUNICAÇÃO</text></g></g><g transform="translate(-670,-278) scale(1,1)"><g><path fill="none" stroke="none"/><text fill="#000000" stroke="none" font-family="Roboto" font-size="16px" font-style="normal" font-weight="normal" text-decoration="none" x="1365" y="733">TROCA DE</text><text fill="#000000" stroke="none" font-family="Roboto" font-size="16px" font-style="normal" font-weight="normal" text-decoration="none" x="1365" y="749">CONTEXTO</text></g></g><g transform="translate(-670,-278) scale(1,1)"><g><path fill="none" stroke="none"/><text fill="#000000" stroke="none" font-family="Roboto" font-size="16px" font-style="normal" font-weight="normal" text-decoration="none" x="1365" y="349">GERÊNCIA DE</text><text fill="#000000" stroke="none" font-family="Roboto" font-size="16px" font-style="normal" font-weight="normal" text-decoration="none" x="1365" y="365">MEMÓRIA</text></g></g><g transform="translate(-670,-278) scale(1,1)"><g><path fill="none" stroke="none"/><text fill="#000000" stroke="none" font-family="Roboto" font-size="16px" font-style="normal" font-weight="normal" text-decoration="none" x="1053" y="349">ARMAZENAMENTO</text><text fill="#000000" stroke="none" font-family="Roboto" font-size="16px" font-style="normal" font-weight="normal" text-decoration="none" x="1053" y="365">SEGURO</text></g></g><g transform="translate(-670,-278) scale(1,1)"><path fill="none" stroke="#000000" d="M 1293 788 L 1368 788" stroke-miterlimit="10" stroke-dasharray="3"/></g><g transform="translate(-670,-278) scale(1,1)"><path fill="none" stroke="#000000" d="M 1357.837325142376 792.209517756016 L 1368 788 L 1357.837325142376 783.790482243984" stroke-miterlimit="10"/></g></g></svg>