<svg version="1.1" xmlns="http://www.w3.org/2000/svg" xmlns:xlink="http://www.w3.org/1999/xlink" width="1083" height="908"><defs/><g><text fill="#eeeeee" stroke="none" font-family="Arial" font-size="24px" font-style="normal" font-weight="normal" text-decoration="none" x="0" y="0">UNREGISTERED</text><text fill="#eeeeee" stroke="none" font-family="Arial" font-size="24px" font-style="normal" font-weight="normal" text-decoration="none" x="0" y="30">UNREGISTERED</text><text fill="#eeeeee" stroke="none" font-family="Arial" font-size="24px" font-style="normal" font-weight="normal" text-decoration="none" x="0" y="60">UNREGISTERED</text><text fill="#eeeeee" stroke="none" font-family="Arial" font-size="24px" font-style="normal" font-weight="normal" text-decoration="none" x="0" y="90">UNREGISTERED</text><text fill="#eeeeee" stroke="none" font-family="Arial" font-size="24px" font-style="normal" font-weight="normal" text-decoration="none" x="0" y="120">UNREGISTERED</text><text fill="#eeeeee" stroke="none" font-family="Arial" font-size="24px" font-style="normal" font-weight="normal" text-decoration="none" x="0" y="150">UNREGISTERED</text><text fill="#eeeeee" stroke="none" font-family="Arial" font-size="24px" font-style="normal" font-weight="normal" text-decoration="none" x="0" y="180">UNREGISTERED</text><text fill="#eeeeee" stroke="none" font-family="Arial" font-size="24px" font-style="normal" font-weight="normal" text-decoration="none" x="0" y="210">UNREGISTERED</text><text fill="#eeeeee" stroke="none" font-family="Arial" font-size="24px" font-style="normal" font-weight="normal" text-decoration="none" x="0" y="240">UNREGISTERED</text><text fill="#eeeeee" stroke="none" font-family="Arial" font-size="24px" font-style="normal" font-weight="normal" text-decoration="none" x="0" y="270">UNREGISTERED</text><text fill="#eeeeee" stroke="none" font-family="Arial" font-size="24px" font-style="normal" font-weight="normal" text-decoration="none" x="0" y="300">UNREGISTERED</text><text fill="#eeeeee" stroke="none" font-family="Arial" font-size="24px" font-style="normal" font-weight="normal" text-decoration="none" x="0" y="330">UNREGISTERED</text><text fill="#eeeeee" stroke="none" font-family="Arial" font-size="24px" font-style="normal" font-weight="normal" text-decoration="none" x="0" y="360">UNREGISTERED</text><text fill="#eeeeee" stroke="none" font-family="Arial" font-size="24px" font-style="normal" font-weight="normal" text-decoration="none" x="0" y="390">UNREGISTERED</text><text fill="#eeeeee" stroke="none" font-family="Arial" font-size="24px" font-style="normal" font-weight="normal" text-decoration="none" x="0" y="420">UNREGISTERED</text><text fill="#eeeeee" stroke="none" font-family="Arial" font-size="24px" font-style="normal" font-weight="normal" text-decoration="none" x="0" y="450">UNREGISTERED</text><text fill="#eeeeee" stroke="none" font-family="Arial" font-size="24px" font-style="normal" font-weight="normal" text-decoration="none" x="0" y="480">UNREGISTERED</text><text fill="#eeeeee" stroke="none" font-family="Arial" font-size="24px" font-style="normal" font-weight="normal" text-decoration="none" x="0" y="510">UNREGISTERED</text><text fill="#eeeeee" stroke="none" font-family="Arial" font-size="24px" font-style="normal" font-weight="normal" text-decoration="none" x="0" y="540">UNREGISTERED</text><text fill="#eeeeee" stroke="none" font-family="Arial" font-size="24px" font-style="normal" font-weight="normal" text-decoration="none" x="0" y="570">UNREGISTERED</text><text fill="#eeeeee" stroke="none" font-family="Arial" font-size="24px" font-style="normal" font-weight="normal" text-decoration="none" x="0" y="600">UNREGISTERED</text><text fill="#eeeeee" stroke="none" font-family="Arial" font-size="24px" font-style="normal" font-weight="normal" text-decoration="none" x="0" y="630">UNREGISTERED</text><text fill="#eeeeee" stroke="none" font-family="Arial" font-size="24px" font-style="normal" font-weight="normal" text-decoration="none" x="0" y="660">UNREGISTERED</text><text fill="#eeeeee" stroke="none" font-family="Arial" font-size="24px" font-style="normal" font-weight="normal" text-decoration="none" x="0" y="690">UNREGISTERED</text><text fill="#eeeeee" stroke="none" font-family="Arial" font-size="24px" font-style="normal" font-weight="normal" text-decoration="none" x="0" y="720">UNREGISTERED</text><text fill="#eeeeee" stroke="none" font-family="Arial" font-size="24px" font-style="normal" font-weight="normal" text-decoration="none" x="0" y="750">UNREGISTERED</text><text fill="#eeeeee" stroke="none" font-family="Arial" font-size="24px" font-style="normal" font-weight="normal" text-decoration="none" x="0" y="780">UNREGISTERED</text><text fill="#eeeeee" stroke="none" font-family="Arial" font-size="24px" font-style="normal" font-weight="normal" text-decoration="none" x="0" y="810">UNREGISTERED</text><text fill="#eeeeee" stroke="none" font-family="Arial" font-size="24px" font-style="normal" font-weight="normal" text-decoration="none" x="0" y="840">UNREGISTERED</text><text fill="#eeeeee" stroke="none" font-family="Arial" font-size="24px" font-style="normal" font-weight="normal" text-decoration="none" x="0" y="870">UNREGISTERED</text><text fill="#eeeeee" stroke="none" font-family="Arial" font-size="24px" font-style="normal" font-weight="normal" text-decoration="none" x="0" y="900">UNREGISTERED</text><text fill="#eeeeee" stroke="none" font-family="Arial" font-size="24px" font-style="normal" font-weight="normal" text-decoration="none" x="200" y="0">UNREGISTERED</text><text fill="#eeeeee" stroke="none" font-family="Arial" font-size="24px" font-style="normal" font-weight="normal" text-decoration="none" x="200" y="30">UNREGISTERED</text><text fill="#eeeeee" stroke="none" font-family="Arial" font-size="24px" font-style="normal" font-weight="normal" text-decoration="none" x="200" y="60">UNREGISTERED</text><text fill="#eeeeee" stroke="none" font-family="Arial" font-size="24px" font-style="normal" font-weight="normal" text-decoration="none" x="200" y="90">UNREGISTERED</text><text fill="#eeeeee" stroke="none" font-family="Arial" font-size="24px" font-style="normal" font-weight="normal" text-decoration="none" x="200" y="120">UNREGISTERED</text><text fill="#eeeeee" stroke="none" font-family="Arial" font-size="24px" font-style="normal" font-weight="normal" text-decoration="none" x="200" y="150">UNREGISTERED</text><text fill="#eeeeee" stroke="none" font-family="Arial" font-size="24px" font-style="normal" font-weight="normal" text-decoration="none" x="200" y="180">UNREGISTERED</text><text fill="#eeeeee" stroke="none" font-family="Arial" font-size="24px" font-style="normal" font-weight="normal" text-decoration="none" x="200" y="210">UNREGISTERED</text><text fill="#eeeeee" stroke="none" font-family="Arial" font-size="24px" font-style="normal" font-weight="normal" text-decoration="none" x="200" y="240">UNREGISTERED</text><text fill="#eeeeee" stroke="none" font-family="Arial" font-size="24px" font-style="normal" font-weight="normal" text-decoration="none" x="200" y="270">UNREGISTERED</text><text fill="#eeeeee" stroke="none" font-family="Arial" font-size="24px" font-style="normal" font-weight="normal" text-decoration="none" x="200" y="300">UNREGISTERED</text><text fill="#eeeeee" stroke="none" font-family="Arial" font-size="24px" font-style="normal" font-weight="normal" text-decoration="none" x="200" y="330">UNREGISTERED</text><text fill="#eeeeee" stroke="none" font-family="Arial" font-size="24px" font-style="normal" font-weight="normal" text-decoration="none" x="200" y="360">UNREGISTERED</text><text fill="#eeeeee" stroke="none" font-family="Arial" font-size="24px" font-style="normal" font-weight="normal" text-decoration="none" x="200" y="390">UNREGISTERED</text><text fill="#eeeeee" stroke="none" font-family="Arial" font-size="24px" font-style="normal" font-weight="normal" text-decoration="none" x="200" y="420">UNREGISTERED</text><text fill="#eeeeee" stroke="none" font-family="Arial" font-size="24px" font-style="normal" font-weight="normal" text-decoration="none" x="200" y="450">UNREGISTERED</text><text fill="#eeeeee" stroke="none" font-family="Arial" font-size="24px" font-style="normal" font-weight="normal" text-decoration="none" x="200" y="480">UNREGISTERED</text><text fill="#eeeeee" stroke="none" font-family="Arial" font-size="24px" font-style="normal" font-weight="normal" text-decoration="none" x="200" y="510">UNREGISTERED</text><text fill="#eeeeee" stroke="none" font-family="Arial" font-size="24px" font-style="normal" font-weight="normal" text-decoration="none" x="200" y="540">UNREGISTERED</text><text fill="#eeeeee" stroke="none" font-family="Arial" font-size="24px" font-style="normal" font-weight="normal" text-decoration="none" x="200" y="570">UNREGISTERED</text><text fill="#eeeeee" stroke="none" font-family="Arial" font-size="24px" font-style="normal" font-weight="normal" text-decoration="none" x="200" y="600">UNREGISTERED</text><text fill="#eeeeee" stroke="none" font-family="Arial" font-size="24px" font-style="normal" font-weight="normal" text-decoration="none" x="200" y="630">UNREGISTERED</text><text fill="#eeeeee" stroke="none" font-family="Arial" font-size="24px" font-style="normal" font-weight="normal" text-decoration="none" x="200" y="660">UNREGISTERED</text><text fill="#eeeeee" stroke="none" font-family="Arial" font-size="24px" font-style="normal" font-weight="normal" text-decoration="none" x="200" y="690">UNREGISTERED</text><text fill="#eeeeee" stroke="none" font-family="Arial" font-size="24px" font-style="normal" font-weight="normal" text-decoration="none" x="200" y="720">UNREGISTERED</text><text fill="#eeeeee" stroke="none" font-family="Arial" font-size="24px" font-style="normal" font-weight="normal" text-decoration="none" x="200" y="750">UNREGISTERED</text><text fill="#eeeeee" stroke="none" font-family="Arial" font-size="24px" font-style="normal" font-weight="normal" text-decoration="none" x="200" y="780">UNREGISTERED</text><text fill="#eeeeee" stroke="none" font-family="Arial" font-size="24px" font-style="normal" font-weight="normal" text-decoration="none" x="200" y="810">UNREGISTERED</text><text fill="#eeeeee" stroke="none" font-family="Arial" font-size="24px" font-style="normal" font-weight="normal" text-decoration="none" x="200" y="840">UNREGISTERED</text><text fill="#eeeeee" stroke="none" font-family="Arial" font-size="24px" font-style="normal" font-weight="normal" text-decoration="none" x="200" y="870">UNREGISTERED</text><text fill="#eeeeee" stroke="none" font-family="Arial" font-size="24px" font-style="normal" font-weight="normal" text-decoration="none" x="200" y="900">UNREGISTERED</text><text fill="#eeeeee" stroke="none" font-family="Arial" font-size="24px" font-style="normal" font-weight="normal" text-decoration="none" x="400" y="0">UNREGISTERED</text><text fill="#eeeeee" stroke="none" font-family="Arial" font-size="24px" font-style="normal" font-weight="normal" text-decoration="none" x="400" y="30">UNREGISTERED</text><text fill="#eeeeee" stroke="none" font-family="Arial" font-size="24px" font-style="normal" font-weight="normal" text-decoration="none" x="400" y="60">UNREGISTERED</text><text fill="#eeeeee" stroke="none" font-family="Arial" font-size="24px" font-style="normal" font-weight="normal" text-decoration="none" x="400" y="90">UNREGISTERED</text><text fill="#eeeeee" stroke="none" font-family="Arial" font-size="24px" font-style="normal" font-weight="normal" text-decoration="none" x="400" y="120">UNREGISTERED</text><text fill="#eeeeee" stroke="none" font-family="Arial" font-size="24px" font-style="normal" font-weight="normal" text-decoration="none" x="400" y="150">UNREGISTERED</text><text fill="#eeeeee" stroke="none" font-family="Arial" font-size="24px" font-style="normal" font-weight="normal" text-decoration="none" x="400" y="180">UNREGISTERED</text><text fill="#eeeeee" stroke="none" font-family="Arial" font-size="24px" font-style="normal" font-weight="normal" text-decoration="none" x="400" y="210">UNREGISTERED</text><text fill="#eeeeee" stroke="none" font-family="Arial" font-size="24px" font-style="normal" font-weight="normal" text-decoration="none" x="400" y="240">UNREGISTERED</text><text fill="#eeeeee" stroke="none" font-family="Arial" font-size="24px" font-style="normal" font-weight="normal" text-decoration="none" x="400" y="270">UNREGISTERED</text><text fill="#eeeeee" stroke="none" font-family="Arial" font-size="24px" font-style="normal" font-weight="normal" text-decoration="none" x="400" y="300">UNREGISTERED</text><text fill="#eeeeee" stroke="none" font-family="Arial" font-size="24px" font-style="normal" font-weight="normal" text-decoration="none" x="400" y="330">UNREGISTERED</text><text fill="#eeeeee" stroke="none" font-family="Arial" font-size="24px" font-style="normal" font-weight="normal" text-decoration="none" x="400" y="360">UNREGISTERED</text><text fill="#eeeeee" stroke="none" font-family="Arial" font-size="24px" font-style="normal" font-weight="normal" text-decoration="none" x="400" y="390">UNREGISTERED</text><text fill="#eeeeee" stroke="none" font-family="Arial" font-size="24px" font-style="normal" font-weight="normal" text-decoration="none" x="400" y="420">UNREGISTERED</text><text fill="#eeeeee" stroke="none" font-family="Arial" font-size="24px" font-style="normal" font-weight="normal" text-decoration="none" x="400" y="450">UNREGISTERED</text><text fill="#eeeeee" stroke="none" font-family="Arial" font-size="24px" font-style="normal" font-weight="normal" text-decoration="none" x="400" y="480">UNREGISTERED</text><text fill="#eeeeee" stroke="none" font-family="Arial" font-size="24px" font-style="normal" font-weight="normal" text-decoration="none" x="400" y="510">UNREGISTERED</text><text fill="#eeeeee" stroke="none" font-family="Arial" font-size="24px" font-style="normal" font-weight="normal" text-decoration="none" x="400" y="540">UNREGISTERED</text><text fill="#eeeeee" stroke="none" font-family="Arial" font-size="24px" font-style="normal" font-weight="normal" text-decoration="none" x="400" y="570">UNREGISTERED</text><text fill="#eeeeee" stroke="none" font-family="Arial" font-size="24px" font-style="normal" font-weight="normal" text-decoration="none" x="400" y="600">UNREGISTERED</text><text fill="#eeeeee" stroke="none" font-family="Arial" font-size="24px" font-style="normal" font-weight="normal" text-decoration="none" x="400" y="630">UNREGISTERED</text><text fill="#eeeeee" stroke="none" font-family="Arial" font-size="24px" font-style="normal" font-weight="normal" text-decoration="none" x="400" y="660">UNREGISTERED</text><text fill="#eeeeee" stroke="none" font-family="Arial" font-size="24px" font-style="normal" font-weight="normal" text-decoration="none" x="400" y="690">UNREGISTERED</text><text fill="#eeeeee" stroke="none" font-family="Arial" font-size="24px" font-style="normal" font-weight="normal" text-decoration="none" x="400" y="720">UNREGISTERED</text><text fill="#eeeeee" stroke="none" font-family="Arial" font-size="24px" font-style="normal" font-weight="normal" text-decoration="none" x="400" y="750">UNREGISTERED</text><text fill="#eeeeee" stroke="none" font-family="Arial" font-size="24px" font-style="normal" font-weight="normal" text-decoration="none" x="400" y="780">UNREGISTERED</text><text fill="#eeeeee" stroke="none" font-family="Arial" font-size="24px" font-style="normal" font-weight="normal" text-decoration="none" x="400" y="810">UNREGISTERED</text><text fill="#eeeeee" stroke="none" font-family="Arial" font-size="24px" font-style="normal" font-weight="normal" text-decoration="none" x="400" y="840">UNREGISTERED</text><text fill="#eeeeee" stroke="none" font-family="Arial" font-size="24px" font-style="normal" font-weight="normal" text-decoration="none" x="400" y="870">UNREGISTERED</text><text fill="#eeeeee" stroke="none" font-family="Arial" font-size="24px" font-style="normal" font-weight="normal" text-decoration="none" x="400" y="900">UNREGISTERED</text><text fill="#eeeeee" stroke="none" font-family="Arial" font-size="24px" font-style="normal" font-weight="normal" text-decoration="none" x="600" y="0">UNREGISTERED</text><text fill="#eeeeee" stroke="none" font-family="Arial" font-size="24px" font-style="normal" font-weight="normal" text-decoration="none" x="600" y="30">UNREGISTERED</text><text fill="#eeeeee" stroke="none" font-family="Arial" font-size="24px" font-style="normal" font-weight="normal" text-decoration="none" x="600" y="60">UNREGISTERED</text><text fill="#eeeeee" stroke="none" font-family="Arial" font-size="24px" font-style="normal" font-weight="normal" text-decoration="none" x="600" y="90">UNREGISTERED</text><text fill="#eeeeee" stroke="none" font-family="Arial" font-size="24px" font-style="normal" font-weight="normal" text-decoration="none" x="600" y="120">UNREGISTERED</text><text fill="#eeeeee" stroke="none" font-family="Arial" font-size="24px" font-style="normal" font-weight="normal" text-decoration="none" x="600" y="150">UNREGISTERED</text><text fill="#eeeeee" stroke="none" font-family="Arial" font-size="24px" font-style="normal" font-weight="normal" text-decoration="none" x="600" y="180">UNREGISTERED</text><text fill="#eeeeee" stroke="none" font-family="Arial" font-size="24px" font-style="normal" font-weight="normal" text-decoration="none" x="600" y="210">UNREGISTERED</text><text fill="#eeeeee" stroke="none" font-family="Arial" font-size="24px" font-style="normal" font-weight="normal" text-decoration="none" x="600" y="240">UNREGISTERED</text><text fill="#eeeeee" stroke="none" font-family="Arial" font-size="24px" font-style="normal" font-weight="normal" text-decoration="none" x="600" y="270">UNREGISTERED</text><text fill="#eeeeee" stroke="none" font-family="Arial" font-size="24px" font-style="normal" font-weight="normal" text-decoration="none" x="600" y="300">UNREGISTERED</text><text fill="#eeeeee" stroke="none" font-family="Arial" font-size="24px" font-style="normal" font-weight="normal" text-decoration="none" x="600" y="330">UNREGISTERED</text><text fill="#eeeeee" stroke="none" font-family="Arial" font-size="24px" font-style="normal" font-weight="normal" text-decoration="none" x="600" y="360">UNREGISTERED</text><text fill="#eeeeee" stroke="none" font-family="Arial" font-size="24px" font-style="normal" font-weight="normal" text-decoration="none" x="600" y="390">UNREGISTERED</text><text fill="#eeeeee" stroke="none" font-family="Arial" font-size="24px" font-style="normal" font-weight="normal" text-decoration="none" x="600" y="420">UNREGISTERED</text><text fill="#eeeeee" stroke="none" font-family="Arial" font-size="24px" font-style="normal" font-weight="normal" text-decoration="none" x="600" y="450">UNREGISTERED</text><text fill="#eeeeee" stroke="none" font-family="Arial" font-size="24px" font-style="normal" font-weight="normal" text-decoration="none" x="600" y="480">UNREGISTERED</text><text fill="#eeeeee" stroke="none" font-family="Arial" font-size="24px" font-style="normal" font-weight="normal" text-decoration="none" x="600" y="510">UNREGISTERED</text><text fill="#eeeeee" stroke="none" font-family="Arial" font-size="24px" font-style="normal" font-weight="normal" text-decoration="none" x="600" y="540">UNREGISTERED</text><text fill="#eeeeee" stroke="none" font-family="Arial" font-size="24px" font-style="normal" font-weight="normal" text-decoration="none" x="600" y="570">UNREGISTERED</text><text fill="#eeeeee" stroke="none" font-family="Arial" font-size="24px" font-style="normal" font-weight="normal" text-decoration="none" x="600" y="600">UNREGISTERED</text><text fill="#eeeeee" stroke="none" font-family="Arial" font-size="24px" font-style="normal" font-weight="normal" text-decoration="none" x="600" y="630">UNREGISTERED</text><text fill="#eeeeee" stroke="none" font-family="Arial" font-size="24px" font-style="normal" font-weight="normal" text-decoration="none" x="600" y="660">UNREGISTERED</text><text fill="#eeeeee" stroke="none" font-family="Arial" font-size="24px" font-style="normal" font-weight="normal" text-decoration="none" x="600" y="690">UNREGISTERED</text><text fill="#eeeeee" stroke="none" font-family="Arial" font-size="24px" font-style="normal" font-weight="normal" text-decoration="none" x="600" y="720">UNREGISTERED</text><text fill="#eeeeee" stroke="none" font-family="Arial" font-size="24px" font-style="normal" font-weight="normal" text-decoration="none" x="600" y="750">UNREGISTERED</text><text fill="#eeeeee" stroke="none" font-family="Arial" font-size="24px" font-style="normal" font-weight="normal" text-decoration="none" x="600" y="780">UNREGISTERED</text><text fill="#eeeeee" stroke="none" font-family="Arial" font-size="24px" font-style="normal" font-weight="normal" text-decoration="none" x="600" y="810">UNREGISTERED</text><text fill="#eeeeee" stroke="none" font-family="Arial" font-size="24px" font-style="normal" font-weight="normal" text-decoration="none" x="600" y="840">UNREGISTERED</text><text fill="#eeeeee" stroke="none" font-family="Arial" font-size="24px" font-style="normal" font-weight="normal" text-decoration="none" x="600" y="870">UNREGISTERED</text><text fill="#eeeeee" stroke="none" font-family="Arial" font-size="24px" font-style="normal" font-weight="normal" text-decoration="none" x="600" y="900">UNREGISTERED</text><text fill="#eeeeee" stroke="none" font-family="Arial" font-size="24px" font-style="normal" font-weight="normal" text-decoration="none" x="800" y="0">UNREGISTERED</text><text fill="#eeeeee" stroke="none" font-family="Arial" font-size="24px" font-style="normal" font-weight="normal" text-decoration="none" x="800" y="30">UNREGISTERED</text><text fill="#eeeeee" stroke="none" font-family="Arial" font-size="24px" font-style="normal" font-weight="normal" text-decoration="none" x="800" y="60">UNREGISTERED</text><text fill="#eeeeee" stroke="none" font-family="Arial" font-size="24px" font-style="normal" font-weight="normal" text-decoration="none" x="800" y="90">UNREGISTERED</text><text fill="#eeeeee" stroke="none" font-family="Arial" font-size="24px" font-style="normal" font-weight="normal" text-decoration="none" x="800" y="120">UNREGISTERED</text><text fill="#eeeeee" stroke="none" font-family="Arial" font-size="24px" font-style="normal" font-weight="normal" text-decoration="none" x="800" y="150">UNREGISTERED</text><text fill="#eeeeee" stroke="none" font-family="Arial" font-size="24px" font-style="normal" font-weight="normal" text-decoration="none" x="800" y="180">UNREGISTERED</text><text fill="#eeeeee" stroke="none" font-family="Arial" font-size="24px" font-style="normal" font-weight="normal" text-decoration="none" x="800" y="210">UNREGISTERED</text><text fill="#eeeeee" stroke="none" font-family="Arial" font-size="24px" font-style="normal" font-weight="normal" text-decoration="none" x="800" y="240">UNREGISTERED</text><text fill="#eeeeee" stroke="none" font-family="Arial" font-size="24px" font-style="normal" font-weight="normal" text-decoration="none" x="800" y="270">UNREGISTERED</text><text fill="#eeeeee" stroke="none" font-family="Arial" font-size="24px" font-style="normal" font-weight="normal" text-decoration="none" x="800" y="300">UNREGISTERED</text><text fill="#eeeeee" stroke="none" font-family="Arial" font-size="24px" font-style="normal" font-weight="normal" text-decoration="none" x="800" y="330">UNREGISTERED</text><text fill="#eeeeee" stroke="none" font-family="Arial" font-size="24px" font-style="normal" font-weight="normal" text-decoration="none" x="800" y="360">UNREGISTERED</text><text fill="#eeeeee" stroke="none" font-family="Arial" font-size="24px" font-style="normal" font-weight="normal" text-decoration="none" x="800" y="390">UNREGISTERED</text><text fill="#eeeeee" stroke="none" font-family="Arial" font-size="24px" font-style="normal" font-weight="normal" text-decoration="none" x="800" y="420">UNREGISTERED</text><text fill="#eeeeee" stroke="none" font-family="Arial" font-size="24px" font-style="normal" font-weight="normal" text-decoration="none" x="800" y="450">UNREGISTERED</text><text fill="#eeeeee" stroke="none" font-family="Arial" font-size="24px" font-style="normal" font-weight="normal" text-decoration="none" x="800" y="480">UNREGISTERED</text><text fill="#eeeeee" stroke="none" font-family="Arial" font-size="24px" font-style="normal" font-weight="normal" text-decoration="none" x="800" y="510">UNREGISTERED</text><text fill="#eeeeee" stroke="none" font-family="Arial" font-size="24px" font-style="normal" font-weight="normal" text-decoration="none" x="800" y="540">UNREGISTERED</text><text fill="#eeeeee" stroke="none" font-family="Arial" font-size="24px" font-style="normal" font-weight="normal" text-decoration="none" x="800" y="570">UNREGISTERED</text><text fill="#eeeeee" stroke="none" font-family="Arial" font-size="24px" font-style="normal" font-weight="normal" text-decoration="none" x="800" y="600">UNREGISTERED</text><text fill="#eeeeee" stroke="none" font-family="Arial" font-size="24px" font-style="normal" font-weight="normal" text-decoration="none" x="800" y="630">UNREGISTERED</text><text fill="#eeeeee" stroke="none" font-family="Arial" font-size="24px" font-style="normal" font-weight="normal" text-decoration="none" x="800" y="660">UNREGISTERED</text><text fill="#eeeeee" stroke="none" font-family="Arial" font-size="24px" font-style="normal" font-weight="normal" text-decoration="none" x="800" y="690">UNREGISTERED</text><text fill="#eeeeee" stroke="none" font-family="Arial" font-size="24px" font-style="normal" font-weight="normal" text-decoration="none" x="800" y="720">UNREGISTERED</text><text fill="#eeeeee" stroke="none" font-family="Arial" font-size="24px" font-style="normal" font-weight="normal" text-decoration="none" x="800" y="750">UNREGISTERED</text><text fill="#eeeeee" stroke="none" font-family="Arial" font-size="24px" font-style="normal" font-weight="normal" text-decoration="none" x="800" y="780">UNREGISTERED</text><text fill="#eeeeee" stroke="none" font-family="Arial" font-size="24px" font-style="normal" font-weight="normal" text-decoration="none" x="800" y="810">UNREGISTERED</text><text fill="#eeeeee" stroke="none" font-family="Arial" font-size="24px" font-style="normal" font-weight="normal" text-decoration="none" x="800" y="840">UNREGISTERED</text><text fill="#eeeeee" stroke="none" font-family="Arial" font-size="24px" font-style="normal" font-weight="normal" text-decoration="none" x="800" y="870">UNREGISTERED</text><text fill="#eeeeee" stroke="none" font-family="Arial" font-size="24px" font-style="normal" font-weight="normal" text-decoration="none" x="800" y="900">UNREGISTERED</text><text fill="#eeeeee" stroke="none" font-family="Arial" font-size="24px" font-style="normal" font-weight="normal" text-decoration="none" x="1000" y="0">UNREGISTERED</text><text fill="#eeeeee" stroke="none" font-family="Arial" font-size="24px" font-style="normal" font-weight="normal" text-decoration="none" x="1000" y="30">UNREGISTERED</text><text fill="#eeeeee" stroke="none" font-family="Arial" font-size="24px" font-style="normal" font-weight="normal" text-decoration="none" x="1000" y="60">UNREGISTERED</text><text fill="#eeeeee" stroke="none" font-family="Arial" font-size="24px" font-style="normal" font-weight="normal" text-decoration="none" x="1000" y="90">UNREGISTERED</text><text fill="#eeeeee" stroke="none" font-family="Arial" font-size="24px" font-style="normal" font-weight="normal" text-decoration="none" x="1000" y="120">UNREGISTERED</text><text fill="#eeeeee" stroke="none" font-family="Arial" font-size="24px" font-style="normal" font-weight="normal" text-decoration="none" x="1000" y="150">UNREGISTERED</text><text fill="#eeeeee" stroke="none" font-family="Arial" font-size="24px" font-style="normal" font-weight="normal" text-decoration="none" x="1000" y="180">UNREGISTERED</text><text fill="#eeeeee" stroke="none" font-family="Arial" font-size="24px" font-style="normal" font-weight="normal" text-decoration="none" x="1000" y="210">UNREGISTERED</text><text fill="#eeeeee" stroke="none" font-family="Arial" font-size="24px" font-style="normal" font-weight="normal" text-decoration="none" x="1000" y="240">UNREGISTERED</text><text fill="#eeeeee" stroke="none" font-family="Arial" font-size="24px" font-style="normal" font-weight="normal" text-decoration="none" x="1000" y="270">UNREGISTERED</text><text fill="#eeeeee" stroke="none" font-family="Arial" font-size="24px" font-style="normal" font-weight="normal" text-decoration="none" x="1000" y="300">UNREGISTERED</text><text fill="#eeeeee" stroke="none" font-family="Arial" font-size="24px" font-style="normal" font-weight="normal" text-decoration="none" x="1000" y="330">UNREGISTERED</text><text fill="#eeeeee" stroke="none" font-family="Arial" font-size="24px" font-style="normal" font-weight="normal" text-decoration="none" x="1000" y="360">UNREGISTERED</text><text fill="#eeeeee" stroke="none" font-family="Arial" font-size="24px" font-style="normal" font-weight="normal" text-decoration="none" x="1000" y="390">UNREGISTERED</text><text fill="#eeeeee" stroke="none" font-family="Arial" font-size="24px" font-style="normal" font-weight="normal" text-decoration="none" x="1000" y="420">UNREGISTERED</text><text fill="#eeeeee" stroke="none" font-family="Arial" font-size="24px" font-style="normal" font-weight="normal" text-decoration="none" x="1000" y="450">UNREGISTERED</text><text fill="#eeeeee" stroke="none" font-family="Arial" font-size="24px" font-style="normal" font-weight="normal" text-decoration="none" x="1000" y="480">UNREGISTERED</text><text fill="#eeeeee" stroke="none" font-family="Arial" font-size="24px" font-style="normal" font-weight="normal" text-decoration="none" x="1000" y="510">UNREGISTERED</text><text fill="#eeeeee" stroke="none" font-family="Arial" font-size="24px" font-style="normal" font-weight="normal" text-decoration="none" x="1000" y="540">UNREGISTERED</text><text fill="#eeeeee" stroke="none" font-family="Arial" font-size="24px" font-style="normal" font-weight="normal" text-decoration="none" x="1000" y="570">UNREGISTERED</text><text fill="#eeeeee" stroke="none" font-family="Arial" font-size="24px" font-style="normal" font-weight="normal" text-decoration="none" x="1000" y="600">UNREGISTERED</text><text fill="#eeeeee" stroke="none" font-family="Arial" font-size="24px" font-style="normal" font-weight="normal" text-decoration="none" x="1000" y="630">UNREGISTERED</text><text fill="#eeeeee" stroke="none" font-family="Arial" font-size="24px" font-style="normal" font-weight="normal" text-decoration="none" x="1000" y="660">UNREGISTERED</text><text fill="#eeeeee" stroke="none" font-family="Arial" font-size="24px" font-style="normal" font-weight="normal" text-decoration="none" x="1000" y="690">UNREGISTERED</text><text fill="#eeeeee" stroke="none" font-family="Arial" font-size="24px" font-style="normal" font-weight="normal" text-decoration="none" x="1000" y="720">UNREGISTERED</text><text fill="#eeeeee" stroke="none" font-family="Arial" font-size="24px" font-style="normal" font-weight="normal" text-decoration="none" x="1000" y="750">UNREGISTERED</text><text fill="#eeeeee" stroke="none" font-family="Arial" font-size="24px" font-style="normal" font-weight="normal" text-decoration="none" x="1000" y="780">UNREGISTERED</text><text fill="#eeeeee" stroke="none" font-family="Arial" font-size="24px" font-style="normal" font-weight="normal" text-decoration="none" x="1000" y="810">UNREGISTERED</text><text fill="#eeeeee" stroke="none" font-family="Arial" font-size="24px" font-style="normal" font-weight="normal" text-decoration="none" x="1000" y="840">UNREGISTERED</text><text fill="#eeeeee" stroke="none" font-family="Arial" font-size="24px" font-style="normal" font-weight="normal" text-decoration="none" x="1000" y="870">UNREGISTERED</text><text fill="#eeeeee" stroke="none" font-family="Arial" font-size="24px" font-style="normal" font-weight="normal" text-decoration="none" x="1000" y="900">UNREGISTERED</text><g transform="translate(-206,-198) scale(1,1)"><path fill="none" stroke="#000000" d="M 216 208 L 1279 208 L 1279 1096 L 216 1096 L 216 208" stroke-miterlimit="10"/></g><g transform="translate(-206,-198) scale(1,1)"><path fill="#ffffff" stroke="none" d="M 216 208 L 216 239 L 441.0859375 239 L 456.5859375 223.5 L 456.5859375 208 L 216 208"/></g><g transform="translate(-206,-198) scale(1,1)"><path fill="none" stroke="#000000" d="M 216 208 L 216 239 L 441.0859375 239 L 456.5859375 223.5 L 456.5859375 208 L 216 208 L 216 208" stroke-miterlimit="10"/></g><g transform="translate(-206,-198) scale(1,1)"><g><path fill="none" stroke="none"/><text fill="#000000" stroke="none" font-family="Arial" font-size="22px" font-style="normal" font-weight="normal" text-decoration="none" x="294.2353515625" y="234.5">Experimento 5</text></g></g><g transform="translate(-206,-198) scale(1,1)"><g><path fill="none" stroke="none"/><text fill="#000000" stroke="none" font-family="Arial" font-size="22px" font-style="normal" font-weight="bold" text-decoration="none" x="221" y="234.5">activity</text></g></g><g transform="translate(-206,-198) scale(1,1)"><rect fill="#ffeaad" stroke="none" x="728" y="248" width="533" height="32"/></g><g transform="translate(-206,-198) scale(1,1)"><path fill="none" stroke="#000000" d="M 728 248 L 1261 248 L 1261 280 L 728 280 L 728 248 Z Z" stroke-miterlimit="10" stroke-width="2"/></g><g transform="translate(-206,-198) scale(1,1)"><path fill="none" stroke="#000000" d="M 728 1080 L 728 248 L 1261 248 L 1261 1080" stroke-miterlimit="10" stroke-width="2"/></g><g transform="translate(-206,-198) scale(1,1)"><g><path fill="none" stroke="none"/><text fill="#000000" stroke="none" font-family="Arial" font-size="24px" font-style="normal" font-weight="normal" text-decoration="none" x="928.939453125" y="276">Transmissor</text></g></g><g transform="translate(-206,-198) scale(1,1)"><rect fill="#ffeaad" stroke="none" x="231" y="248" width="497" height="32"/></g><g transform="translate(-206,-198) scale(1,1)"><path fill="none" stroke="#000000" d="M 231 248 L 728 248 L 728 280 L 231 280 L 231 248 Z Z" stroke-miterlimit="10" stroke-width="2"/></g><g transform="translate(-206,-198) scale(1,1)"><path fill="none" stroke="#000000" d="M 231 1080 L 231 248 L 728 248 L 728 1080" stroke-miterlimit="10" stroke-width="2"/></g><g transform="translate(-206,-198) scale(1,1)"><g><path fill="none" stroke="none"/><text fill="#000000" stroke="none" font-family="Arial" font-size="24px" font-style="normal" font-weight="normal" text-decoration="none" x="421.48046875" y="276">Dispositivo</text></g></g><g transform="translate(-206,-198) scale(1,1)"><path fill="#C0C0C0" stroke="none" d="M 355 359 L 608 359 Q 618 359 618 369 L 618 398 Q 618 408 608 408 L 355 408 Q 345 408 345 398 L 345 369 Q 345 359 355 359 Z" opacity="0.2"/></g><g transform="translate(-206,-198) scale(1,1)"><path fill="#ffeaad" stroke="none" d="M 348 352 L 601 352 Q 611 352 611 362 L 611 391 Q 611 401 601 401 L 348 401 Q 338 401 338 391 L 338 362 Q 338 352 348 352 Z"/></g><g transform="translate(-206,-198) scale(1,1)"><path fill="none" stroke="#000000" d="M 348 352 L 601 352 Q 611 352 611 362 L 611 391 Q 611 401 601 401 L 348 401 Q 338 401 338 391 L 338 362 Q 338 352 348 352 Z" stroke-miterlimit="10"/></g><g transform="translate(-206,-198) scale(1,1)"><g><path fill="none" stroke="none"/><text fill="#000000" stroke="none" font-family="roboto" font-size="22px" font-style="normal" font-weight="bold" text-decoration="none" x="371.6328125" y="380.5">Prepara o dispositivo</text></g></g><g transform="translate(-206,-198) scale(1,1)"><path fill="#C0C0C0" stroke="none" d="M 307 455 L 656 455 Q 666 455 666 465 L 666 494 Q 666 504 656 504 L 307 504 Q 297 504 297 494 L 297 465 Q 297 455 307 455 Z" opacity="0.2"/></g><g transform="translate(-206,-198) scale(1,1)"><path fill="#ffeaad" stroke="none" d="M 300 448 L 649 448 Q 659 448 659 458 L 659 487 Q 659 497 649 497 L 300 497 Q 290 497 290 487 L 290 458 Q 290 448 300 448 Z"/></g><g transform="translate(-206,-198) scale(1,1)"><path fill="none" stroke="#000000" d="M 300 448 L 649 448 Q 659 448 659 458 L 659 487 Q 659 497 649 497 L 300 497 Q 290 497 290 487 L 290 458 Q 290 448 300 448 Z" stroke-miterlimit="10"/></g><g transform="translate(-206,-198) scale(1,1)"><g><path fill="none" stroke="none"/><text fill="#000000" stroke="none" font-family="Roboto" font-size="22px" font-style="normal" font-weight="bold" text-decoration="none" x="326.04833984375" y="476.5">Aguarda início da transmissão</text></g></g><g transform="translate(-206,-198) scale(1,1)"><path fill="#C0C0C0" stroke="none" d="M 465 323 C 465 316.3725824 472.3873008 311 481.5 311 C 490.6126992 311 498 316.3725824 498 323 C 498 329.6274176 490.6126992 335 481.5 335 C 472.3873008 335 465 329.6274176 465 323 Z" opacity="0.2"/></g><g transform="translate(-206,-198) scale(1,1)"><path fill="#000000" stroke="none" d="M 458 316 C 458 309.3725824 465.3873008 304 474.5 304 C 483.6126992 304 491 309.3725824 491 316 C 491 322.6274176 483.6126992 328 474.5 328 C 465.3873008 328 458 322.6274176 458 316 Z"/></g><g transform="translate(-206,-198) scale(1,1)"><path fill="#C0C0C0" stroke="none" d="M 770 447 L 1225 447 Q 1235 447 1235 457 L 1235 486 Q 1235 496 1225 496 L 770 496 Q 760 496 760 486 L 760 457 Q 760 447 770 447 Z" opacity="0.2"/></g><g transform="translate(-206,-198) scale(1,1)"><path fill="#ffeaad" stroke="none" d="M 763 440 L 1218 440 Q 1228 440 1228 450 L 1228 479 Q 1228 489 1218 489 L 763 489 Q 753 489 753 479 L 753 450 Q 753 440 763 440 Z"/></g><g transform="translate(-206,-198) scale(1,1)"><path fill="none" stroke="#000000" d="M 763 440 L 1218 440 Q 1228 440 1228 450 L 1228 479 Q 1228 489 1218 489 L 763 489 Q 753 489 753 479 L 753 450 Q 753 440 763 440 Z" stroke-miterlimit="10"/></g><g transform="translate(-206,-198) scale(1,1)"><g><path fill="none" stroke="none"/><text fill="#000000" stroke="none" font-family="Roboto" font-size="22px" font-style="normal" font-weight="bold" text-decoration="none" x="815.05322265625" y="468.5">Transfere dados adicionais corretos</text></g></g><g transform="translate(-206,-198) scale(1,1)"><path fill="#C0C0C0" stroke="none" d="M 278 559 L 684 559 Q 694 559 694 569 L 694 598 Q 694 608 684 608 L 278 608 Q 268 608 268 598 L 268 569 Q 268 559 278 559 Z" opacity="0.2"/></g><g transform="translate(-206,-198) scale(1,1)"><path fill="#ffeaad" stroke="none" d="M 271 552 L 677 552 Q 687 552 687 562 L 687 591 Q 687 601 677 601 L 271 601 Q 261 601 261 591 L 261 562 Q 261 552 271 552 Z"/></g><g transform="translate(-206,-198) scale(1,1)"><path fill="none" stroke="#000000" d="M 271 552 L 677 552 Q 687 552 687 562 L 687 591 Q 687 601 677 601 L 271 601 Q 261 601 261 591 L 261 562 Q 261 552 271 552 Z" stroke-miterlimit="10"/></g><g transform="translate(-206,-198) scale(1,1)"><g><path fill="none" stroke="none"/><text fill="#000000" stroke="none" font-family="Roboto" font-size="22px" font-style="normal" font-weight="bold" text-decoration="none" x="292.2314453125" y="580.5">Recebe e armazena dados adicionais</text></g></g><g transform="translate(-206,-198) scale(1,1)"><path fill="#C0C0C0" stroke="none" d="M 294 655 L 668 655 Q 678 655 678 665 L 678 694 Q 678 704 668 704 L 294 704 Q 284 704 284 694 L 284 665 Q 284 655 294 655 Z" opacity="0.2"/></g><g transform="translate(-206,-198) scale(1,1)"><path fill="#ffeaad" stroke="none" d="M 287 648 L 661 648 Q 671 648 671 658 L 671 687 Q 671 697 661 697 L 287 697 Q 277 697 277 687 L 277 658 Q 277 648 287 648 Z"/></g><g transform="translate(-206,-198) scale(1,1)"><path fill="none" stroke="#000000" d="M 287 648 L 661 648 Q 671 648 671 658 L 671 687 Q 671 697 661 697 L 287 697 Q 277 697 277 687 L 277 658 Q 277 648 287 648 Z" stroke-miterlimit="10"/></g><g transform="translate(-206,-198) scale(1,1)"><g><path fill="none" stroke="none"/><text fill="#000000" stroke="none" font-family="Roboto" font-size="22px" font-style="normal" font-weight="bold" text-decoration="none" x="308.26416015625" y="676.5">Aguarda transmissão do firmware</text></g></g><g transform="translate(-206,-198) scale(1,1)"><path fill="#C0C0C0" stroke="none" d="M 823 647 L 1172 647 Q 1182 647 1182 657 L 1182 686 Q 1182 696 1172 696 L 823 696 Q 813 696 813 686 L 813 657 Q 813 647 823 647 Z" opacity="0.2"/></g><g transform="translate(-206,-198) scale(1,1)"><path fill="#ffeaad" stroke="none" d="M 816 640 L 1165 640 Q 1175 640 1175 650 L 1175 679 Q 1175 689 1165 689 L 816 689 Q 806 689 806 679 L 806 650 Q 806 640 816 640 Z"/></g><g transform="translate(-206,-198) scale(1,1)"><path fill="none" stroke="#000000" d="M 816 640 L 1165 640 Q 1175 640 1175 650 L 1175 679 Q 1175 689 1165 689 L 816 689 Q 806 689 806 679 L 806 650 Q 806 640 816 640 Z" stroke-miterlimit="10"/></g><g transform="translate(-206,-198) scale(1,1)"><g><path fill="none" stroke="none"/><text fill="#000000" stroke="none" font-family="Roboto" font-size="22px" font-style="normal" font-weight="bold" text-decoration="none" x="840.70556640625" y="668.5">Transfere firmware incompleto</text></g></g><g transform="translate(-206,-198) scale(1,1)"><path fill="#C0C0C0" stroke="none" d="M 263 759 L 699 759 Q 709 759 709 769 L 709 798 Q 709 808 699 808 L 263 808 Q 253 808 253 798 L 253 769 Q 253 759 263 759 Z" opacity="0.2"/></g><g transform="translate(-206,-198) scale(1,1)"><path fill="#ffeaad" stroke="none" d="M 256 752 L 692 752 Q 702 752 702 762 L 702 791 Q 702 801 692 801 L 256 801 Q 246 801 246 791 L 246 762 Q 246 752 256 752 Z"/></g><g transform="translate(-206,-198) scale(1,1)"><path fill="none" stroke="#000000" d="M 256 752 L 692 752 Q 702 752 702 762 L 702 791 Q 702 801 692 801 L 256 801 Q 246 801 246 791 L 246 762 Q 246 752 256 752 Z" stroke-miterlimit="10"/></g><g transform="translate(-206,-198) scale(1,1)"><g><path fill="none" stroke="none"/><text fill="#000000" stroke="none" font-family="Roboto" font-size="22px" font-style="normal" font-weight="bold" text-decoration="none" x="274.5283203125" y="780.5">Recebe firmware incompleto e armazena</text></g></g><g transform="translate(-206,-198) scale(1,1)"><path fill="#C0C0C0" stroke="none" d="M 281 863 L 682 863 Q 692 863 692 873 L 692 902 Q 692 912 682 912 L 281 912 Q 271 912 271 902 L 271 873 Q 271 863 281 863 Z" opacity="0.2"/></g><g transform="translate(-206,-198) scale(1,1)"><path fill="#ffeaad" stroke="none" d="M 274 856 L 675 856 Q 685 856 685 866 L 685 895 Q 685 905 675 905 L 274 905 Q 264 905 264 895 L 264 866 Q 264 856 274 856 Z"/></g><g transform="translate(-206,-198) scale(1,1)"><path fill="none" stroke="#000000" d="M 274 856 L 675 856 Q 685 856 685 866 L 685 895 Q 685 905 675 905 L 274 905 Q 264 905 264 895 L 264 866 Q 264 856 274 856 Z" stroke-miterlimit="10"/></g><g transform="translate(-206,-198) scale(1,1)"><g><path fill="none" stroke="none"/><text fill="#000000" stroke="none" font-family="Roboto" font-size="22px" font-style="normal" font-weight="bold" text-decoration="none" x="371.24609375" y="884.5">Reinicia o dispositivo</text></g></g><g transform="translate(-206,-198) scale(1,1)"><path fill="none" stroke="#000000" d="M 472 328 L 472 352" stroke-miterlimit="10"/></g><g transform="translate(-206,-198) scale(1,1)"><path fill="none" stroke="#000000" d="M 467.790482243984 341.83732514237585 L 472 352 L 476.209517756016 341.83732514237585" stroke-miterlimit="10"/></g><g transform="translate(-206,-198) scale(1,1)"><path fill="none" stroke="#000000" d="M 472 401 L 472 448" stroke-miterlimit="10"/></g><g transform="translate(-206,-198) scale(1,1)"><path fill="none" stroke="#000000" d="M 467.790482243984 437.83732514237585 L 472 448 L 476.209517756016 437.83732514237585" stroke-miterlimit="10"/></g><g transform="translate(-206,-198) scale(1,1)"><path fill="none" stroke="#000000" d="M 472 497 L 472 552" stroke-miterlimit="10"/></g><g transform="translate(-206,-198) scale(1,1)"><path fill="none" stroke="#000000" d="M 467.790482243984 541.8373251423759 L 472 552 L 476.209517756016 541.8373251423759" stroke-miterlimit="10"/></g><g transform="translate(-206,-198) scale(1,1)"><path fill="none" stroke="#000000" d="M 472 601 L 472 648" stroke-miterlimit="10"/></g><g transform="translate(-206,-198) scale(1,1)"><path fill="none" stroke="#000000" d="M 467.790482243984 637.8373251423759 L 472 648 L 476.209517756016 637.8373251423759" stroke-miterlimit="10"/></g><g transform="translate(-206,-198) scale(1,1)"><path fill="none" stroke="#000000" d="M 472 697 L 472 752" stroke-miterlimit="10"/></g><g transform="translate(-206,-198) scale(1,1)"><path fill="none" stroke="#000000" d="M 467.790482243984 741.8373251423759 L 472 752 L 476.209517756016 741.8373251423759" stroke-miterlimit="10"/></g><g transform="translate(-206,-198) scale(1,1)"><path fill="none" stroke="#000000" d="M 472 801 L 472 856" stroke-miterlimit="10"/></g><g transform="translate(-206,-198) scale(1,1)"><path fill="none" stroke="#000000" d="M 467.790482243984 845.8373251423759 L 472 856 L 476.209517756016 845.8373251423759" stroke-miterlimit="10"/></g><g transform="translate(-206,-198) scale(1,1)"><path fill="none" stroke="#000000" d="M 295 1016 L 240 1016 L 240 371 L 338 371" stroke-miterlimit="10"/></g><g transform="translate(-206,-198) scale(1,1)"><path fill="none" stroke="#000000" d="M 327.83732514237585 375.209517756016 L 338 371 L 327.83732514237585 366.790482243984" stroke-miterlimit="10"/></g><g transform="translate(-206,-198) scale(1,1)"><path fill="#C0C0C0" stroke="none" d="M 312 967 L 651 967 Q 661 967 661 977 L 661 1028 Q 661 1038 651 1038 L 312 1038 Q 302 1038 302 1028 L 302 977 Q 302 967 312 967 Z" opacity="0.2"/></g><g transform="translate(-206,-198) scale(1,1)"><path fill="#ffeaad" stroke="none" d="M 305 960 L 644 960 Q 654 960 654 970 L 654 1021 Q 654 1031 644 1031 L 305 1031 Q 295 1031 295 1021 L 295 970 Q 295 960 305 960 Z"/></g><g transform="translate(-206,-198) scale(1,1)"><path fill="none" stroke="#000000" d="M 305 960 L 644 960 Q 654 960 654 970 L 654 1021 Q 654 1031 644 1031 L 305 1031 Q 295 1031 295 1021 L 295 970 Q 295 960 305 960 Z" stroke-miterlimit="10"/></g><g transform="translate(-206,-198) scale(1,1)"><g><path fill="none" stroke="none"/><text fill="#000000" stroke="none" font-family="Roboto" font-size="22px" font-style="normal" font-weight="bold" text-decoration="none" x="321.14990234375" y="988.5">Verifica que atualização não foi</text><text fill="#000000" stroke="none" font-family="Roboto" font-size="22px" font-style="normal" font-weight="bold" text-decoration="none" x="427.3955078125" y="1010.5">finalizada</text></g></g><g transform="translate(-206,-198) scale(1,1)"><path fill="none" stroke="#000000" d="M 659 464 L 753 464" stroke-miterlimit="10"/></g><g transform="translate(-206,-198) scale(1,1)"><path fill="none" stroke="#000000" d="M 742.8373251423759 468.209517756016 L 753 464 L 742.8373251423758 459.790482243984" stroke-miterlimit="10"/></g><g transform="translate(-206,-198) scale(1,1)"><path fill="none" stroke="#000000" d="M 984 489 L 984 576 L 687 576" stroke-miterlimit="10"/></g><g transform="translate(-206,-198) scale(1,1)"><path fill="none" stroke="#000000" d="M 697.1626748576241 571.790482243984 L 687 576 L 697.1626748576241 580.209517756016" stroke-miterlimit="10"/></g><g transform="translate(-206,-198) scale(1,1)"><path fill="none" stroke="#000000" d="M 671 664 L 806 664" stroke-miterlimit="10"/></g><g transform="translate(-206,-198) scale(1,1)"><path fill="none" stroke="#000000" d="M 795.8373251423759 668.209517756016 L 806 664 L 795.8373251423758 659.790482243984" stroke-miterlimit="10"/></g><g transform="translate(-206,-198) scale(1,1)"><path fill="none" stroke="#000000" d="M 984 689 L 984 776 L 702 776" stroke-miterlimit="10"/></g><g transform="translate(-206,-198) scale(1,1)"><path fill="none" stroke="#000000" d="M 712.1626748576241 771.790482243984 L 702 776 L 712.1626748576241 780.209517756016" stroke-miterlimit="10"/></g><g transform="translate(-206,-198) scale(1,1)"><path fill="none" stroke="#000000" d="M 472 905 L 472 960" stroke-miterlimit="10"/></g><g transform="translate(-206,-198) scale(1,1)"><path fill="none" stroke="#000000" d="M 467.790482243984 949.8373251423759 L 472 960 L 476.209517756016 949.8373251423759" stroke-miterlimit="10"/></g></g></svg>