<svg version="1.1" xmlns="http://www.w3.org/2000/svg" xmlns:xlink="http://www.w3.org/1999/xlink" width="476.04296875" height="1023"><defs/><g><text fill="#eeeeee" stroke="none" font-family="Arial" font-size="24px" font-style="normal" font-weight="normal" text-decoration="none" x="0" y="0">UNREGISTERED</text><text fill="#eeeeee" stroke="none" font-family="Arial" font-size="24px" font-style="normal" font-weight="normal" text-decoration="none" x="0" y="30">UNREGISTERED</text><text fill="#eeeeee" stroke="none" font-family="Arial" font-size="24px" font-style="normal" font-weight="normal" text-decoration="none" x="0" y="60">UNREGISTERED</text><text fill="#eeeeee" stroke="none" font-family="Arial" font-size="24px" font-style="normal" font-weight="normal" text-decoration="none" x="0" y="90">UNREGISTERED</text><text fill="#eeeeee" stroke="none" font-family="Arial" font-size="24px" font-style="normal" font-weight="normal" text-decoration="none" x="0" y="120">UNREGISTERED</text><text fill="#eeeeee" stroke="none" font-family="Arial" font-size="24px" font-style="normal" font-weight="normal" text-decoration="none" x="0" y="150">UNREGISTERED</text><text fill="#eeeeee" stroke="none" font-family="Arial" font-size="24px" font-style="normal" font-weight="normal" text-decoration="none" x="0" y="180">UNREGISTERED</text><text fill="#eeeeee" stroke="none" font-family="Arial" font-size="24px" font-style="normal" font-weight="normal" text-decoration="none" x="0" y="210">UNREGISTERED</text><text fill="#eeeeee" stroke="none" font-family="Arial" font-size="24px" font-style="normal" font-weight="normal" text-decoration="none" x="0" y="240">UNREGISTERED</text><text fill="#eeeeee" stroke="none" font-family="Arial" font-size="24px" font-style="normal" font-weight="normal" text-decoration="none" x="0" y="270">UNREGISTERED</text><text fill="#eeeeee" stroke="none" font-family="Arial" font-size="24px" font-style="normal" font-weight="normal" text-decoration="none" x="0" y="300">UNREGISTERED</text><text fill="#eeeeee" stroke="none" font-family="Arial" font-size="24px" font-style="normal" font-weight="normal" text-decoration="none" x="0" y="330">UNREGISTERED</text><text fill="#eeeeee" stroke="none" font-family="Arial" font-size="24px" font-style="normal" font-weight="normal" text-decoration="none" x="0" y="360">UNREGISTERED</text><text fill="#eeeeee" stroke="none" font-family="Arial" font-size="24px" font-style="normal" font-weight="normal" text-decoration="none" x="0" y="390">UNREGISTERED</text><text fill="#eeeeee" stroke="none" font-family="Arial" font-size="24px" font-style="normal" font-weight="normal" text-decoration="none" x="0" y="420">UNREGISTERED</text><text fill="#eeeeee" stroke="none" font-family="Arial" font-size="24px" font-style="normal" font-weight="normal" text-decoration="none" x="0" y="450">UNREGISTERED</text><text fill="#eeeeee" stroke="none" font-family="Arial" font-size="24px" font-style="normal" font-weight="normal" text-decoration="none" x="0" y="480">UNREGISTERED</text><text fill="#eeeeee" stroke="none" font-family="Arial" font-size="24px" font-style="normal" font-weight="normal" text-decoration="none" x="0" y="510">UNREGISTERED</text><text fill="#eeeeee" stroke="none" font-family="Arial" font-size="24px" font-style="normal" font-weight="normal" text-decoration="none" x="0" y="540">UNREGISTERED</text><text fill="#eeeeee" stroke="none" font-family="Arial" font-size="24px" font-style="normal" font-weight="normal" text-decoration="none" x="0" y="570">UNREGISTERED</text><text fill="#eeeeee" stroke="none" font-family="Arial" font-size="24px" font-style="normal" font-weight="normal" text-decoration="none" x="0" y="600">UNREGISTERED</text><text fill="#eeeeee" stroke="none" font-family="Arial" font-size="24px" font-style="normal" font-weight="normal" text-decoration="none" x="0" y="630">UNREGISTERED</text><text fill="#eeeeee" stroke="none" font-family="Arial" font-size="24px" font-style="normal" font-weight="normal" text-decoration="none" x="0" y="660">UNREGISTERED</text><text fill="#eeeeee" stroke="none" font-family="Arial" font-size="24px" font-style="normal" font-weight="normal" text-decoration="none" x="0" y="690">UNREGISTERED</text><text fill="#eeeeee" stroke="none" font-family="Arial" font-size="24px" font-style="normal" font-weight="normal" text-decoration="none" x="0" y="720">UNREGISTERED</text><text fill="#eeeeee" stroke="none" font-family="Arial" font-size="24px" font-style="normal" font-weight="normal" text-decoration="none" x="0" y="750">UNREGISTERED</text><text fill="#eeeeee" stroke="none" font-family="Arial" font-size="24px" font-style="normal" font-weight="normal" text-decoration="none" x="0" y="780">UNREGISTERED</text><text fill="#eeeeee" stroke="none" font-family="Arial" font-size="24px" font-style="normal" font-weight="normal" text-decoration="none" x="0" y="810">UNREGISTERED</text><text fill="#eeeeee" stroke="none" font-family="Arial" font-size="24px" font-style="normal" font-weight="normal" text-decoration="none" x="0" y="840">UNREGISTERED</text><text fill="#eeeeee" stroke="none" font-family="Arial" font-size="24px" font-style="normal" font-weight="normal" text-decoration="none" x="0" y="870">UNREGISTERED</text><text fill="#eeeeee" stroke="none" font-family="Arial" font-size="24px" font-style="normal" font-weight="normal" text-decoration="none" x="0" y="900">UNREGISTERED</text><text fill="#eeeeee" stroke="none" font-family="Arial" font-size="24px" font-style="normal" font-weight="normal" text-decoration="none" x="0" y="930">UNREGISTERED</text><text fill="#eeeeee" stroke="none" font-family="Arial" font-size="24px" font-style="normal" font-weight="normal" text-decoration="none" x="0" y="960">UNREGISTERED</text><text fill="#eeeeee" stroke="none" font-family="Arial" font-size="24px" font-style="normal" font-weight="normal" text-decoration="none" x="0" y="990">UNREGISTERED</text><text fill="#eeeeee" stroke="none" font-family="Arial" font-size="24px" font-style="normal" font-weight="normal" text-decoration="none" x="0" y="1020">UNREGISTERED</text><text fill="#eeeeee" stroke="none" font-family="Arial" font-size="24px" font-style="normal" font-weight="normal" text-decoration="none" x="200" y="0">UNREGISTERED</text><text fill="#eeeeee" stroke="none" font-family="Arial" font-size="24px" font-style="normal" font-weight="normal" text-decoration="none" x="200" y="30">UNREGISTERED</text><text fill="#eeeeee" stroke="none" font-family="Arial" font-size="24px" font-style="normal" font-weight="normal" text-decoration="none" x="200" y="60">UNREGISTERED</text><text fill="#eeeeee" stroke="none" font-family="Arial" font-size="24px" font-style="normal" font-weight="normal" text-decoration="none" x="200" y="90">UNREGISTERED</text><text fill="#eeeeee" stroke="none" font-family="Arial" font-size="24px" font-style="normal" font-weight="normal" text-decoration="none" x="200" y="120">UNREGISTERED</text><text fill="#eeeeee" stroke="none" font-family="Arial" font-size="24px" font-style="normal" font-weight="normal" text-decoration="none" x="200" y="150">UNREGISTERED</text><text fill="#eeeeee" stroke="none" font-family="Arial" font-size="24px" font-style="normal" font-weight="normal" text-decoration="none" x="200" y="180">UNREGISTERED</text><text fill="#eeeeee" stroke="none" font-family="Arial" font-size="24px" font-style="normal" font-weight="normal" text-decoration="none" x="200" y="210">UNREGISTERED</text><text fill="#eeeeee" stroke="none" font-family="Arial" font-size="24px" font-style="normal" font-weight="normal" text-decoration="none" x="200" y="240">UNREGISTERED</text><text fill="#eeeeee" stroke="none" font-family="Arial" font-size="24px" font-style="normal" font-weight="normal" text-decoration="none" x="200" y="270">UNREGISTERED</text><text fill="#eeeeee" stroke="none" font-family="Arial" font-size="24px" font-style="normal" font-weight="normal" text-decoration="none" x="200" y="300">UNREGISTERED</text><text fill="#eeeeee" stroke="none" font-family="Arial" font-size="24px" font-style="normal" font-weight="normal" text-decoration="none" x="200" y="330">UNREGISTERED</text><text fill="#eeeeee" stroke="none" font-family="Arial" font-size="24px" font-style="normal" font-weight="normal" text-decoration="none" x="200" y="360">UNREGISTERED</text><text fill="#eeeeee" stroke="none" font-family="Arial" font-size="24px" font-style="normal" font-weight="normal" text-decoration="none" x="200" y="390">UNREGISTERED</text><text fill="#eeeeee" stroke="none" font-family="Arial" font-size="24px" font-style="normal" font-weight="normal" text-decoration="none" x="200" y="420">UNREGISTERED</text><text fill="#eeeeee" stroke="none" font-family="Arial" font-size="24px" font-style="normal" font-weight="normal" text-decoration="none" x="200" y="450">UNREGISTERED</text><text fill="#eeeeee" stroke="none" font-family="Arial" font-size="24px" font-style="normal" font-weight="normal" text-decoration="none" x="200" y="480">UNREGISTERED</text><text fill="#eeeeee" stroke="none" font-family="Arial" font-size="24px" font-style="normal" font-weight="normal" text-decoration="none" x="200" y="510">UNREGISTERED</text><text fill="#eeeeee" stroke="none" font-family="Arial" font-size="24px" font-style="normal" font-weight="normal" text-decoration="none" x="200" y="540">UNREGISTERED</text><text fill="#eeeeee" stroke="none" font-family="Arial" font-size="24px" font-style="normal" font-weight="normal" text-decoration="none" x="200" y="570">UNREGISTERED</text><text fill="#eeeeee" stroke="none" font-family="Arial" font-size="24px" font-style="normal" font-weight="normal" text-decoration="none" x="200" y="600">UNREGISTERED</text><text fill="#eeeeee" stroke="none" font-family="Arial" font-size="24px" font-style="normal" font-weight="normal" text-decoration="none" x="200" y="630">UNREGISTERED</text><text fill="#eeeeee" stroke="none" font-family="Arial" font-size="24px" font-style="normal" font-weight="normal" text-decoration="none" x="200" y="660">UNREGISTERED</text><text fill="#eeeeee" stroke="none" font-family="Arial" font-size="24px" font-style="normal" font-weight="normal" text-decoration="none" x="200" y="690">UNREGISTERED</text><text fill="#eeeeee" stroke="none" font-family="Arial" font-size="24px" font-style="normal" font-weight="normal" text-decoration="none" x="200" y="720">UNREGISTERED</text><text fill="#eeeeee" stroke="none" font-family="Arial" font-size="24px" font-style="normal" font-weight="normal" text-decoration="none" x="200" y="750">UNREGISTERED</text><text fill="#eeeeee" stroke="none" font-family="Arial" font-size="24px" font-style="normal" font-weight="normal" text-decoration="none" x="200" y="780">UNREGISTERED</text><text fill="#eeeeee" stroke="none" font-family="Arial" font-size="24px" font-style="normal" font-weight="normal" text-decoration="none" x="200" y="810">UNREGISTERED</text><text fill="#eeeeee" stroke="none" font-family="Arial" font-size="24px" font-style="normal" font-weight="normal" text-decoration="none" x="200" y="840">UNREGISTERED</text><text fill="#eeeeee" stroke="none" font-family="Arial" font-size="24px" font-style="normal" font-weight="normal" text-decoration="none" x="200" y="870">UNREGISTERED</text><text fill="#eeeeee" stroke="none" font-family="Arial" font-size="24px" font-style="normal" font-weight="normal" text-decoration="none" x="200" y="900">UNREGISTERED</text><text fill="#eeeeee" stroke="none" font-family="Arial" font-size="24px" font-style="normal" font-weight="normal" text-decoration="none" x="200" y="930">UNREGISTERED</text><text fill="#eeeeee" stroke="none" font-family="Arial" font-size="24px" font-style="normal" font-weight="normal" text-decoration="none" x="200" y="960">UNREGISTERED</text><text fill="#eeeeee" stroke="none" font-family="Arial" font-size="24px" font-style="normal" font-weight="normal" text-decoration="none" x="200" y="990">UNREGISTERED</text><text fill="#eeeeee" stroke="none" font-family="Arial" font-size="24px" font-style="normal" font-weight="normal" text-decoration="none" x="200" y="1020">UNREGISTERED</text><text fill="#eeeeee" stroke="none" font-family="Arial" font-size="24px" font-style="normal" font-weight="normal" text-decoration="none" x="400" y="0">UNREGISTERED</text><text fill="#eeeeee" stroke="none" font-family="Arial" font-size="24px" font-style="normal" font-weight="normal" text-decoration="none" x="400" y="30">UNREGISTERED</text><text fill="#eeeeee" stroke="none" font-family="Arial" font-size="24px" font-style="normal" font-weight="normal" text-decoration="none" x="400" y="60">UNREGISTERED</text><text fill="#eeeeee" stroke="none" font-family="Arial" font-size="24px" font-style="normal" font-weight="normal" text-decoration="none" x="400" y="90">UNREGISTERED</text><text fill="#eeeeee" stroke="none" font-family="Arial" font-size="24px" font-style="normal" font-weight="normal" text-decoration="none" x="400" y="120">UNREGISTERED</text><text fill="#eeeeee" stroke="none" font-family="Arial" font-size="24px" font-style="normal" font-weight="normal" text-decoration="none" x="400" y="150">UNREGISTERED</text><text fill="#eeeeee" stroke="none" font-family="Arial" font-size="24px" font-style="normal" font-weight="normal" text-decoration="none" x="400" y="180">UNREGISTERED</text><text fill="#eeeeee" stroke="none" font-family="Arial" font-size="24px" font-style="normal" font-weight="normal" text-decoration="none" x="400" y="210">UNREGISTERED</text><text fill="#eeeeee" stroke="none" font-family="Arial" font-size="24px" font-style="normal" font-weight="normal" text-decoration="none" x="400" y="240">UNREGISTERED</text><text fill="#eeeeee" stroke="none" font-family="Arial" font-size="24px" font-style="normal" font-weight="normal" text-decoration="none" x="400" y="270">UNREGISTERED</text><text fill="#eeeeee" stroke="none" font-family="Arial" font-size="24px" font-style="normal" font-weight="normal" text-decoration="none" x="400" y="300">UNREGISTERED</text><text fill="#eeeeee" stroke="none" font-family="Arial" font-size="24px" font-style="normal" font-weight="normal" text-decoration="none" x="400" y="330">UNREGISTERED</text><text fill="#eeeeee" stroke="none" font-family="Arial" font-size="24px" font-style="normal" font-weight="normal" text-decoration="none" x="400" y="360">UNREGISTERED</text><text fill="#eeeeee" stroke="none" font-family="Arial" font-size="24px" font-style="normal" font-weight="normal" text-decoration="none" x="400" y="390">UNREGISTERED</text><text fill="#eeeeee" stroke="none" font-family="Arial" font-size="24px" font-style="normal" font-weight="normal" text-decoration="none" x="400" y="420">UNREGISTERED</text><text fill="#eeeeee" stroke="none" font-family="Arial" font-size="24px" font-style="normal" font-weight="normal" text-decoration="none" x="400" y="450">UNREGISTERED</text><text fill="#eeeeee" stroke="none" font-family="Arial" font-size="24px" font-style="normal" font-weight="normal" text-decoration="none" x="400" y="480">UNREGISTERED</text><text fill="#eeeeee" stroke="none" font-family="Arial" font-size="24px" font-style="normal" font-weight="normal" text-decoration="none" x="400" y="510">UNREGISTERED</text><text fill="#eeeeee" stroke="none" font-family="Arial" font-size="24px" font-style="normal" font-weight="normal" text-decoration="none" x="400" y="540">UNREGISTERED</text><text fill="#eeeeee" stroke="none" font-family="Arial" font-size="24px" font-style="normal" font-weight="normal" text-decoration="none" x="400" y="570">UNREGISTERED</text><text fill="#eeeeee" stroke="none" font-family="Arial" font-size="24px" font-style="normal" font-weight="normal" text-decoration="none" x="400" y="600">UNREGISTERED</text><text fill="#eeeeee" stroke="none" font-family="Arial" font-size="24px" font-style="normal" font-weight="normal" text-decoration="none" x="400" y="630">UNREGISTERED</text><text fill="#eeeeee" stroke="none" font-family="Arial" font-size="24px" font-style="normal" font-weight="normal" text-decoration="none" x="400" y="660">UNREGISTERED</text><text fill="#eeeeee" stroke="none" font-family="Arial" font-size="24px" font-style="normal" font-weight="normal" text-decoration="none" x="400" y="690">UNREGISTERED</text><text fill="#eeeeee" stroke="none" font-family="Arial" font-size="24px" font-style="normal" font-weight="normal" text-decoration="none" x="400" y="720">UNREGISTERED</text><text fill="#eeeeee" stroke="none" font-family="Arial" font-size="24px" font-style="normal" font-weight="normal" text-decoration="none" x="400" y="750">UNREGISTERED</text><text fill="#eeeeee" stroke="none" font-family="Arial" font-size="24px" font-style="normal" font-weight="normal" text-decoration="none" x="400" y="780">UNREGISTERED</text><text fill="#eeeeee" stroke="none" font-family="Arial" font-size="24px" font-style="normal" font-weight="normal" text-decoration="none" x="400" y="810">UNREGISTERED</text><text fill="#eeeeee" stroke="none" font-family="Arial" font-size="24px" font-style="normal" font-weight="normal" text-decoration="none" x="400" y="840">UNREGISTERED</text><text fill="#eeeeee" stroke="none" font-family="Arial" font-size="24px" font-style="normal" font-weight="normal" text-decoration="none" x="400" y="870">UNREGISTERED</text><text fill="#eeeeee" stroke="none" font-family="Arial" font-size="24px" font-style="normal" font-weight="normal" text-decoration="none" x="400" y="900">UNREGISTERED</text><text fill="#eeeeee" stroke="none" font-family="Arial" font-size="24px" font-style="normal" font-weight="normal" text-decoration="none" x="400" y="930">UNREGISTERED</text><text fill="#eeeeee" stroke="none" font-family="Arial" font-size="24px" font-style="normal" font-weight="normal" text-decoration="none" x="400" y="960">UNREGISTERED</text><text fill="#eeeeee" stroke="none" font-family="Arial" font-size="24px" font-style="normal" font-weight="normal" text-decoration="none" x="400" y="990">UNREGISTERED</text><text fill="#eeeeee" stroke="none" font-family="Arial" font-size="24px" font-style="normal" font-weight="normal" text-decoration="none" x="400" y="1020">UNREGISTERED</text><g transform="translate(-501,-150) scale(1,1)"><path fill="#ffeaad" stroke="none" d="M 614 160 L 682 160 Q 704 160 704 182 L 704 181 Q 704 203 682 203 L 614 203 Q 592 203 592 181 L 592 182 Q 592 160 614 160 Z"/></g><g transform="translate(-501,-150) scale(1,1)"><path fill="none" stroke="#000000" d="M 614 160 L 682 160 Q 704 160 704 182 L 704 181 Q 704 203 682 203 L 614 203 Q 592 203 592 181 L 592 182 Q 592 160 614 160 Z" stroke-miterlimit="10"/></g><g transform="translate(-501,-150) scale(1,1)"><g><path fill="none" stroke="none"/><text fill="#000000" stroke="none" font-family="Arial" font-size="24px" font-style="normal" font-weight="normal" text-decoration="none" x="619.318359375" y="193.5">Início</text></g></g><g transform="translate(-501,-150) scale(1,1)"><rect fill="#ffeaad" stroke="none" x="527" y="248" width="240" height="91"/></g><g transform="translate(-501,-150) scale(1,1)"><path fill="none" stroke="#000000" d="M 527 248 L 767 248 L 767 339 L 527 339 L 527 248 Z Z" stroke-miterlimit="10"/></g><g transform="translate(-501,-150) scale(1,1)"><g><path fill="none" stroke="none"/><text fill="#000000" stroke="none" font-family="Arial" font-size="24px" font-style="normal" font-weight="normal" text-decoration="none" x="560.275390625" y="281.5">Pressiona botão</text><text fill="#000000" stroke="none" font-family="Arial" font-size="24px" font-style="normal" font-weight="normal" text-decoration="none" x="588.306640625" y="305.5">para iniciar</text><text fill="#000000" stroke="none" font-family="Arial" font-size="24px" font-style="normal" font-weight="normal" text-decoration="none" x="586.291015625" y="329.5">atualização</text></g></g><g transform="translate(-501,-150) scale(1,1)"><path fill="#ffeaad" stroke="none" d="M 527 479.5 L 647.91796875 384 L 768.8359375 479.5 L 647.91796875 575 L 527 479.5"/></g><g transform="translate(-501,-150) scale(1,1)"><path fill="none" stroke="#000000" d="M 527 479.5 L 647.91796875 384 L 768.8359375 479.5 L 647.91796875 575 L 527 479.5 L 527 479.5" stroke-miterlimit="10"/></g><g transform="translate(-501,-150) scale(1,1)"><g><path fill="none" stroke="none"/><text fill="#000000" stroke="none" font-family="Arial" font-size="24px" font-style="normal" font-weight="normal" text-decoration="none" x="589.875" y="455.5">Bootloader</text><text fill="#000000" stroke="none" font-family="Arial" font-size="24px" font-style="normal" font-weight="normal" text-decoration="none" x="634.5703125" y="479.5">no</text><text fill="#000000" stroke="none" font-family="Arial" font-size="24px" font-style="normal" font-weight="normal" text-decoration="none" x="588.544921875" y="503.5">sub-estado</text><text fill="#000000" stroke="none" font-family="Arial" font-size="24px" font-style="normal" font-weight="normal" text-decoration="none" x="587.208984375" y="527.5">Recepção?</text></g></g><g transform="translate(-501,-150) scale(1,1)"><rect fill="#ffeaad" stroke="none" x="511" y="608" width="272" height="91"/></g><g transform="translate(-501,-150) scale(1,1)"><path fill="none" stroke="#000000" d="M 511 608 L 783 608 L 783 699 L 511 699 L 511 608 Z Z" stroke-miterlimit="10"/></g><g transform="translate(-501,-150) scale(1,1)"><g><path fill="none" stroke="none"/><text fill="#000000" stroke="none" font-family="Arial" font-size="24px" font-style="normal" font-weight="normal" text-decoration="none" x="560.064453125" y="641.5">Transfere dados</text><text fill="#000000" stroke="none" font-family="Arial" font-size="24px" font-style="normal" font-weight="normal" text-decoration="none" x="534.2890625" y="665.5">adicionais e firmware</text><text fill="#000000" stroke="none" font-family="Arial" font-size="24px" font-style="normal" font-weight="normal" text-decoration="none" x="603.65234375" y="689.5">corretos</text></g></g><g transform="translate(-501,-150) scale(1,1)"><path fill="#ffeaad" stroke="none" d="M 515 831.5 L 647 760 L 779 831.5 L 647 903 L 515 831.5"/></g><g transform="translate(-501,-150) scale(1,1)"><path fill="none" stroke="#000000" d="M 515 831.5 L 647 760 L 779 831.5 L 647 903 L 515 831.5 L 515 831.5" stroke-miterlimit="10"/></g><g transform="translate(-501,-150) scale(1,1)"><g><path fill="none" stroke="none"/><text fill="#000000" stroke="none" font-family="Arial" font-size="24px" font-style="normal" font-weight="normal" text-decoration="none" x="597.001953125" y="819.5">Firmware</text><text fill="#000000" stroke="none" font-family="Arial" font-size="24px" font-style="normal" font-weight="normal" text-decoration="none" x="592.970703125" y="843.5">entrou em</text><text fill="#000000" stroke="none" font-family="Arial" font-size="24px" font-style="normal" font-weight="normal" text-decoration="none" x="588.95703125" y="867.5">execução?</text></g></g><g transform="translate(-501,-150) scale(1,1)"><path fill="none" stroke="#000000" d="M 648 575 L 648 608" stroke-miterlimit="10"/></g><g transform="translate(-501,-150) scale(1,1)"><path fill="#000000" stroke="none" d="M 643.790482243984 597.8373251423759 L 648 608 L 652.209517756016 597.8373251423759"/></g><g transform="translate(-501,-150) scale(1,1)"><path fill="none" stroke="#000000" d="M 643.790482243984 597.8373251423759 L 648 608 L 652.209517756016 597.8373251423759 L 643.790482243984 597.8373251423759" stroke-miterlimit="10"/></g><g transform="translate(-501,-150) scale(1,1)"><g><path fill="none" stroke="none"/><text fill="#000000" stroke="none" font-family="Arial" font-size="20px" font-style="normal" font-weight="normal" text-decoration="none" x="662.5" y="602.5">sim</text></g></g><g transform="translate(-501,-150) scale(1,1)"><path fill="none" stroke="#000000" d="M 648 203 L 648 248" stroke-miterlimit="10"/></g><g transform="translate(-501,-150) scale(1,1)"><path fill="#000000" stroke="none" d="M 643.790482243984 237.83732514237585 L 648 248 L 652.209517756016 237.83732514237585"/></g><g transform="translate(-501,-150) scale(1,1)"><path fill="none" stroke="#000000" d="M 643.790482243984 237.83732514237585 L 648 248 L 652.209517756016 237.83732514237585 L 643.790482243984 237.83732514237585" stroke-miterlimit="10"/></g><g transform="translate(-501,-150) scale(1,1)"><path fill="none" stroke="#000000" d="M 648 699 L 648 760" stroke-miterlimit="10"/></g><g transform="translate(-501,-150) scale(1,1)"><path fill="#000000" stroke="none" d="M 643.790482243984 749.8373251423759 L 648 760 L 652.209517756016 749.8373251423759"/></g><g transform="translate(-501,-150) scale(1,1)"><path fill="none" stroke="#000000" d="M 643.790482243984 749.8373251423759 L 648 760 L 652.209517756016 749.8373251423759 L 643.790482243984 749.8373251423759" stroke-miterlimit="10"/></g><g transform="translate(-501,-150) scale(1,1)"><path fill="none" stroke="#000000" d="M 648 339 L 648 384" stroke-miterlimit="10"/></g><g transform="translate(-501,-150) scale(1,1)"><path fill="#000000" stroke="none" d="M 643.790482243984 373.83732514237585 L 648 384 L 652.209517756016 373.83732514237585"/></g><g transform="translate(-501,-150) scale(1,1)"><path fill="none" stroke="#000000" d="M 643.790482243984 373.83732514237585 L 648 384 L 652.209517756016 373.83732514237585 L 643.790482243984 373.83732514237585" stroke-miterlimit="10"/></g><g transform="translate(-501,-150) scale(1,1)"><path fill="#ffffff" stroke="none" d="M 888 838.5 C 888 830.4918704 895.835016 824 905.5 824 C 915.164984 824 923 830.4918704 923 838.5 C 923 846.5081296 915.164984 853 905.5 853 C 895.835016 853 888 846.5081296 888 838.5 Z"/></g><g transform="translate(-501,-150) scale(1,1)"><path fill="none" stroke="#000000" d="M 888 838.5 C 888 830.4918704 895.835016 824 905.5 824 C 915.164984 824 923 830.4918704 923 838.5 C 923 846.5081296 915.164984 853 905.5 853 C 895.835016 853 888 846.5081296 888 838.5 Z" stroke-miterlimit="10"/></g><g transform="translate(-501,-150) scale(1,1)"><g><path fill="none" stroke="none"/></g></g><g transform="translate(-501,-150) scale(1,1)"><path fill="none" stroke="#000000" d="M 779 832 L 888 832" stroke-miterlimit="10"/></g><g transform="translate(-501,-150) scale(1,1)"><path fill="#000000" stroke="none" d="M 877.8373251423759 836.209517756016 L 888 832 L 877.8373251423758 827.790482243984"/></g><g transform="translate(-501,-150) scale(1,1)"><path fill="none" stroke="#000000" d="M 877.8373251423759 836.209517756016 L 888 832 L 877.8373251423758 827.790482243984 L 877.8373251423759 836.209517756016" stroke-miterlimit="10"/></g><g transform="translate(-501,-150) scale(1,1)"><g><path fill="none" stroke="none"/><text fill="#000000" stroke="none" font-family="Arial" font-size="20px" font-style="normal" font-weight="normal" text-decoration="none" x="816.5" y="826.5">não</text></g></g><g transform="translate(-501,-150) scale(1,1)"><path fill="none" stroke="#000000" d="M 769 480 L 896 480 M 896 480 A 8 8 0 0 1 904 488 L 904 824" stroke-miterlimit="10"/></g><g transform="translate(-501,-150) scale(1,1)"><path fill="#000000" stroke="none" d="M 899.790482243984 813.8373251423759 L 904 824 L 908.209517756016 813.8373251423759"/></g><g transform="translate(-501,-150) scale(1,1)"><path fill="none" stroke="#000000" d="M 899.790482243984 813.8373251423759 L 904 824 L 908.209517756016 813.8373251423759 L 899.790482243984 813.8373251423759" stroke-miterlimit="10"/></g><g transform="translate(-501,-150) scale(1,1)"><g><path fill="none" stroke="none"/><text fill="#000000" stroke="none" font-family="Arial" font-size="20px" font-style="normal" font-weight="normal" text-decoration="none" x="815.5" y="465.5">não</text></g></g><g transform="translate(-501,-150) scale(1,1)"><rect fill="#ffeaad" stroke="none" x="592" y="968" width="119.04296875" height="43"/></g><g transform="translate(-501,-150) scale(1,1)"><path fill="none" stroke="#000000" d="M 592 968 L 711.04296875 968 L 711.04296875 1011 L 592 1011 L 592 968 Z Z" stroke-miterlimit="10"/></g><g transform="translate(-501,-150) scale(1,1)"><g><path fill="none" stroke="none"/><text fill="#000000" stroke="none" font-family="Arial" font-size="24px" font-style="normal" font-weight="normal" text-decoration="none" x="605.49609375" y="1001.5">Sucesso</text></g></g><g transform="translate(-501,-150) scale(1,1)"><rect fill="#ffeaad" stroke="none" x="848" y="968" width="119.04296875" height="43"/></g><g transform="translate(-501,-150) scale(1,1)"><path fill="none" stroke="#000000" d="M 848 968 L 967.04296875 968 L 967.04296875 1011 L 848 1011 L 848 968 Z Z" stroke-miterlimit="10"/></g><g transform="translate(-501,-150) scale(1,1)"><g><path fill="none" stroke="none"/><text fill="#000000" stroke="none" font-family="Arial" font-size="24px" font-style="normal" font-weight="normal" text-decoration="none" x="877.50390625" y="1001.5">Falha</text></g></g><g transform="translate(-501,-150) scale(1,1)"><path fill="#ffeaad" stroke="none" d="M 606 1120 L 707.71484375 1120 Q 729.71484375 1120 729.71484375 1142 L 729.71484375 1141 Q 729.71484375 1163 707.71484375 1163 L 606 1163 Q 584 1163 584 1141 L 584 1142 Q 584 1120 606 1120 Z"/></g><g transform="translate(-501,-150) scale(1,1)"><path fill="none" stroke="#000000" d="M 606 1120 L 707.71484375 1120 Q 729.71484375 1120 729.71484375 1142 L 729.71484375 1141 Q 729.71484375 1163 707.71484375 1163 L 606 1163 Q 584 1163 584 1141 L 584 1142 Q 584 1120 606 1120 Z" stroke-miterlimit="10"/></g><g transform="translate(-501,-150) scale(1,1)"><g><path fill="none" stroke="none"/><text fill="#000000" stroke="none" font-family="Arial" font-size="24px" font-style="normal" font-weight="normal" text-decoration="none" x="636.865234375" y="1153.5">Fim</text></g></g><g transform="translate(-501,-150) scale(1,1)"><path fill="#ffffff" stroke="none" d="M 632 1062.5 C 632 1054.4918704 640.954304 1048 652 1048 C 663.045696 1048 672 1054.4918704 672 1062.5 C 672 1070.5081296 663.045696 1077 652 1077 C 640.954304 1077 632 1070.5081296 632 1062.5 Z"/></g><g transform="translate(-501,-150) scale(1,1)"><path fill="none" stroke="#000000" d="M 632 1062.5 C 632 1054.4918704 640.954304 1048 652 1048 C 663.045696 1048 672 1054.4918704 672 1062.5 C 672 1070.5081296 663.045696 1077 652 1077 C 640.954304 1077 632 1070.5081296 632 1062.5 Z" stroke-miterlimit="10"/></g><g transform="translate(-501,-150) scale(1,1)"><g><path fill="none" stroke="none"/></g></g><g transform="translate(-501,-150) scale(1,1)"><path fill="none" stroke="#000000" d="M 645 903 L 645 968" stroke-miterlimit="10"/></g><g transform="translate(-501,-150) scale(1,1)"><path fill="#000000" stroke="none" d="M 640.790482243984 957.8373251423759 L 645 968 L 649.209517756016 957.8373251423759"/></g><g transform="translate(-501,-150) scale(1,1)"><path fill="none" stroke="#000000" d="M 640.790482243984 957.8373251423759 L 645 968 L 649.209517756016 957.8373251423759 L 640.790482243984 957.8373251423759" stroke-miterlimit="10"/></g><g transform="translate(-501,-150) scale(1,1)"><g><path fill="none" stroke="none"/><text fill="#000000" stroke="none" font-family="Arial" font-size="20px" font-style="normal" font-weight="normal" text-decoration="none" x="655.5" y="942.5">sim</text></g></g><g transform="translate(-501,-150) scale(1,1)"><path fill="none" stroke="#000000" d="M 648 1011 L 648 1048" stroke-miterlimit="10"/></g><g transform="translate(-501,-150) scale(1,1)"><path fill="#000000" stroke="none" d="M 643.790482243984 1037.837325142376 L 648 1048 L 652.209517756016 1037.837325142376"/></g><g transform="translate(-501,-150) scale(1,1)"><path fill="none" stroke="#000000" d="M 643.790482243984 1037.837325142376 L 648 1048 L 652.209517756016 1037.837325142376 L 643.790482243984 1037.837325142376" stroke-miterlimit="10"/></g><g transform="translate(-501,-150) scale(1,1)"><path fill="none" stroke="#000000" d="M 648 1077 L 648 1120" stroke-miterlimit="10"/></g><g transform="translate(-501,-150) scale(1,1)"><path fill="#000000" stroke="none" d="M 643.790482243984 1109.837325142376 L 648 1120 L 652.209517756016 1109.837325142376"/></g><g transform="translate(-501,-150) scale(1,1)"><path fill="none" stroke="#000000" d="M 643.790482243984 1109.837325142376 L 648 1120 L 652.209517756016 1109.837325142376 L 643.790482243984 1109.837325142376" stroke-miterlimit="10"/></g><g transform="translate(-501,-150) scale(1,1)"><path fill="none" stroke="#000000" d="M 909 853 L 909 968" stroke-miterlimit="10"/></g><g transform="translate(-501,-150) scale(1,1)"><path fill="#000000" stroke="none" d="M 904.790482243984 957.8373251423759 L 909 968 L 913.209517756016 957.8373251423759"/></g><g transform="translate(-501,-150) scale(1,1)"><path fill="none" stroke="#000000" d="M 904.790482243984 957.8373251423759 L 909 968 L 913.209517756016 957.8373251423759 L 904.790482243984 957.8373251423759" stroke-miterlimit="10"/></g><g transform="translate(-501,-150) scale(1,1)"><path fill="none" stroke="#000000" d="M 912 1011 L 912 1056 M 912 1056 A 8 8 0 0 1 904 1064 L 672 1064" stroke-miterlimit="10"/></g><g transform="translate(-501,-150) scale(1,1)"><path fill="#000000" stroke="none" d="M 682.1626748576241 1059.7904822439841 L 672 1064 L 682.1626748576241 1068.2095177560159"/></g><g transform="translate(-501,-150) scale(1,1)"><path fill="none" stroke="#000000" d="M 682.1626748576241 1059.7904822439841 L 672 1064 L 682.1626748576241 1068.2095177560159 L 682.1626748576241 1059.7904822439841" stroke-miterlimit="10"/></g></g></svg>