<svg version="1.1" xmlns="http://www.w3.org/2000/svg" xmlns:xlink="http://www.w3.org/1999/xlink" width="460.63720703125" height="1279"><defs/><g><text fill="#eeeeee" stroke="none" font-family="Arial" font-size="24px" font-style="normal" font-weight="normal" text-decoration="none" x="0" y="0">UNREGISTERED</text><text fill="#eeeeee" stroke="none" font-family="Arial" font-size="24px" font-style="normal" font-weight="normal" text-decoration="none" x="0" y="30">UNREGISTERED</text><text fill="#eeeeee" stroke="none" font-family="Arial" font-size="24px" font-style="normal" font-weight="normal" text-decoration="none" x="0" y="60">UNREGISTERED</text><text fill="#eeeeee" stroke="none" font-family="Arial" font-size="24px" font-style="normal" font-weight="normal" text-decoration="none" x="0" y="90">UNREGISTERED</text><text fill="#eeeeee" stroke="none" font-family="Arial" font-size="24px" font-style="normal" font-weight="normal" text-decoration="none" x="0" y="120">UNREGISTERED</text><text fill="#eeeeee" stroke="none" font-family="Arial" font-size="24px" font-style="normal" font-weight="normal" text-decoration="none" x="0" y="150">UNREGISTERED</text><text fill="#eeeeee" stroke="none" font-family="Arial" font-size="24px" font-style="normal" font-weight="normal" text-decoration="none" x="0" y="180">UNREGISTERED</text><text fill="#eeeeee" stroke="none" font-family="Arial" font-size="24px" font-style="normal" font-weight="normal" text-decoration="none" x="0" y="210">UNREGISTERED</text><text fill="#eeeeee" stroke="none" font-family="Arial" font-size="24px" font-style="normal" font-weight="normal" text-decoration="none" x="0" y="240">UNREGISTERED</text><text fill="#eeeeee" stroke="none" font-family="Arial" font-size="24px" font-style="normal" font-weight="normal" text-decoration="none" x="0" y="270">UNREGISTERED</text><text fill="#eeeeee" stroke="none" font-family="Arial" font-size="24px" font-style="normal" font-weight="normal" text-decoration="none" x="0" y="300">UNREGISTERED</text><text fill="#eeeeee" stroke="none" font-family="Arial" font-size="24px" font-style="normal" font-weight="normal" text-decoration="none" x="0" y="330">UNREGISTERED</text><text fill="#eeeeee" stroke="none" font-family="Arial" font-size="24px" font-style="normal" font-weight="normal" text-decoration="none" x="0" y="360">UNREGISTERED</text><text fill="#eeeeee" stroke="none" font-family="Arial" font-size="24px" font-style="normal" font-weight="normal" text-decoration="none" x="0" y="390">UNREGISTERED</text><text fill="#eeeeee" stroke="none" font-family="Arial" font-size="24px" font-style="normal" font-weight="normal" text-decoration="none" x="0" y="420">UNREGISTERED</text><text fill="#eeeeee" stroke="none" font-family="Arial" font-size="24px" font-style="normal" font-weight="normal" text-decoration="none" x="0" y="450">UNREGISTERED</text><text fill="#eeeeee" stroke="none" font-family="Arial" font-size="24px" font-style="normal" font-weight="normal" text-decoration="none" x="0" y="480">UNREGISTERED</text><text fill="#eeeeee" stroke="none" font-family="Arial" font-size="24px" font-style="normal" font-weight="normal" text-decoration="none" x="0" y="510">UNREGISTERED</text><text fill="#eeeeee" stroke="none" font-family="Arial" font-size="24px" font-style="normal" font-weight="normal" text-decoration="none" x="0" y="540">UNREGISTERED</text><text fill="#eeeeee" stroke="none" font-family="Arial" font-size="24px" font-style="normal" font-weight="normal" text-decoration="none" x="0" y="570">UNREGISTERED</text><text fill="#eeeeee" stroke="none" font-family="Arial" font-size="24px" font-style="normal" font-weight="normal" text-decoration="none" x="0" y="600">UNREGISTERED</text><text fill="#eeeeee" stroke="none" font-family="Arial" font-size="24px" font-style="normal" font-weight="normal" text-decoration="none" x="0" y="630">UNREGISTERED</text><text fill="#eeeeee" stroke="none" font-family="Arial" font-size="24px" font-style="normal" font-weight="normal" text-decoration="none" x="0" y="660">UNREGISTERED</text><text fill="#eeeeee" stroke="none" font-family="Arial" font-size="24px" font-style="normal" font-weight="normal" text-decoration="none" x="0" y="690">UNREGISTERED</text><text fill="#eeeeee" stroke="none" font-family="Arial" font-size="24px" font-style="normal" font-weight="normal" text-decoration="none" x="0" y="720">UNREGISTERED</text><text fill="#eeeeee" stroke="none" font-family="Arial" font-size="24px" font-style="normal" font-weight="normal" text-decoration="none" x="0" y="750">UNREGISTERED</text><text fill="#eeeeee" stroke="none" font-family="Arial" font-size="24px" font-style="normal" font-weight="normal" text-decoration="none" x="0" y="780">UNREGISTERED</text><text fill="#eeeeee" stroke="none" font-family="Arial" font-size="24px" font-style="normal" font-weight="normal" text-decoration="none" x="0" y="810">UNREGISTERED</text><text fill="#eeeeee" stroke="none" font-family="Arial" font-size="24px" font-style="normal" font-weight="normal" text-decoration="none" x="0" y="840">UNREGISTERED</text><text fill="#eeeeee" stroke="none" font-family="Arial" font-size="24px" font-style="normal" font-weight="normal" text-decoration="none" x="0" y="870">UNREGISTERED</text><text fill="#eeeeee" stroke="none" font-family="Arial" font-size="24px" font-style="normal" font-weight="normal" text-decoration="none" x="0" y="900">UNREGISTERED</text><text fill="#eeeeee" stroke="none" font-family="Arial" font-size="24px" font-style="normal" font-weight="normal" text-decoration="none" x="0" y="930">UNREGISTERED</text><text fill="#eeeeee" stroke="none" font-family="Arial" font-size="24px" font-style="normal" font-weight="normal" text-decoration="none" x="0" y="960">UNREGISTERED</text><text fill="#eeeeee" stroke="none" font-family="Arial" font-size="24px" font-style="normal" font-weight="normal" text-decoration="none" x="0" y="990">UNREGISTERED</text><text fill="#eeeeee" stroke="none" font-family="Arial" font-size="24px" font-style="normal" font-weight="normal" text-decoration="none" x="0" y="1020">UNREGISTERED</text><text fill="#eeeeee" stroke="none" font-family="Arial" font-size="24px" font-style="normal" font-weight="normal" text-decoration="none" x="0" y="1050">UNREGISTERED</text><text fill="#eeeeee" stroke="none" font-family="Arial" font-size="24px" font-style="normal" font-weight="normal" text-decoration="none" x="0" y="1080">UNREGISTERED</text><text fill="#eeeeee" stroke="none" font-family="Arial" font-size="24px" font-style="normal" font-weight="normal" text-decoration="none" x="0" y="1110">UNREGISTERED</text><text fill="#eeeeee" stroke="none" font-family="Arial" font-size="24px" font-style="normal" font-weight="normal" text-decoration="none" x="0" y="1140">UNREGISTERED</text><text fill="#eeeeee" stroke="none" font-family="Arial" font-size="24px" font-style="normal" font-weight="normal" text-decoration="none" x="0" y="1170">UNREGISTERED</text><text fill="#eeeeee" stroke="none" font-family="Arial" font-size="24px" font-style="normal" font-weight="normal" text-decoration="none" x="0" y="1200">UNREGISTERED</text><text fill="#eeeeee" stroke="none" font-family="Arial" font-size="24px" font-style="normal" font-weight="normal" text-decoration="none" x="0" y="1230">UNREGISTERED</text><text fill="#eeeeee" stroke="none" font-family="Arial" font-size="24px" font-style="normal" font-weight="normal" text-decoration="none" x="0" y="1260">UNREGISTERED</text><text fill="#eeeeee" stroke="none" font-family="Arial" font-size="24px" font-style="normal" font-weight="normal" text-decoration="none" x="200" y="0">UNREGISTERED</text><text fill="#eeeeee" stroke="none" font-family="Arial" font-size="24px" font-style="normal" font-weight="normal" text-decoration="none" x="200" y="30">UNREGISTERED</text><text fill="#eeeeee" stroke="none" font-family="Arial" font-size="24px" font-style="normal" font-weight="normal" text-decoration="none" x="200" y="60">UNREGISTERED</text><text fill="#eeeeee" stroke="none" font-family="Arial" font-size="24px" font-style="normal" font-weight="normal" text-decoration="none" x="200" y="90">UNREGISTERED</text><text fill="#eeeeee" stroke="none" font-family="Arial" font-size="24px" font-style="normal" font-weight="normal" text-decoration="none" x="200" y="120">UNREGISTERED</text><text fill="#eeeeee" stroke="none" font-family="Arial" font-size="24px" font-style="normal" font-weight="normal" text-decoration="none" x="200" y="150">UNREGISTERED</text><text fill="#eeeeee" stroke="none" font-family="Arial" font-size="24px" font-style="normal" font-weight="normal" text-decoration="none" x="200" y="180">UNREGISTERED</text><text fill="#eeeeee" stroke="none" font-family="Arial" font-size="24px" font-style="normal" font-weight="normal" text-decoration="none" x="200" y="210">UNREGISTERED</text><text fill="#eeeeee" stroke="none" font-family="Arial" font-size="24px" font-style="normal" font-weight="normal" text-decoration="none" x="200" y="240">UNREGISTERED</text><text fill="#eeeeee" stroke="none" font-family="Arial" font-size="24px" font-style="normal" font-weight="normal" text-decoration="none" x="200" y="270">UNREGISTERED</text><text fill="#eeeeee" stroke="none" font-family="Arial" font-size="24px" font-style="normal" font-weight="normal" text-decoration="none" x="200" y="300">UNREGISTERED</text><text fill="#eeeeee" stroke="none" font-family="Arial" font-size="24px" font-style="normal" font-weight="normal" text-decoration="none" x="200" y="330">UNREGISTERED</text><text fill="#eeeeee" stroke="none" font-family="Arial" font-size="24px" font-style="normal" font-weight="normal" text-decoration="none" x="200" y="360">UNREGISTERED</text><text fill="#eeeeee" stroke="none" font-family="Arial" font-size="24px" font-style="normal" font-weight="normal" text-decoration="none" x="200" y="390">UNREGISTERED</text><text fill="#eeeeee" stroke="none" font-family="Arial" font-size="24px" font-style="normal" font-weight="normal" text-decoration="none" x="200" y="420">UNREGISTERED</text><text fill="#eeeeee" stroke="none" font-family="Arial" font-size="24px" font-style="normal" font-weight="normal" text-decoration="none" x="200" y="450">UNREGISTERED</text><text fill="#eeeeee" stroke="none" font-family="Arial" font-size="24px" font-style="normal" font-weight="normal" text-decoration="none" x="200" y="480">UNREGISTERED</text><text fill="#eeeeee" stroke="none" font-family="Arial" font-size="24px" font-style="normal" font-weight="normal" text-decoration="none" x="200" y="510">UNREGISTERED</text><text fill="#eeeeee" stroke="none" font-family="Arial" font-size="24px" font-style="normal" font-weight="normal" text-decoration="none" x="200" y="540">UNREGISTERED</text><text fill="#eeeeee" stroke="none" font-family="Arial" font-size="24px" font-style="normal" font-weight="normal" text-decoration="none" x="200" y="570">UNREGISTERED</text><text fill="#eeeeee" stroke="none" font-family="Arial" font-size="24px" font-style="normal" font-weight="normal" text-decoration="none" x="200" y="600">UNREGISTERED</text><text fill="#eeeeee" stroke="none" font-family="Arial" font-size="24px" font-style="normal" font-weight="normal" text-decoration="none" x="200" y="630">UNREGISTERED</text><text fill="#eeeeee" stroke="none" font-family="Arial" font-size="24px" font-style="normal" font-weight="normal" text-decoration="none" x="200" y="660">UNREGISTERED</text><text fill="#eeeeee" stroke="none" font-family="Arial" font-size="24px" font-style="normal" font-weight="normal" text-decoration="none" x="200" y="690">UNREGISTERED</text><text fill="#eeeeee" stroke="none" font-family="Arial" font-size="24px" font-style="normal" font-weight="normal" text-decoration="none" x="200" y="720">UNREGISTERED</text><text fill="#eeeeee" stroke="none" font-family="Arial" font-size="24px" font-style="normal" font-weight="normal" text-decoration="none" x="200" y="750">UNREGISTERED</text><text fill="#eeeeee" stroke="none" font-family="Arial" font-size="24px" font-style="normal" font-weight="normal" text-decoration="none" x="200" y="780">UNREGISTERED</text><text fill="#eeeeee" stroke="none" font-family="Arial" font-size="24px" font-style="normal" font-weight="normal" text-decoration="none" x="200" y="810">UNREGISTERED</text><text fill="#eeeeee" stroke="none" font-family="Arial" font-size="24px" font-style="normal" font-weight="normal" text-decoration="none" x="200" y="840">UNREGISTERED</text><text fill="#eeeeee" stroke="none" font-family="Arial" font-size="24px" font-style="normal" font-weight="normal" text-decoration="none" x="200" y="870">UNREGISTERED</text><text fill="#eeeeee" stroke="none" font-family="Arial" font-size="24px" font-style="normal" font-weight="normal" text-decoration="none" x="200" y="900">UNREGISTERED</text><text fill="#eeeeee" stroke="none" font-family="Arial" font-size="24px" font-style="normal" font-weight="normal" text-decoration="none" x="200" y="930">UNREGISTERED</text><text fill="#eeeeee" stroke="none" font-family="Arial" font-size="24px" font-style="normal" font-weight="normal" text-decoration="none" x="200" y="960">UNREGISTERED</text><text fill="#eeeeee" stroke="none" font-family="Arial" font-size="24px" font-style="normal" font-weight="normal" text-decoration="none" x="200" y="990">UNREGISTERED</text><text fill="#eeeeee" stroke="none" font-family="Arial" font-size="24px" font-style="normal" font-weight="normal" text-decoration="none" x="200" y="1020">UNREGISTERED</text><text fill="#eeeeee" stroke="none" font-family="Arial" font-size="24px" font-style="normal" font-weight="normal" text-decoration="none" x="200" y="1050">UNREGISTERED</text><text fill="#eeeeee" stroke="none" font-family="Arial" font-size="24px" font-style="normal" font-weight="normal" text-decoration="none" x="200" y="1080">UNREGISTERED</text><text fill="#eeeeee" stroke="none" font-family="Arial" font-size="24px" font-style="normal" font-weight="normal" text-decoration="none" x="200" y="1110">UNREGISTERED</text><text fill="#eeeeee" stroke="none" font-family="Arial" font-size="24px" font-style="normal" font-weight="normal" text-decoration="none" x="200" y="1140">UNREGISTERED</text><text fill="#eeeeee" stroke="none" font-family="Arial" font-size="24px" font-style="normal" font-weight="normal" text-decoration="none" x="200" y="1170">UNREGISTERED</text><text fill="#eeeeee" stroke="none" font-family="Arial" font-size="24px" font-style="normal" font-weight="normal" text-decoration="none" x="200" y="1200">UNREGISTERED</text><text fill="#eeeeee" stroke="none" font-family="Arial" font-size="24px" font-style="normal" font-weight="normal" text-decoration="none" x="200" y="1230">UNREGISTERED</text><text fill="#eeeeee" stroke="none" font-family="Arial" font-size="24px" font-style="normal" font-weight="normal" text-decoration="none" x="200" y="1260">UNREGISTERED</text><text fill="#eeeeee" stroke="none" font-family="Arial" font-size="24px" font-style="normal" font-weight="normal" text-decoration="none" x="400" y="0">UNREGISTERED</text><text fill="#eeeeee" stroke="none" font-family="Arial" font-size="24px" font-style="normal" font-weight="normal" text-decoration="none" x="400" y="30">UNREGISTERED</text><text fill="#eeeeee" stroke="none" font-family="Arial" font-size="24px" font-style="normal" font-weight="normal" text-decoration="none" x="400" y="60">UNREGISTERED</text><text fill="#eeeeee" stroke="none" font-family="Arial" font-size="24px" font-style="normal" font-weight="normal" text-decoration="none" x="400" y="90">UNREGISTERED</text><text fill="#eeeeee" stroke="none" font-family="Arial" font-size="24px" font-style="normal" font-weight="normal" text-decoration="none" x="400" y="120">UNREGISTERED</text><text fill="#eeeeee" stroke="none" font-family="Arial" font-size="24px" font-style="normal" font-weight="normal" text-decoration="none" x="400" y="150">UNREGISTERED</text><text fill="#eeeeee" stroke="none" font-family="Arial" font-size="24px" font-style="normal" font-weight="normal" text-decoration="none" x="400" y="180">UNREGISTERED</text><text fill="#eeeeee" stroke="none" font-family="Arial" font-size="24px" font-style="normal" font-weight="normal" text-decoration="none" x="400" y="210">UNREGISTERED</text><text fill="#eeeeee" stroke="none" font-family="Arial" font-size="24px" font-style="normal" font-weight="normal" text-decoration="none" x="400" y="240">UNREGISTERED</text><text fill="#eeeeee" stroke="none" font-family="Arial" font-size="24px" font-style="normal" font-weight="normal" text-decoration="none" x="400" y="270">UNREGISTERED</text><text fill="#eeeeee" stroke="none" font-family="Arial" font-size="24px" font-style="normal" font-weight="normal" text-decoration="none" x="400" y="300">UNREGISTERED</text><text fill="#eeeeee" stroke="none" font-family="Arial" font-size="24px" font-style="normal" font-weight="normal" text-decoration="none" x="400" y="330">UNREGISTERED</text><text fill="#eeeeee" stroke="none" font-family="Arial" font-size="24px" font-style="normal" font-weight="normal" text-decoration="none" x="400" y="360">UNREGISTERED</text><text fill="#eeeeee" stroke="none" font-family="Arial" font-size="24px" font-style="normal" font-weight="normal" text-decoration="none" x="400" y="390">UNREGISTERED</text><text fill="#eeeeee" stroke="none" font-family="Arial" font-size="24px" font-style="normal" font-weight="normal" text-decoration="none" x="400" y="420">UNREGISTERED</text><text fill="#eeeeee" stroke="none" font-family="Arial" font-size="24px" font-style="normal" font-weight="normal" text-decoration="none" x="400" y="450">UNREGISTERED</text><text fill="#eeeeee" stroke="none" font-family="Arial" font-size="24px" font-style="normal" font-weight="normal" text-decoration="none" x="400" y="480">UNREGISTERED</text><text fill="#eeeeee" stroke="none" font-family="Arial" font-size="24px" font-style="normal" font-weight="normal" text-decoration="none" x="400" y="510">UNREGISTERED</text><text fill="#eeeeee" stroke="none" font-family="Arial" font-size="24px" font-style="normal" font-weight="normal" text-decoration="none" x="400" y="540">UNREGISTERED</text><text fill="#eeeeee" stroke="none" font-family="Arial" font-size="24px" font-style="normal" font-weight="normal" text-decoration="none" x="400" y="570">UNREGISTERED</text><text fill="#eeeeee" stroke="none" font-family="Arial" font-size="24px" font-style="normal" font-weight="normal" text-decoration="none" x="400" y="600">UNREGISTERED</text><text fill="#eeeeee" stroke="none" font-family="Arial" font-size="24px" font-style="normal" font-weight="normal" text-decoration="none" x="400" y="630">UNREGISTERED</text><text fill="#eeeeee" stroke="none" font-family="Arial" font-size="24px" font-style="normal" font-weight="normal" text-decoration="none" x="400" y="660">UNREGISTERED</text><text fill="#eeeeee" stroke="none" font-family="Arial" font-size="24px" font-style="normal" font-weight="normal" text-decoration="none" x="400" y="690">UNREGISTERED</text><text fill="#eeeeee" stroke="none" font-family="Arial" font-size="24px" font-style="normal" font-weight="normal" text-decoration="none" x="400" y="720">UNREGISTERED</text><text fill="#eeeeee" stroke="none" font-family="Arial" font-size="24px" font-style="normal" font-weight="normal" text-decoration="none" x="400" y="750">UNREGISTERED</text><text fill="#eeeeee" stroke="none" font-family="Arial" font-size="24px" font-style="normal" font-weight="normal" text-decoration="none" x="400" y="780">UNREGISTERED</text><text fill="#eeeeee" stroke="none" font-family="Arial" font-size="24px" font-style="normal" font-weight="normal" text-decoration="none" x="400" y="810">UNREGISTERED</text><text fill="#eeeeee" stroke="none" font-family="Arial" font-size="24px" font-style="normal" font-weight="normal" text-decoration="none" x="400" y="840">UNREGISTERED</text><text fill="#eeeeee" stroke="none" font-family="Arial" font-size="24px" font-style="normal" font-weight="normal" text-decoration="none" x="400" y="870">UNREGISTERED</text><text fill="#eeeeee" stroke="none" font-family="Arial" font-size="24px" font-style="normal" font-weight="normal" text-decoration="none" x="400" y="900">UNREGISTERED</text><text fill="#eeeeee" stroke="none" font-family="Arial" font-size="24px" font-style="normal" font-weight="normal" text-decoration="none" x="400" y="930">UNREGISTERED</text><text fill="#eeeeee" stroke="none" font-family="Arial" font-size="24px" font-style="normal" font-weight="normal" text-decoration="none" x="400" y="960">UNREGISTERED</text><text fill="#eeeeee" stroke="none" font-family="Arial" font-size="24px" font-style="normal" font-weight="normal" text-decoration="none" x="400" y="990">UNREGISTERED</text><text fill="#eeeeee" stroke="none" font-family="Arial" font-size="24px" font-style="normal" font-weight="normal" text-decoration="none" x="400" y="1020">UNREGISTERED</text><text fill="#eeeeee" stroke="none" font-family="Arial" font-size="24px" font-style="normal" font-weight="normal" text-decoration="none" x="400" y="1050">UNREGISTERED</text><text fill="#eeeeee" stroke="none" font-family="Arial" font-size="24px" font-style="normal" font-weight="normal" text-decoration="none" x="400" y="1080">UNREGISTERED</text><text fill="#eeeeee" stroke="none" font-family="Arial" font-size="24px" font-style="normal" font-weight="normal" text-decoration="none" x="400" y="1110">UNREGISTERED</text><text fill="#eeeeee" stroke="none" font-family="Arial" font-size="24px" font-style="normal" font-weight="normal" text-decoration="none" x="400" y="1140">UNREGISTERED</text><text fill="#eeeeee" stroke="none" font-family="Arial" font-size="24px" font-style="normal" font-weight="normal" text-decoration="none" x="400" y="1170">UNREGISTERED</text><text fill="#eeeeee" stroke="none" font-family="Arial" font-size="24px" font-style="normal" font-weight="normal" text-decoration="none" x="400" y="1200">UNREGISTERED</text><text fill="#eeeeee" stroke="none" font-family="Arial" font-size="24px" font-style="normal" font-weight="normal" text-decoration="none" x="400" y="1230">UNREGISTERED</text><text fill="#eeeeee" stroke="none" font-family="Arial" font-size="24px" font-style="normal" font-weight="normal" text-decoration="none" x="400" y="1260">UNREGISTERED</text><g transform="translate(-501,-150) scale(1,1)"><path fill="#ffeaad" stroke="none" d="M 613 160 L 681 160 Q 703 160 703 182 L 703 181 Q 703 203 681 203 L 613 203 Q 591 203 591 181 L 591 182 Q 591 160 613 160 Z"/></g><g transform="translate(-501,-150) scale(1,1)"><path fill="none" stroke="#000000" d="M 613 160 L 681 160 Q 703 160 703 182 L 703 181 Q 703 203 681 203 L 613 203 Q 591 203 591 181 L 591 182 Q 591 160 613 160 Z" stroke-miterlimit="10"/></g><g transform="translate(-501,-150) scale(1,1)"><g><path fill="none" stroke="none"/><text fill="#000000" stroke="none" font-family="Arial" font-size="24px" font-style="normal" font-weight="normal" text-decoration="none" x="618.318359375" y="193.5">Início</text></g></g><g transform="translate(-501,-150) scale(1,1)"><rect fill="#ffeaad" stroke="none" x="527" y="248" width="240" height="91"/></g><g transform="translate(-501,-150) scale(1,1)"><path fill="none" stroke="#000000" d="M 527 248 L 767 248 L 767 339 L 527 339 L 527 248 Z Z" stroke-miterlimit="10"/></g><g transform="translate(-501,-150) scale(1,1)"><g><path fill="none" stroke="none"/><text fill="#000000" stroke="none" font-family="Arial" font-size="24px" font-style="normal" font-weight="normal" text-decoration="none" x="560.275390625" y="281.5">Pressiona botão</text><text fill="#000000" stroke="none" font-family="Arial" font-size="24px" font-style="normal" font-weight="normal" text-decoration="none" x="588.306640625" y="305.5">para iniciar</text><text fill="#000000" stroke="none" font-family="Arial" font-size="24px" font-style="normal" font-weight="normal" text-decoration="none" x="586.291015625" y="329.5">atualização</text></g></g><g transform="translate(-501,-150) scale(1,1)"><path fill="#ffeaad" stroke="none" d="M 527 479.5 L 647.91796875 384 L 768.8359375 479.5 L 647.91796875 575 L 527 479.5"/></g><g transform="translate(-501,-150) scale(1,1)"><path fill="none" stroke="#000000" d="M 527 479.5 L 647.91796875 384 L 768.8359375 479.5 L 647.91796875 575 L 527 479.5 L 527 479.5" stroke-miterlimit="10"/></g><g transform="translate(-501,-150) scale(1,1)"><g><path fill="none" stroke="none"/><text fill="#000000" stroke="none" font-family="Arial" font-size="24px" font-style="normal" font-weight="normal" text-decoration="none" x="589.875" y="455.5">Bootloader</text><text fill="#000000" stroke="none" font-family="Arial" font-size="24px" font-style="normal" font-weight="normal" text-decoration="none" x="634.5703125" y="479.5">no</text><text fill="#000000" stroke="none" font-family="Arial" font-size="24px" font-style="normal" font-weight="normal" text-decoration="none" x="588.544921875" y="503.5">sub-estado</text><text fill="#000000" stroke="none" font-family="Arial" font-size="24px" font-style="normal" font-weight="normal" text-decoration="none" x="587.208984375" y="527.5">Recepção?</text></g></g><g transform="translate(-501,-150) scale(1,1)"><path fill="#ffeaad" stroke="none" d="M 613 1376 L 681 1376 Q 703 1376 703 1398 L 703 1397 Q 703 1419 681 1419 L 613 1419 Q 591 1419 591 1397 L 591 1398 Q 591 1376 613 1376 Z"/></g><g transform="translate(-501,-150) scale(1,1)"><path fill="none" stroke="#000000" d="M 613 1376 L 681 1376 Q 703 1376 703 1398 L 703 1397 Q 703 1419 681 1419 L 613 1419 Q 591 1419 591 1397 L 591 1398 Q 591 1376 613 1376 Z" stroke-miterlimit="10"/></g><g transform="translate(-501,-150) scale(1,1)"><g><path fill="none" stroke="none"/><text fill="#000000" stroke="none" font-family="Arial" font-size="24px" font-style="normal" font-weight="normal" text-decoration="none" x="600.974609375" y="1409.5">Sucesso</text></g></g><g transform="translate(-501,-150) scale(1,1)"><rect fill="#ffeaad" stroke="none" x="511" y="616" width="272" height="91"/></g><g transform="translate(-501,-150) scale(1,1)"><path fill="none" stroke="#000000" d="M 511 616 L 783 616 L 783 707 L 511 707 L 511 616 Z Z" stroke-miterlimit="10"/></g><g transform="translate(-501,-150) scale(1,1)"><g><path fill="none" stroke="none"/><text fill="#000000" stroke="none" font-family="Arial" font-size="24px" font-style="normal" font-weight="normal" text-decoration="none" x="560.064453125" y="649.5">Transfere dados</text><text fill="#000000" stroke="none" font-family="Arial" font-size="24px" font-style="normal" font-weight="normal" text-decoration="none" x="527.603515625" y="673.5">adicionais incorretos e</text><text fill="#000000" stroke="none" font-family="Arial" font-size="24px" font-style="normal" font-weight="normal" text-decoration="none" x="560.31640625" y="697.5">firmware correto</text></g></g><g transform="translate(-501,-150) scale(1,1)"><path fill="#ffeaad" stroke="none" d="M 515 847.5 L 647 752 L 779 847.5 L 647 943 L 515 847.5"/></g><g transform="translate(-501,-150) scale(1,1)"><path fill="none" stroke="#000000" d="M 515 847.5 L 647 752 L 779 847.5 L 647 943 L 515 847.5 L 515 847.5" stroke-miterlimit="10"/></g><g transform="translate(-501,-150) scale(1,1)"><g><path fill="none" stroke="none"/><text fill="#000000" stroke="none" font-family="Arial" font-size="24px" font-style="normal" font-weight="normal" text-decoration="none" x="588.95703125" y="823.5">Bootloader</text><text fill="#000000" stroke="none" font-family="Arial" font-size="24px" font-style="normal" font-weight="normal" text-decoration="none" x="633.65234375" y="847.5">no</text><text fill="#000000" stroke="none" font-family="Arial" font-size="24px" font-style="normal" font-weight="normal" text-decoration="none" x="587.626953125" y="871.5">sub-estado</text><text fill="#000000" stroke="none" font-family="Arial" font-size="24px" font-style="normal" font-weight="normal" text-decoration="none" x="586.291015625" y="895.5">Recepção?</text></g></g><g transform="translate(-501,-150) scale(1,1)"><path fill="none" stroke="#000000" d="M 648 575 L 648 616" stroke-miterlimit="10"/></g><g transform="translate(-501,-150) scale(1,1)"><path fill="#000000" stroke="none" d="M 643.790482243984 605.8373251423759 L 648 616 L 652.209517756016 605.8373251423759"/></g><g transform="translate(-501,-150) scale(1,1)"><path fill="none" stroke="#000000" d="M 643.790482243984 605.8373251423759 L 648 616 L 652.209517756016 605.8373251423759 L 643.790482243984 605.8373251423759" stroke-miterlimit="10"/></g><g transform="translate(-501,-150) scale(1,1)"><g><path fill="none" stroke="none"/><text fill="#000000" stroke="none" font-family="Arial" font-size="20px" font-style="normal" font-weight="normal" text-decoration="none" x="655.5" y="602.5">sim</text></g></g><g transform="translate(-501,-150) scale(1,1)"><path fill="none" stroke="#000000" d="M 648 203 L 648 248" stroke-miterlimit="10"/></g><g transform="translate(-501,-150) scale(1,1)"><path fill="#000000" stroke="none" d="M 643.790482243984 237.83732514237585 L 648 248 L 652.209517756016 237.83732514237585"/></g><g transform="translate(-501,-150) scale(1,1)"><path fill="none" stroke="#000000" d="M 643.790482243984 237.83732514237585 L 648 248 L 652.209517756016 237.83732514237585 L 643.790482243984 237.83732514237585" stroke-miterlimit="10"/></g><g transform="translate(-501,-150) scale(1,1)"><path fill="none" stroke="#000000" d="M 648 707 L 648 752" stroke-miterlimit="10"/></g><g transform="translate(-501,-150) scale(1,1)"><path fill="#000000" stroke="none" d="M 643.790482243984 741.8373251423759 L 648 752 L 652.209517756016 741.8373251423759"/></g><g transform="translate(-501,-150) scale(1,1)"><path fill="none" stroke="#000000" d="M 643.790482243984 741.8373251423759 L 648 752 L 652.209517756016 741.8373251423759 L 643.790482243984 741.8373251423759" stroke-miterlimit="10"/></g><g transform="translate(-501,-150) scale(1,1)"><path fill="none" stroke="#000000" d="M 648 339 L 648 384" stroke-miterlimit="10"/></g><g transform="translate(-501,-150) scale(1,1)"><path fill="#000000" stroke="none" d="M 643.790482243984 373.83732514237585 L 648 384 L 652.209517756016 373.83732514237585"/></g><g transform="translate(-501,-150) scale(1,1)"><path fill="none" stroke="#000000" d="M 643.790482243984 373.83732514237585 L 648 384 L 652.209517756016 373.83732514237585 L 643.790482243984 373.83732514237585" stroke-miterlimit="10"/></g><g transform="translate(-501,-150) scale(1,1)"><path fill="#ffeaad" stroke="none" d="M 886 1376 L 929.63720703125 1376 Q 951.63720703125 1376 951.63720703125 1398 L 951.63720703125 1397 Q 951.63720703125 1419 929.63720703125 1419 L 886 1419 Q 864 1419 864 1397 L 864 1398 Q 864 1376 886 1376 Z"/></g><g transform="translate(-501,-150) scale(1,1)"><path fill="none" stroke="#000000" d="M 886 1376 L 929.63720703125 1376 Q 951.63720703125 1376 951.63720703125 1398 L 951.63720703125 1397 Q 951.63720703125 1419 929.63720703125 1419 L 886 1419 Q 864 1419 864 1397 L 864 1398 Q 864 1376 886 1376 Z" stroke-miterlimit="10"/></g><g transform="translate(-501,-150) scale(1,1)"><g><path fill="none" stroke="none"/><text fill="#000000" stroke="none" font-family="Arial" font-size="24px" font-style="normal" font-weight="normal" text-decoration="none" x="877.801025390625" y="1409.5">Falha</text></g></g><g transform="translate(-501,-150) scale(1,1)"><path fill="#ffffff" stroke="none" d="M 885 854.5 C 885 846.4918704 892.835016 840 902.5 840 C 912.164984 840 920 846.4918704 920 854.5 C 920 862.5081296 912.164984 869 902.5 869 C 892.835016 869 885 862.5081296 885 854.5 Z"/></g><g transform="translate(-501,-150) scale(1,1)"><path fill="none" stroke="#000000" d="M 885 854.5 C 885 846.4918704 892.835016 840 902.5 840 C 912.164984 840 920 846.4918704 920 854.5 C 920 862.5081296 912.164984 869 902.5 869 C 892.835016 869 885 862.5081296 885 854.5 Z" stroke-miterlimit="10"/></g><g transform="translate(-501,-150) scale(1,1)"><g><path fill="none" stroke="none"/></g></g><g transform="translate(-501,-150) scale(1,1)"><path fill="none" stroke="#000000" d="M 779 848 L 885 848" stroke-miterlimit="10"/></g><g transform="translate(-501,-150) scale(1,1)"><path fill="#000000" stroke="none" d="M 874.8373251423759 852.209517756016 L 885 848 L 874.8373251423758 843.790482243984"/></g><g transform="translate(-501,-150) scale(1,1)"><path fill="none" stroke="#000000" d="M 874.8373251423759 852.209517756016 L 885 848 L 874.8373251423758 843.790482243984 L 874.8373251423759 852.209517756016" stroke-miterlimit="10"/></g><g transform="translate(-501,-150) scale(1,1)"><g><path fill="none" stroke="none"/><text fill="#000000" stroke="none" font-family="Arial" font-size="20px" font-style="normal" font-weight="normal" text-decoration="none" x="797.5" y="838.5">não</text></g></g><g transform="translate(-501,-150) scale(1,1)"><path fill="none" stroke="#000000" d="M 769 480 L 896 480 M 896 480 A 8 8 0 0 1 904 488 L 904 840" stroke-miterlimit="10"/></g><g transform="translate(-501,-150) scale(1,1)"><path fill="#000000" stroke="none" d="M 899.790482243984 829.8373251423759 L 904 840 L 908.209517756016 829.8373251423759"/></g><g transform="translate(-501,-150) scale(1,1)"><path fill="none" stroke="#000000" d="M 899.790482243984 829.8373251423759 L 904 840 L 908.209517756016 829.8373251423759 L 899.790482243984 829.8373251423759" stroke-miterlimit="10"/></g><g transform="translate(-501,-150) scale(1,1)"><g><path fill="none" stroke="none"/><text fill="#000000" stroke="none" font-family="Arial" font-size="20px" font-style="normal" font-weight="normal" text-decoration="none" x="799.5" y="465.5">não</text></g></g><g transform="translate(-501,-150) scale(1,1)"><rect fill="#ffeaad" stroke="none" x="511" y="984" width="272" height="91"/></g><g transform="translate(-501,-150) scale(1,1)"><path fill="none" stroke="#000000" d="M 511 984 L 783 984 L 783 1075 L 511 1075 L 511 984 Z Z" stroke-miterlimit="10"/></g><g transform="translate(-501,-150) scale(1,1)"><g><path fill="none" stroke="none"/><text fill="#000000" stroke="none" font-family="Arial" font-size="24px" font-style="normal" font-weight="normal" text-decoration="none" x="560.064453125" y="1017.5">Transfere dados</text><text fill="#000000" stroke="none" font-family="Arial" font-size="24px" font-style="normal" font-weight="normal" text-decoration="none" x="534.2890625" y="1041.5">adicionais e firmware</text><text fill="#000000" stroke="none" font-family="Arial" font-size="24px" font-style="normal" font-weight="normal" text-decoration="none" x="603.65234375" y="1065.5">corretos</text></g></g><g transform="translate(-501,-150) scale(1,1)"><path fill="#ffeaad" stroke="none" d="M 532 1223.5 L 647.5859375 1128 L 763.171875 1223.5 L 647.5859375 1319 L 532 1223.5"/></g><g transform="translate(-501,-150) scale(1,1)"><path fill="none" stroke="#000000" d="M 532 1223.5 L 647.5859375 1128 L 763.171875 1223.5 L 647.5859375 1319 L 532 1223.5 L 532 1223.5" stroke-miterlimit="10"/></g><g transform="translate(-501,-150) scale(1,1)"><g><path fill="none" stroke="none"/><text fill="#000000" stroke="none" font-family="Arial" font-size="24px" font-style="normal" font-weight="normal" text-decoration="none" x="597.587890625" y="1211.5">Firmware</text><text fill="#000000" stroke="none" font-family="Arial" font-size="24px" font-style="normal" font-weight="normal" text-decoration="none" x="593.556640625" y="1235.5">entrou em</text><text fill="#000000" stroke="none" font-family="Arial" font-size="24px" font-style="normal" font-weight="normal" text-decoration="none" x="589.54296875" y="1259.5">execução?</text></g></g><g transform="translate(-501,-150) scale(1,1)"><path fill="none" stroke="#000000" d="M 648 943 L 648 984" stroke-miterlimit="10"/></g><g transform="translate(-501,-150) scale(1,1)"><path fill="#000000" stroke="none" d="M 643.790482243984 973.8373251423759 L 648 984 L 652.209517756016 973.8373251423759"/></g><g transform="translate(-501,-150) scale(1,1)"><path fill="none" stroke="#000000" d="M 643.790482243984 973.8373251423759 L 648 984 L 652.209517756016 973.8373251423759 L 643.790482243984 973.8373251423759" stroke-miterlimit="10"/></g><g transform="translate(-501,-150) scale(1,1)"><g><path fill="none" stroke="none"/><text fill="#000000" stroke="none" font-family="Arial" font-size="20px" font-style="normal" font-weight="normal" text-decoration="none" x="663.5" y="970.5">sim</text></g></g><g transform="translate(-501,-150) scale(1,1)"><path fill="none" stroke="#000000" d="M 647 1075 L 647 1128" stroke-miterlimit="10"/></g><g transform="translate(-501,-150) scale(1,1)"><path fill="#000000" stroke="none" d="M 642.790482243984 1117.837325142376 L 647 1128 L 651.209517756016 1117.837325142376"/></g><g transform="translate(-501,-150) scale(1,1)"><path fill="none" stroke="#000000" d="M 642.790482243984 1117.837325142376 L 647 1128 L 651.209517756016 1117.837325142376 L 642.790482243984 1117.837325142376" stroke-miterlimit="10"/></g><g transform="translate(-501,-150) scale(1,1)"><path fill="none" stroke="#000000" d="M 648 1319 L 648 1376" stroke-miterlimit="10"/></g><g transform="translate(-501,-150) scale(1,1)"><path fill="#000000" stroke="none" d="M 643.790482243984 1365.837325142376 L 648 1376 L 652.209517756016 1365.837325142376"/></g><g transform="translate(-501,-150) scale(1,1)"><path fill="none" stroke="#000000" d="M 643.790482243984 1365.837325142376 L 648 1376 L 652.209517756016 1365.837325142376 L 643.790482243984 1365.837325142376" stroke-miterlimit="10"/></g><g transform="translate(-501,-150) scale(1,1)"><g><path fill="none" stroke="none"/><text fill="#000000" stroke="none" font-family="Arial" font-size="20px" font-style="normal" font-weight="normal" text-decoration="none" x="662.5" y="1366.5">sim</text></g></g><g transform="translate(-501,-150) scale(1,1)"><path fill="#ffffff" stroke="none" d="M 882 1222.5 C 882 1214.4918704 890.954304 1208 902 1208 C 913.045696 1208 922 1214.4918704 922 1222.5 C 922 1230.5081296 913.045696 1237 902 1237 C 890.954304 1237 882 1230.5081296 882 1222.5 Z"/></g><g transform="translate(-501,-150) scale(1,1)"><path fill="none" stroke="#000000" d="M 882 1222.5 C 882 1214.4918704 890.954304 1208 902 1208 C 913.045696 1208 922 1214.4918704 922 1222.5 C 922 1230.5081296 913.045696 1237 902 1237 C 890.954304 1237 882 1230.5081296 882 1222.5 Z" stroke-miterlimit="10"/></g><g transform="translate(-501,-150) scale(1,1)"><g><path fill="none" stroke="none"/></g></g><g transform="translate(-501,-150) scale(1,1)"><path fill="none" stroke="#000000" d="M 763 1224 L 882 1224" stroke-miterlimit="10"/></g><g transform="translate(-501,-150) scale(1,1)"><path fill="#000000" stroke="none" d="M 871.8373251423759 1228.2095177560159 L 882 1224 L 871.8373251423758 1219.7904822439841"/></g><g transform="translate(-501,-150) scale(1,1)"><path fill="none" stroke="#000000" d="M 871.8373251423759 1228.2095177560159 L 882 1224 L 871.8373251423758 1219.7904822439841 L 871.8373251423759 1228.2095177560159" stroke-miterlimit="10"/></g><g transform="translate(-501,-150) scale(1,1)"><g><path fill="none" stroke="none"/><text fill="#000000" stroke="none" font-family="Arial" font-size="20px" font-style="normal" font-weight="normal" text-decoration="none" x="783.5" y="1212.5">não</text></g></g><g transform="translate(-501,-150) scale(1,1)"><path fill="none" stroke="#000000" d="M 904 1237 L 904 1376" stroke-miterlimit="10"/></g><g transform="translate(-501,-150) scale(1,1)"><path fill="#000000" stroke="none" d="M 899.790482243984 1365.837325142376 L 904 1376 L 908.209517756016 1365.837325142376"/></g><g transform="translate(-501,-150) scale(1,1)"><path fill="none" stroke="#000000" d="M 899.790482243984 1365.837325142376 L 904 1376 L 908.209517756016 1365.837325142376 L 899.790482243984 1365.837325142376" stroke-miterlimit="10"/></g><g transform="translate(-501,-150) scale(1,1)"><path fill="none" stroke="#000000" d="M 905 869 L 905 1208" stroke-miterlimit="10"/></g><g transform="translate(-501,-150) scale(1,1)"><path fill="#000000" stroke="none" d="M 900.790482243984 1197.837325142376 L 905 1208 L 909.209517756016 1197.837325142376"/></g><g transform="translate(-501,-150) scale(1,1)"><path fill="none" stroke="#000000" d="M 900.790482243984 1197.837325142376 L 905 1208 L 909.209517756016 1197.837325142376 L 900.790482243984 1197.837325142376" stroke-miterlimit="10"/></g></g></svg>