<svg version="1.1" xmlns="http://www.w3.org/2000/svg" xmlns:xlink="http://www.w3.org/1999/xlink" width="460.63720703125" height="887"><defs/><g><text fill="#eeeeee" stroke="none" font-family="Arial" font-size="24px" font-style="normal" font-weight="normal" text-decoration="none" x="0" y="0">UNREGISTERED</text><text fill="#eeeeee" stroke="none" font-family="Arial" font-size="24px" font-style="normal" font-weight="normal" text-decoration="none" x="0" y="30">UNREGISTERED</text><text fill="#eeeeee" stroke="none" font-family="Arial" font-size="24px" font-style="normal" font-weight="normal" text-decoration="none" x="0" y="60">UNREGISTERED</text><text fill="#eeeeee" stroke="none" font-family="Arial" font-size="24px" font-style="normal" font-weight="normal" text-decoration="none" x="0" y="90">UNREGISTERED</text><text fill="#eeeeee" stroke="none" font-family="Arial" font-size="24px" font-style="normal" font-weight="normal" text-decoration="none" x="0" y="120">UNREGISTERED</text><text fill="#eeeeee" stroke="none" font-family="Arial" font-size="24px" font-style="normal" font-weight="normal" text-decoration="none" x="0" y="150">UNREGISTERED</text><text fill="#eeeeee" stroke="none" font-family="Arial" font-size="24px" font-style="normal" font-weight="normal" text-decoration="none" x="0" y="180">UNREGISTERED</text><text fill="#eeeeee" stroke="none" font-family="Arial" font-size="24px" font-style="normal" font-weight="normal" text-decoration="none" x="0" y="210">UNREGISTERED</text><text fill="#eeeeee" stroke="none" font-family="Arial" font-size="24px" font-style="normal" font-weight="normal" text-decoration="none" x="0" y="240">UNREGISTERED</text><text fill="#eeeeee" stroke="none" font-family="Arial" font-size="24px" font-style="normal" font-weight="normal" text-decoration="none" x="0" y="270">UNREGISTERED</text><text fill="#eeeeee" stroke="none" font-family="Arial" font-size="24px" font-style="normal" font-weight="normal" text-decoration="none" x="0" y="300">UNREGISTERED</text><text fill="#eeeeee" stroke="none" font-family="Arial" font-size="24px" font-style="normal" font-weight="normal" text-decoration="none" x="0" y="330">UNREGISTERED</text><text fill="#eeeeee" stroke="none" font-family="Arial" font-size="24px" font-style="normal" font-weight="normal" text-decoration="none" x="0" y="360">UNREGISTERED</text><text fill="#eeeeee" stroke="none" font-family="Arial" font-size="24px" font-style="normal" font-weight="normal" text-decoration="none" x="0" y="390">UNREGISTERED</text><text fill="#eeeeee" stroke="none" font-family="Arial" font-size="24px" font-style="normal" font-weight="normal" text-decoration="none" x="0" y="420">UNREGISTERED</text><text fill="#eeeeee" stroke="none" font-family="Arial" font-size="24px" font-style="normal" font-weight="normal" text-decoration="none" x="0" y="450">UNREGISTERED</text><text fill="#eeeeee" stroke="none" font-family="Arial" font-size="24px" font-style="normal" font-weight="normal" text-decoration="none" x="0" y="480">UNREGISTERED</text><text fill="#eeeeee" stroke="none" font-family="Arial" font-size="24px" font-style="normal" font-weight="normal" text-decoration="none" x="0" y="510">UNREGISTERED</text><text fill="#eeeeee" stroke="none" font-family="Arial" font-size="24px" font-style="normal" font-weight="normal" text-decoration="none" x="0" y="540">UNREGISTERED</text><text fill="#eeeeee" stroke="none" font-family="Arial" font-size="24px" font-style="normal" font-weight="normal" text-decoration="none" x="0" y="570">UNREGISTERED</text><text fill="#eeeeee" stroke="none" font-family="Arial" font-size="24px" font-style="normal" font-weight="normal" text-decoration="none" x="0" y="600">UNREGISTERED</text><text fill="#eeeeee" stroke="none" font-family="Arial" font-size="24px" font-style="normal" font-weight="normal" text-decoration="none" x="0" y="630">UNREGISTERED</text><text fill="#eeeeee" stroke="none" font-family="Arial" font-size="24px" font-style="normal" font-weight="normal" text-decoration="none" x="0" y="660">UNREGISTERED</text><text fill="#eeeeee" stroke="none" font-family="Arial" font-size="24px" font-style="normal" font-weight="normal" text-decoration="none" x="0" y="690">UNREGISTERED</text><text fill="#eeeeee" stroke="none" font-family="Arial" font-size="24px" font-style="normal" font-weight="normal" text-decoration="none" x="0" y="720">UNREGISTERED</text><text fill="#eeeeee" stroke="none" font-family="Arial" font-size="24px" font-style="normal" font-weight="normal" text-decoration="none" x="0" y="750">UNREGISTERED</text><text fill="#eeeeee" stroke="none" font-family="Arial" font-size="24px" font-style="normal" font-weight="normal" text-decoration="none" x="0" y="780">UNREGISTERED</text><text fill="#eeeeee" stroke="none" font-family="Arial" font-size="24px" font-style="normal" font-weight="normal" text-decoration="none" x="0" y="810">UNREGISTERED</text><text fill="#eeeeee" stroke="none" font-family="Arial" font-size="24px" font-style="normal" font-weight="normal" text-decoration="none" x="0" y="840">UNREGISTERED</text><text fill="#eeeeee" stroke="none" font-family="Arial" font-size="24px" font-style="normal" font-weight="normal" text-decoration="none" x="0" y="870">UNREGISTERED</text><text fill="#eeeeee" stroke="none" font-family="Arial" font-size="24px" font-style="normal" font-weight="normal" text-decoration="none" x="200" y="0">UNREGISTERED</text><text fill="#eeeeee" stroke="none" font-family="Arial" font-size="24px" font-style="normal" font-weight="normal" text-decoration="none" x="200" y="30">UNREGISTERED</text><text fill="#eeeeee" stroke="none" font-family="Arial" font-size="24px" font-style="normal" font-weight="normal" text-decoration="none" x="200" y="60">UNREGISTERED</text><text fill="#eeeeee" stroke="none" font-family="Arial" font-size="24px" font-style="normal" font-weight="normal" text-decoration="none" x="200" y="90">UNREGISTERED</text><text fill="#eeeeee" stroke="none" font-family="Arial" font-size="24px" font-style="normal" font-weight="normal" text-decoration="none" x="200" y="120">UNREGISTERED</text><text fill="#eeeeee" stroke="none" font-family="Arial" font-size="24px" font-style="normal" font-weight="normal" text-decoration="none" x="200" y="150">UNREGISTERED</text><text fill="#eeeeee" stroke="none" font-family="Arial" font-size="24px" font-style="normal" font-weight="normal" text-decoration="none" x="200" y="180">UNREGISTERED</text><text fill="#eeeeee" stroke="none" font-family="Arial" font-size="24px" font-style="normal" font-weight="normal" text-decoration="none" x="200" y="210">UNREGISTERED</text><text fill="#eeeeee" stroke="none" font-family="Arial" font-size="24px" font-style="normal" font-weight="normal" text-decoration="none" x="200" y="240">UNREGISTERED</text><text fill="#eeeeee" stroke="none" font-family="Arial" font-size="24px" font-style="normal" font-weight="normal" text-decoration="none" x="200" y="270">UNREGISTERED</text><text fill="#eeeeee" stroke="none" font-family="Arial" font-size="24px" font-style="normal" font-weight="normal" text-decoration="none" x="200" y="300">UNREGISTERED</text><text fill="#eeeeee" stroke="none" font-family="Arial" font-size="24px" font-style="normal" font-weight="normal" text-decoration="none" x="200" y="330">UNREGISTERED</text><text fill="#eeeeee" stroke="none" font-family="Arial" font-size="24px" font-style="normal" font-weight="normal" text-decoration="none" x="200" y="360">UNREGISTERED</text><text fill="#eeeeee" stroke="none" font-family="Arial" font-size="24px" font-style="normal" font-weight="normal" text-decoration="none" x="200" y="390">UNREGISTERED</text><text fill="#eeeeee" stroke="none" font-family="Arial" font-size="24px" font-style="normal" font-weight="normal" text-decoration="none" x="200" y="420">UNREGISTERED</text><text fill="#eeeeee" stroke="none" font-family="Arial" font-size="24px" font-style="normal" font-weight="normal" text-decoration="none" x="200" y="450">UNREGISTERED</text><text fill="#eeeeee" stroke="none" font-family="Arial" font-size="24px" font-style="normal" font-weight="normal" text-decoration="none" x="200" y="480">UNREGISTERED</text><text fill="#eeeeee" stroke="none" font-family="Arial" font-size="24px" font-style="normal" font-weight="normal" text-decoration="none" x="200" y="510">UNREGISTERED</text><text fill="#eeeeee" stroke="none" font-family="Arial" font-size="24px" font-style="normal" font-weight="normal" text-decoration="none" x="200" y="540">UNREGISTERED</text><text fill="#eeeeee" stroke="none" font-family="Arial" font-size="24px" font-style="normal" font-weight="normal" text-decoration="none" x="200" y="570">UNREGISTERED</text><text fill="#eeeeee" stroke="none" font-family="Arial" font-size="24px" font-style="normal" font-weight="normal" text-decoration="none" x="200" y="600">UNREGISTERED</text><text fill="#eeeeee" stroke="none" font-family="Arial" font-size="24px" font-style="normal" font-weight="normal" text-decoration="none" x="200" y="630">UNREGISTERED</text><text fill="#eeeeee" stroke="none" font-family="Arial" font-size="24px" font-style="normal" font-weight="normal" text-decoration="none" x="200" y="660">UNREGISTERED</text><text fill="#eeeeee" stroke="none" font-family="Arial" font-size="24px" font-style="normal" font-weight="normal" text-decoration="none" x="200" y="690">UNREGISTERED</text><text fill="#eeeeee" stroke="none" font-family="Arial" font-size="24px" font-style="normal" font-weight="normal" text-decoration="none" x="200" y="720">UNREGISTERED</text><text fill="#eeeeee" stroke="none" font-family="Arial" font-size="24px" font-style="normal" font-weight="normal" text-decoration="none" x="200" y="750">UNREGISTERED</text><text fill="#eeeeee" stroke="none" font-family="Arial" font-size="24px" font-style="normal" font-weight="normal" text-decoration="none" x="200" y="780">UNREGISTERED</text><text fill="#eeeeee" stroke="none" font-family="Arial" font-size="24px" font-style="normal" font-weight="normal" text-decoration="none" x="200" y="810">UNREGISTERED</text><text fill="#eeeeee" stroke="none" font-family="Arial" font-size="24px" font-style="normal" font-weight="normal" text-decoration="none" x="200" y="840">UNREGISTERED</text><text fill="#eeeeee" stroke="none" font-family="Arial" font-size="24px" font-style="normal" font-weight="normal" text-decoration="none" x="200" y="870">UNREGISTERED</text><text fill="#eeeeee" stroke="none" font-family="Arial" font-size="24px" font-style="normal" font-weight="normal" text-decoration="none" x="400" y="0">UNREGISTERED</text><text fill="#eeeeee" stroke="none" font-family="Arial" font-size="24px" font-style="normal" font-weight="normal" text-decoration="none" x="400" y="30">UNREGISTERED</text><text fill="#eeeeee" stroke="none" font-family="Arial" font-size="24px" font-style="normal" font-weight="normal" text-decoration="none" x="400" y="60">UNREGISTERED</text><text fill="#eeeeee" stroke="none" font-family="Arial" font-size="24px" font-style="normal" font-weight="normal" text-decoration="none" x="400" y="90">UNREGISTERED</text><text fill="#eeeeee" stroke="none" font-family="Arial" font-size="24px" font-style="normal" font-weight="normal" text-decoration="none" x="400" y="120">UNREGISTERED</text><text fill="#eeeeee" stroke="none" font-family="Arial" font-size="24px" font-style="normal" font-weight="normal" text-decoration="none" x="400" y="150">UNREGISTERED</text><text fill="#eeeeee" stroke="none" font-family="Arial" font-size="24px" font-style="normal" font-weight="normal" text-decoration="none" x="400" y="180">UNREGISTERED</text><text fill="#eeeeee" stroke="none" font-family="Arial" font-size="24px" font-style="normal" font-weight="normal" text-decoration="none" x="400" y="210">UNREGISTERED</text><text fill="#eeeeee" stroke="none" font-family="Arial" font-size="24px" font-style="normal" font-weight="normal" text-decoration="none" x="400" y="240">UNREGISTERED</text><text fill="#eeeeee" stroke="none" font-family="Arial" font-size="24px" font-style="normal" font-weight="normal" text-decoration="none" x="400" y="270">UNREGISTERED</text><text fill="#eeeeee" stroke="none" font-family="Arial" font-size="24px" font-style="normal" font-weight="normal" text-decoration="none" x="400" y="300">UNREGISTERED</text><text fill="#eeeeee" stroke="none" font-family="Arial" font-size="24px" font-style="normal" font-weight="normal" text-decoration="none" x="400" y="330">UNREGISTERED</text><text fill="#eeeeee" stroke="none" font-family="Arial" font-size="24px" font-style="normal" font-weight="normal" text-decoration="none" x="400" y="360">UNREGISTERED</text><text fill="#eeeeee" stroke="none" font-family="Arial" font-size="24px" font-style="normal" font-weight="normal" text-decoration="none" x="400" y="390">UNREGISTERED</text><text fill="#eeeeee" stroke="none" font-family="Arial" font-size="24px" font-style="normal" font-weight="normal" text-decoration="none" x="400" y="420">UNREGISTERED</text><text fill="#eeeeee" stroke="none" font-family="Arial" font-size="24px" font-style="normal" font-weight="normal" text-decoration="none" x="400" y="450">UNREGISTERED</text><text fill="#eeeeee" stroke="none" font-family="Arial" font-size="24px" font-style="normal" font-weight="normal" text-decoration="none" x="400" y="480">UNREGISTERED</text><text fill="#eeeeee" stroke="none" font-family="Arial" font-size="24px" font-style="normal" font-weight="normal" text-decoration="none" x="400" y="510">UNREGISTERED</text><text fill="#eeeeee" stroke="none" font-family="Arial" font-size="24px" font-style="normal" font-weight="normal" text-decoration="none" x="400" y="540">UNREGISTERED</text><text fill="#eeeeee" stroke="none" font-family="Arial" font-size="24px" font-style="normal" font-weight="normal" text-decoration="none" x="400" y="570">UNREGISTERED</text><text fill="#eeeeee" stroke="none" font-family="Arial" font-size="24px" font-style="normal" font-weight="normal" text-decoration="none" x="400" y="600">UNREGISTERED</text><text fill="#eeeeee" stroke="none" font-family="Arial" font-size="24px" font-style="normal" font-weight="normal" text-decoration="none" x="400" y="630">UNREGISTERED</text><text fill="#eeeeee" stroke="none" font-family="Arial" font-size="24px" font-style="normal" font-weight="normal" text-decoration="none" x="400" y="660">UNREGISTERED</text><text fill="#eeeeee" stroke="none" font-family="Arial" font-size="24px" font-style="normal" font-weight="normal" text-decoration="none" x="400" y="690">UNREGISTERED</text><text fill="#eeeeee" stroke="none" font-family="Arial" font-size="24px" font-style="normal" font-weight="normal" text-decoration="none" x="400" y="720">UNREGISTERED</text><text fill="#eeeeee" stroke="none" font-family="Arial" font-size="24px" font-style="normal" font-weight="normal" text-decoration="none" x="400" y="750">UNREGISTERED</text><text fill="#eeeeee" stroke="none" font-family="Arial" font-size="24px" font-style="normal" font-weight="normal" text-decoration="none" x="400" y="780">UNREGISTERED</text><text fill="#eeeeee" stroke="none" font-family="Arial" font-size="24px" font-style="normal" font-weight="normal" text-decoration="none" x="400" y="810">UNREGISTERED</text><text fill="#eeeeee" stroke="none" font-family="Arial" font-size="24px" font-style="normal" font-weight="normal" text-decoration="none" x="400" y="840">UNREGISTERED</text><text fill="#eeeeee" stroke="none" font-family="Arial" font-size="24px" font-style="normal" font-weight="normal" text-decoration="none" x="400" y="870">UNREGISTERED</text><g transform="translate(-501,-150) scale(1,1)"><path fill="#ffeaad" stroke="none" d="M 614 160 L 682 160 Q 704 160 704 182 L 704 181 Q 704 203 682 203 L 614 203 Q 592 203 592 181 L 592 182 Q 592 160 614 160 Z"/></g><g transform="translate(-501,-150) scale(1,1)"><path fill="none" stroke="#000000" d="M 614 160 L 682 160 Q 704 160 704 182 L 704 181 Q 704 203 682 203 L 614 203 Q 592 203 592 181 L 592 182 Q 592 160 614 160 Z" stroke-miterlimit="10"/></g><g transform="translate(-501,-150) scale(1,1)"><g><path fill="none" stroke="none"/><text fill="#000000" stroke="none" font-family="Arial" font-size="24px" font-style="normal" font-weight="normal" text-decoration="none" x="619.318359375" y="193.5">Início</text></g></g><g transform="translate(-501,-150) scale(1,1)"><rect fill="#ffeaad" stroke="none" x="527" y="248" width="240" height="91"/></g><g transform="translate(-501,-150) scale(1,1)"><path fill="none" stroke="#000000" d="M 527 248 L 767 248 L 767 339 L 527 339 L 527 248 Z Z" stroke-miterlimit="10"/></g><g transform="translate(-501,-150) scale(1,1)"><g><path fill="none" stroke="none"/><text fill="#000000" stroke="none" font-family="Arial" font-size="24px" font-style="normal" font-weight="normal" text-decoration="none" x="560.275390625" y="281.5">Pressiona botão</text><text fill="#000000" stroke="none" font-family="Arial" font-size="24px" font-style="normal" font-weight="normal" text-decoration="none" x="588.306640625" y="305.5">para iniciar</text><text fill="#000000" stroke="none" font-family="Arial" font-size="24px" font-style="normal" font-weight="normal" text-decoration="none" x="586.291015625" y="329.5">atualização</text></g></g><g transform="translate(-501,-150) scale(1,1)"><path fill="#ffeaad" stroke="none" d="M 527 479.5 L 647.91796875 384 L 768.8359375 479.5 L 647.91796875 575 L 527 479.5"/></g><g transform="translate(-501,-150) scale(1,1)"><path fill="none" stroke="#000000" d="M 527 479.5 L 647.91796875 384 L 768.8359375 479.5 L 647.91796875 575 L 527 479.5 L 527 479.5" stroke-miterlimit="10"/></g><g transform="translate(-501,-150) scale(1,1)"><g><path fill="none" stroke="none"/><text fill="#000000" stroke="none" font-family="Arial" font-size="24px" font-style="normal" font-weight="normal" text-decoration="none" x="589.875" y="455.5">Bootloader</text><text fill="#000000" stroke="none" font-family="Arial" font-size="24px" font-style="normal" font-weight="normal" text-decoration="none" x="634.5703125" y="479.5">no</text><text fill="#000000" stroke="none" font-family="Arial" font-size="24px" font-style="normal" font-weight="normal" text-decoration="none" x="588.544921875" y="503.5">sub-estado</text><text fill="#000000" stroke="none" font-family="Arial" font-size="24px" font-style="normal" font-weight="normal" text-decoration="none" x="587.208984375" y="527.5">Recepção?</text></g></g><g transform="translate(-501,-150) scale(1,1)"><path fill="#ffeaad" stroke="none" d="M 613 984 L 681 984 Q 703 984 703 1006 L 703 1005 Q 703 1027 681 1027 L 613 1027 Q 591 1027 591 1005 L 591 1006 Q 591 984 613 984 Z"/></g><g transform="translate(-501,-150) scale(1,1)"><path fill="none" stroke="#000000" d="M 613 984 L 681 984 Q 703 984 703 1006 L 703 1005 Q 703 1027 681 1027 L 613 1027 Q 591 1027 591 1005 L 591 1006 Q 591 984 613 984 Z" stroke-miterlimit="10"/></g><g transform="translate(-501,-150) scale(1,1)"><g><path fill="none" stroke="none"/><text fill="#000000" stroke="none" font-family="Arial" font-size="24px" font-style="normal" font-weight="normal" text-decoration="none" x="600.974609375" y="1017.5">Sucesso</text></g></g><g transform="translate(-501,-150) scale(1,1)"><rect fill="#ffeaad" stroke="none" x="511" y="608" width="272" height="91"/></g><g transform="translate(-501,-150) scale(1,1)"><path fill="none" stroke="#000000" d="M 511 608 L 783 608 L 783 699 L 511 699 L 511 608 Z Z" stroke-miterlimit="10"/></g><g transform="translate(-501,-150) scale(1,1)"><g><path fill="none" stroke="none"/><text fill="#000000" stroke="none" font-family="Arial" font-size="24px" font-style="normal" font-weight="normal" text-decoration="none" x="560.064453125" y="641.5">Transfere dados</text><text fill="#000000" stroke="none" font-family="Arial" font-size="24px" font-style="normal" font-weight="normal" text-decoration="none" x="534.2890625" y="665.5">adicionais e firmware</text><text fill="#000000" stroke="none" font-family="Arial" font-size="24px" font-style="normal" font-weight="normal" text-decoration="none" x="603.65234375" y="689.5">corretos</text></g></g><g transform="translate(-501,-150) scale(1,1)"><path fill="#ffeaad" stroke="none" d="M 515 839.5 L 647 768 L 779 839.5 L 647 911 L 515 839.5"/></g><g transform="translate(-501,-150) scale(1,1)"><path fill="none" stroke="#000000" d="M 515 839.5 L 647 768 L 779 839.5 L 647 911 L 515 839.5 L 515 839.5" stroke-miterlimit="10"/></g><g transform="translate(-501,-150) scale(1,1)"><g><path fill="none" stroke="none"/><text fill="#000000" stroke="none" font-family="Arial" font-size="24px" font-style="normal" font-weight="normal" text-decoration="none" x="597.001953125" y="827.5">Firmware</text><text fill="#000000" stroke="none" font-family="Arial" font-size="24px" font-style="normal" font-weight="normal" text-decoration="none" x="592.970703125" y="851.5">entrou em</text><text fill="#000000" stroke="none" font-family="Arial" font-size="24px" font-style="normal" font-weight="normal" text-decoration="none" x="588.95703125" y="875.5">execução?</text></g></g><g transform="translate(-501,-150) scale(1,1)"><path fill="none" stroke="#000000" d="M 648 575 L 648 608" stroke-miterlimit="10"/></g><g transform="translate(-501,-150) scale(1,1)"><path fill="#000000" stroke="none" d="M 643.790482243984 597.8373251423759 L 648 608 L 652.209517756016 597.8373251423759"/></g><g transform="translate(-501,-150) scale(1,1)"><path fill="none" stroke="#000000" d="M 643.790482243984 597.8373251423759 L 648 608 L 652.209517756016 597.8373251423759 L 643.790482243984 597.8373251423759" stroke-miterlimit="10"/></g><g transform="translate(-501,-150) scale(1,1)"><g><path fill="none" stroke="none"/><text fill="#000000" stroke="none" font-family="Arial" font-size="20px" font-style="normal" font-weight="normal" text-decoration="none" x="662.5" y="602.5">sim</text></g></g><g transform="translate(-501,-150) scale(1,1)"><path fill="none" stroke="#000000" d="M 648 911 L 648 984" stroke-miterlimit="10"/></g><g transform="translate(-501,-150) scale(1,1)"><path fill="#000000" stroke="none" d="M 643.790482243984 973.8373251423759 L 648 984 L 652.209517756016 973.8373251423759"/></g><g transform="translate(-501,-150) scale(1,1)"><path fill="none" stroke="#000000" d="M 643.790482243984 973.8373251423759 L 648 984 L 652.209517756016 973.8373251423759 L 643.790482243984 973.8373251423759" stroke-miterlimit="10"/></g><g transform="translate(-501,-150) scale(1,1)"><g><path fill="none" stroke="none"/><text fill="#000000" stroke="none" font-family="Arial" font-size="20px" font-style="normal" font-weight="normal" text-decoration="none" x="662.5" y="978.5">sim</text></g></g><g transform="translate(-501,-150) scale(1,1)"><path fill="none" stroke="#000000" d="M 648 203 L 648 248" stroke-miterlimit="10"/></g><g transform="translate(-501,-150) scale(1,1)"><path fill="#000000" stroke="none" d="M 643.790482243984 237.83732514237585 L 648 248 L 652.209517756016 237.83732514237585"/></g><g transform="translate(-501,-150) scale(1,1)"><path fill="none" stroke="#000000" d="M 643.790482243984 237.83732514237585 L 648 248 L 652.209517756016 237.83732514237585 L 643.790482243984 237.83732514237585" stroke-miterlimit="10"/></g><g transform="translate(-501,-150) scale(1,1)"><path fill="none" stroke="#000000" d="M 648 699 L 648 768" stroke-miterlimit="10"/></g><g transform="translate(-501,-150) scale(1,1)"><path fill="#000000" stroke="none" d="M 643.790482243984 757.8373251423759 L 648 768 L 652.209517756016 757.8373251423759"/></g><g transform="translate(-501,-150) scale(1,1)"><path fill="none" stroke="#000000" d="M 643.790482243984 757.8373251423759 L 648 768 L 652.209517756016 757.8373251423759 L 643.790482243984 757.8373251423759" stroke-miterlimit="10"/></g><g transform="translate(-501,-150) scale(1,1)"><path fill="none" stroke="#000000" d="M 648 339 L 648 384" stroke-miterlimit="10"/></g><g transform="translate(-501,-150) scale(1,1)"><path fill="#000000" stroke="none" d="M 643.790482243984 373.83732514237585 L 648 384 L 652.209517756016 373.83732514237585"/></g><g transform="translate(-501,-150) scale(1,1)"><path fill="none" stroke="#000000" d="M 643.790482243984 373.83732514237585 L 648 384 L 652.209517756016 373.83732514237585 L 643.790482243984 373.83732514237585" stroke-miterlimit="10"/></g><g transform="translate(-501,-150) scale(1,1)"><path fill="#ffeaad" stroke="none" d="M 886 984 L 929.63720703125 984 Q 951.63720703125 984 951.63720703125 1006 L 951.63720703125 1005 Q 951.63720703125 1027 929.63720703125 1027 L 886 1027 Q 864 1027 864 1005 L 864 1006 Q 864 984 886 984 Z"/></g><g transform="translate(-501,-150) scale(1,1)"><path fill="none" stroke="#000000" d="M 886 984 L 929.63720703125 984 Q 951.63720703125 984 951.63720703125 1006 L 951.63720703125 1005 Q 951.63720703125 1027 929.63720703125 1027 L 886 1027 Q 864 1027 864 1005 L 864 1006 Q 864 984 886 984 Z" stroke-miterlimit="10"/></g><g transform="translate(-501,-150) scale(1,1)"><g><path fill="none" stroke="none"/><text fill="#000000" stroke="none" font-family="Arial" font-size="24px" font-style="normal" font-weight="normal" text-decoration="none" x="877.801025390625" y="1017.5">Falha</text></g></g><g transform="translate(-501,-150) scale(1,1)"><path fill="#ffffff" stroke="none" d="M 888 838.5 C 888 830.4918704 895.835016 824 905.5 824 C 915.164984 824 923 830.4918704 923 838.5 C 923 846.5081296 915.164984 853 905.5 853 C 895.835016 853 888 846.5081296 888 838.5 Z"/></g><g transform="translate(-501,-150) scale(1,1)"><path fill="none" stroke="#000000" d="M 888 838.5 C 888 830.4918704 895.835016 824 905.5 824 C 915.164984 824 923 830.4918704 923 838.5 C 923 846.5081296 915.164984 853 905.5 853 C 895.835016 853 888 846.5081296 888 838.5 Z" stroke-miterlimit="10"/></g><g transform="translate(-501,-150) scale(1,1)"><g><path fill="none" stroke="none"/></g></g><g transform="translate(-501,-150) scale(1,1)"><path fill="none" stroke="#000000" d="M 779 840 L 888 840" stroke-miterlimit="10"/></g><g transform="translate(-501,-150) scale(1,1)"><path fill="#000000" stroke="none" d="M 877.8373251423759 844.209517756016 L 888 840 L 877.8373251423758 835.790482243984"/></g><g transform="translate(-501,-150) scale(1,1)"><path fill="none" stroke="#000000" d="M 877.8373251423759 844.209517756016 L 888 840 L 877.8373251423758 835.790482243984 L 877.8373251423759 844.209517756016" stroke-miterlimit="10"/></g><g transform="translate(-501,-150) scale(1,1)"><g><path fill="none" stroke="none"/><text fill="#000000" stroke="none" font-family="Arial" font-size="20px" font-style="normal" font-weight="normal" text-decoration="none" x="816.5" y="834.5">não</text></g></g><g transform="translate(-501,-150) scale(1,1)"><path fill="none" stroke="#000000" d="M 769 480 L 896 480 M 896 480 A 8 8 0 0 1 904 488 L 904 824" stroke-miterlimit="10"/></g><g transform="translate(-501,-150) scale(1,1)"><path fill="#000000" stroke="none" d="M 899.790482243984 813.8373251423759 L 904 824 L 908.209517756016 813.8373251423759"/></g><g transform="translate(-501,-150) scale(1,1)"><path fill="none" stroke="#000000" d="M 899.790482243984 813.8373251423759 L 904 824 L 908.209517756016 813.8373251423759 L 899.790482243984 813.8373251423759" stroke-miterlimit="10"/></g><g transform="translate(-501,-150) scale(1,1)"><g><path fill="none" stroke="none"/><text fill="#000000" stroke="none" font-family="Arial" font-size="20px" font-style="normal" font-weight="normal" text-decoration="none" x="815.5" y="465.5">não</text></g></g><g transform="translate(-501,-150) scale(1,1)"><path fill="none" stroke="#000000" d="M 904 853 L 904 984" stroke-miterlimit="10"/></g><g transform="translate(-501,-150) scale(1,1)"><path fill="#000000" stroke="none" d="M 899.790482243984 973.8373251423759 L 904 984 L 908.209517756016 973.8373251423759"/></g><g transform="translate(-501,-150) scale(1,1)"><path fill="none" stroke="#000000" d="M 899.790482243984 973.8373251423759 L 904 984 L 908.209517756016 973.8373251423759 L 899.790482243984 973.8373251423759" stroke-miterlimit="10"/></g></g></svg>